Katibeh-Regular.ufo
<glyph name="uni0621" format="1">
  <advance width="330"/>
  <unicode hex="0621"/>
  <outline>
    <contour>
      <point x="173" y="100"/>
      <point x="154" y="127"/>
      <point x="148" y="136" type="curve"/>
      <point x="150" y="138"/>
      <point x="173" y="155"/>
      <point x="191" y="155" type="curve" smooth="yes"/>
      <point x="195" y="155"/>
      <point x="211" y="150"/>
      <point x="219" y="132" type="curve"/>
      <point x="247" y="156" type="line"/>
      <point x="247" y="156"/>
      <point x="239" y="203"/>
      <point x="202" y="203" type="curve" smooth="yes"/>
      <point x="160" y="203"/>
      <point x="115" y="142"/>
      <point x="112" y="136" type="curve"/>
      <point x="109" y="132"/>
      <point x="108" y="128"/>
      <point x="108" y="124" type="curve" smooth="yes"/>
      <point x="108" y="84"/>
      <point x="143" y="71"/>
      <point x="143" y="71" type="curve"/>
      <point x="135" y="67"/>
      <point x="113" y="61"/>
      <point x="103" y="57" type="curve"/>
      <point x="70" y="6" type="line"/>
      <point x="78" y="0" type="line"/>
      <point x="120" y="21"/>
      <point x="184" y="45"/>
      <point x="263" y="58" type="curve"/>
      <point x="263" y="58"/>
      <point x="280" y="103"/>
      <point x="280" y="104" type="curve"/>
      <point x="258" y="100"/>
      <point x="239" y="97"/>
      <point x="212" y="90" type="curve"/>
    </contour>
    <contour>
      <point x="185" y="223" type="move" name="top"/>
    </contour>
    <contour>
      <point x="165" y="-12" type="move" name="bottom"/>
    </contour>
  </outline>
</glyph>
<glyph name="uni0627" format="1">
  <advance width="169"/>
  <unicode hex="0627"/>
  <outline>
    <contour>
      <point x="78" y="655"/>
      <point x="54" y="622"/>
      <point x="47" y="612" type="curve" smooth="yes"/>
      <point x="36" y="596"/>
      <point x="27" y="580"/>
      <point x="31" y="528" type="curve" smooth="yes"/>
      <point x="34" y="494"/>
      <point x="41" y="434"/>
      <point x="49" y="363" type="curve" smooth="yes"/>
      <point x="56" y="304"/>
      <point x="63" y="236"/>
      <point x="67" y="168" type="curve" smooth="yes"/>
      <point x="70" y="122"/>
      <point x="72" y="41"/>
      <point x="72" y="0" type="curve"/>
      <point x="82" y="0" type="line"/>
      <point x="82" y="0"/>
      <point x="101" y="22"/>
      <point x="111" y="42" type="curve" smooth="yes"/>
      <point x="123" y="63"/>
      <point x="125" y="87"/>
      <point x="126" y="96" type="curve" smooth="yes"/>
      <point x="130" y="138"/>
      <point x="129" y="194"/>
      <point x="127" y="234" type="curve" smooth="yes"/>
      <point x="126" y="277"/>
      <point x="123" y="335"/>
      <point x="119" y="395" type="curve" smooth="yes"/>
      <point x="115" y="465"/>
      <point x="111" y="536"/>
      <point x="107" y="583" type="curve"/>
      <point x="129" y="578" type="line"/>
      <point x="96" y="681" type="line"/>
    </contour>
    <contour>
      <point x="75" y="682" type="move" name="top"/>
    </contour>
    <contour>
      <point x="81" y="0" type="move" name="bottom"/>
    </contour>
  </outline>
</glyph>
<glyph name="uni062F" format="1">
  <advance width="409"/>
  <unicode hex="062F"/>
  <outline>
    <contour>
      <point x="219" y="311"/>
      <point x="167" y="324"/>
      <point x="152" y="337" type="curve"/>
      <point x="114" y="253" type="line"/>
      <point x="108" y="238"/>
      <point x="125" y="218"/>
      <point x="139" y="211" type="curve" smooth="yes"/>
      <point x="164" y="199" type="line"/>
      <point x="175" y="217" type="line"/>
      <point x="199" y="216"/>
      <point x="265" y="176"/>
      <point x="312" y="105" type="curve"/>
      <point x="283" y="99"/>
      <point x="229" y="96"/>
      <point x="196" y="96" type="curve" smooth="yes"/>
      <point x="143" y="96"/>
      <point x="95" y="104"/>
      <point x="72" y="139" type="curve"/>
      <point x="72" y="139"/>
      <point x="70" y="101"/>
      <point x="70" y="85" type="curve" smooth="yes"/>
      <point x="70" y="57"/>
      <point x="76" y="-8"/>
      <point x="180" y="-8" type="curve" smooth="yes"/>
      <point x="230" y="-8"/>
      <point x="271" y="7"/>
      <point x="298" y="27" type="curve" smooth="yes"/>
      <point x="337" y="56"/>
      <point x="349" y="95"/>
      <point x="349" y="133" type="curve" smooth="yes"/>
      <point x="349" y="203"/>
      <point x="307" y="251"/>
      <point x="264" y="280" type="curve" smooth="yes"/>
    </contour>
    <contour>
      <point x="159" y="361" type="move" name="top"/>
    </contour>
    <contour>
      <point x="200" y="-34" type="move" name="bottom"/>
    </contour>
  </outline>
</glyph>
<glyph name="uni0631" format="1">
  <advance width="319"/>
  <unicode hex="0631"/>
  <outline>
    <contour>
      <point x="254" y="-45"/>
      <point x="262" y="1"/>
      <point x="258" y="45" type="curve" smooth="yes"/>
      <point x="253" y="120"/>
      <point x="215" y="190"/>
      <point x="147" y="227" type="curve"/>
      <point x="115" y="146" type="line" smooth="yes"/>
      <point x="109" y="132"/>
      <point x="115" y="118"/>
      <point x="127" y="109" type="curve" smooth="yes"/>
      <point x="154" y="89"/>
      <point x="180" y="72"/>
      <point x="203" y="46" type="curve"/>
      <point x="196" y="-18"/>
      <point x="167" y="-50"/>
      <point x="131" y="-70" type="curve" smooth="yes"/>
      <point x="87" y="-96"/>
      <point x="13" y="-98"/>
      <point x="-20" y="-99" type="curve"/>
      <point x="-20" y="-204" type="line"/>
      <point x="25" y="-201"/>
      <point x="44" y="-235"/>
      <point x="51" y="-255" type="curve"/>
      <point x="54" y="-255" type="line"/>
      <point x="54" y="-198" type="line"/>
      <point x="69" y="-198"/>
      <point x="132" y="-193"/>
      <point x="172" y="-165" type="curve" smooth="yes"/>
      <point x="197" y="-148"/>
      <point x="217" y="-124"/>
      <point x="234" y="-87" type="curve" smooth="yes"/>
    </contour>
    <contour>
      <point x="47" y="24" type="move" name="center"/>
    </contour>
    <contour>
      <point x="74" y="-261" type="move" name="bottom"/>
    </contour>
    <contour>
      <point x="143" y="256" type="move" name="top"/>
    </contour>
  </outline>
</glyph>
<glyph name="uni0637" format="1">
  <advance width="673"/>
  <unicode hex="0637"/>
  <outline>
    <contour>
      <point x="426" y="285"/>
      <point x="379" y="255"/>
      <point x="337" y="216" type="curve"/>
      <point x="350" y="266"/>
      <point x="346" y="343"/>
      <point x="341" y="389" type="curve" smooth="yes"/>
      <point x="336" y="437"/>
      <point x="324" y="503"/>
      <point x="318" y="534" type="curve" smooth="yes"/>
      <point x="312" y="566"/>
      <point x="317" y="580"/>
      <point x="339" y="596" type="curve"/>
      <point x="310" y="617"/>
      <point x="289" y="645"/>
      <point x="273" y="683" type="curve"/>
      <point x="243" y="679"/>
      <point x="230" y="652"/>
      <point x="225" y="635" type="curve" smooth="yes"/>
      <point x="218" y="611"/>
      <point x="220" y="581"/>
      <point x="220" y="581" type="curve"/>
      <point x="236" y="567" type="line"/>
      <point x="258" y="512"/>
      <point x="269" y="457"/>
      <point x="278" y="392" type="curve" smooth="yes"/>
      <point x="287" y="327"/>
      <point x="292" y="265"/>
      <point x="292" y="169" type="curve"/>
      <point x="275" y="149"/>
      <point x="258" y="126"/>
      <point x="247" y="108" type="curve"/>
      <point x="247" y="108"/>
      <point x="203" y="106"/>
      <point x="179" y="106" type="curve" smooth="yes"/>
      <point x="141" y="106"/>
      <point x="70" y="111"/>
      <point x="70" y="111" type="curve"/>
      <point x="136" y="-3" type="line"/>
      <point x="195" y="-2" type="line"/>
      <point x="193" y="-6"/>
      <point x="191" y="-10"/>
      <point x="188" y="-15" type="curve"/>
      <point x="209" y="-37" type="line"/>
      <point x="230" y="-1" type="line"/>
      <point x="355" y="2" type="line" smooth="yes"/>
      <point x="433" y="3"/>
      <point x="483" y="18"/>
      <point x="519" y="40" type="curve" smooth="yes"/>
      <point x="549" y="58"/>
      <point x="569" y="81"/>
      <point x="583" y="104" type="curve" smooth="yes"/>
      <point x="603" y="136"/>
      <point x="609" y="166"/>
      <point x="613" y="178" type="curve"/>
      <point x="601" y="206"/>
      <point x="589" y="229"/>
      <point x="573" y="247" type="curve" smooth="yes"/>
      <point x="550" y="272"/>
      <point x="518" y="285"/>
      <point x="481" y="285" type="curve" smooth="yes"/>
    </contour>
    <contour>
      <point x="291" y="106" type="line" smooth="yes"/>
      <point x="291" y="106"/>
      <point x="309" y="134"/>
      <point x="341" y="160" type="curve" smooth="yes"/>
      <point x="369" y="183"/>
      <point x="408" y="203"/>
      <point x="452" y="203" type="curve" smooth="yes"/>
      <point x="476" y="203"/>
      <point x="497" y="197"/>
      <point x="513" y="183" type="curve" smooth="yes"/>
      <point x="522" y="175"/>
      <point x="531" y="164"/>
      <point x="539" y="151" type="curve"/>
      <point x="501" y="118"/>
      <point x="455" y="106"/>
      <point x="375" y="106" type="curve" smooth="yes"/>
    </contour>
    <contour>
      <point x="482" y="311" type="move" name="top"/>
    </contour>
    <contour>
      <point x="355" y="-34" type="move" name="bottom"/>
    </contour>
  </outline>
</glyph>
<glyph name="uni0639" format="1">
  <advance width="515"/>
  <unicode hex="0639"/>
  <outline>
    <contour>
      <point x="315" y="-269"/>
      <point x="253" y="-255"/>
      <point x="210" y="-233" type="curve" smooth="yes"/>
      <point x="157" y="-206"/>
      <point x="130" y="-167"/>
      <point x="130" y="-126" type="curve" smooth="yes"/>
      <point x="130" y="-62"/>
      <point x="171" y="-17"/>
      <point x="222" y="14" type="curve" smooth="yes"/>
      <point x="287" y="54"/>
      <point x="369" y="72"/>
      <point x="404" y="82" type="curve"/>
      <point x="450" y="185" type="line"/>
      <point x="356" y="162"/>
      <point x="274" y="142"/>
      <point x="273" y="142" type="curve"/>
      <point x="255" y="151"/>
      <point x="229" y="168"/>
      <point x="216" y="179" type="curve" smooth="yes"/>
      <point x="197" y="194"/>
      <point x="179" y="213"/>
      <point x="164" y="235" type="curve"/>
      <point x="172" y="244"/>
      <point x="204" y="277"/>
      <point x="261" y="277" type="curve" smooth="yes"/>
      <point x="300" y="277"/>
      <point x="326" y="264"/>
      <point x="363" y="238" type="curve"/>
      <point x="392" y="275" type="line"/>
      <point x="376" y="302"/>
      <point x="361" y="323"/>
      <point x="336" y="341" type="curve" smooth="yes"/>
      <point x="316" y="355"/>
      <point x="289" y="366"/>
      <point x="256" y="366" type="curve" smooth="yes"/>
      <point x="200" y="366"/>
      <point x="165" y="334"/>
      <point x="143" y="300" type="curve" smooth="yes"/>
      <point x="131" y="280"/>
      <point x="121" y="258"/>
      <point x="112" y="222" type="curve"/>
      <point x="112" y="205"/>
      <point x="113" y="180"/>
      <point x="126" y="151" type="curve" smooth="yes"/>
      <point x="135" y="130"/>
      <point x="151" y="106"/>
      <point x="178" y="82" type="curve"/>
      <point x="153" y="61"/>
      <point x="126" y="33"/>
      <point x="105" y="-4" type="curve" smooth="yes"/>
      <point x="84" y="-40"/>
      <point x="70" y="-84"/>
      <point x="70" y="-138" type="curve" smooth="yes"/>
      <point x="70" y="-216"/>
      <point x="101" y="-275"/>
      <point x="149" y="-315" type="curve" smooth="yes"/>
      <point x="200" y="-358"/>
      <point x="279" y="-370"/>
      <point x="349" y="-370" type="curve" smooth="yes"/>
      <point x="398" y="-370" type="line"/>
      <point x="485" y="-269" type="line"/>
      <point x="399" y="-269" type="line" smooth="yes"/>
    </contour>
    <contour>
      <point x="252" y="399" type="move" name="top"/>
    </contour>
    <contour>
      <point x="309" y="-396" type="move" name="bottom"/>
    </contour>
  </outline>
</glyph>
<glyph name="uni0645" format="1">
  <advance width="506"/>
  <unicode hex="0645"/>
  <outline>
    <contour>
      <point x="310" y="314"/>
      <point x="296" y="316"/>
      <point x="283" y="316" type="curve" smooth="yes"/>
      <point x="262" y="316"/>
      <point x="248" y="314"/>
      <point x="237" y="311" type="curve" smooth="yes"/>
      <point x="210" y="302"/>
      <point x="214" y="284"/>
      <point x="214" y="265" type="curve"/>
      <point x="214" y="165" type="line"/>
      <point x="151" y="150"/>
      <point x="115" y="93"/>
      <point x="96" y="46" type="curve" smooth="yes"/>
      <point x="80" y="9"/>
      <point x="76" y="-16"/>
      <point x="75" y="-22" type="curve"/>
      <point x="63" y="-98"/>
      <point x="73" y="-142"/>
      <point x="87" y="-205" type="curve" smooth="yes"/>
      <point x="104" y="-284"/>
      <point x="126" y="-360"/>
      <point x="119" y="-455" type="curve"/>
      <point x="136" y="-447" type="line"/>
      <point x="162" y="-393"/>
      <point x="165" y="-359"/>
      <point x="168" y="-331" type="curve" smooth="yes"/>
      <point x="176" y="-274"/>
      <point x="162" y="-202"/>
      <point x="148" y="-131" type="curve" smooth="yes"/>
      <point x="137" y="-69"/>
      <point x="126" y="-28"/>
      <point x="132" y="22" type="curve"/>
      <point x="153" y="60"/>
      <point x="224" y="72"/>
      <point x="274" y="73" type="curve"/>
      <point x="286" y="63"/>
      <point x="310" y="40"/>
      <point x="327" y="0" type="curve"/>
      <point x="327" y="0"/>
      <point x="347" y="41"/>
      <point x="326" y="74" type="curve"/>
      <point x="387" y="74" type="line"/>
      <point x="425" y="76"/>
      <point x="445" y="98"/>
      <point x="445" y="137" type="curve" smooth="yes"/>
      <point x="445" y="158"/>
      <point x="446" y="220"/>
      <point x="446" y="220" type="curve"/>
      <point x="446" y="243"/>
      <point x="429" y="262"/>
      <point x="407" y="276" type="curve" smooth="yes"/>
      <point x="380" y="294"/>
      <point x="346" y="306"/>
      <point x="322" y="311" type="curve" smooth="yes"/>
    </contour>
    <contour>
      <point x="368" y="183"/>
      <point x="316" y="184"/>
      <point x="275" y="179" type="curve"/>
      <point x="265" y="192"/>
      <point x="254" y="210"/>
      <point x="246" y="224" type="curve"/>
      <point x="286" y="236"/>
      <point x="357" y="223"/>
      <point x="401" y="175" type="curve"/>
    </contour>
    <contour>
      <point x="313" y="346" type="move" name="top"/>
    </contour>
    <contour>
      <point x="136" y="-477" type="move" name="bottom"/>
    </contour>
  </outline>
</glyph>
<glyph name="uni0649" format="1">
  <advance width="607"/>
  <unicode hex="0649"/>
  <outline>
    <contour>
      <point x="391" y="122"/>
      <point x="357" y="125"/>
      <point x="357" y="154" type="curve"/>
      <point x="394" y="197"/>
      <point x="423" y="226"/>
      <point x="465" y="226" type="curve" smooth="yes"/>
      <point x="496" y="226"/>
      <point x="509" y="210"/>
      <point x="508" y="162" type="curve"/>
      <point x="532" y="170" type="line"/>
      <point x="543" y="189"/>
      <point x="547" y="212"/>
      <point x="547" y="231" type="curve" smooth="yes"/>
      <point x="547" y="278"/>
      <point x="521" y="321"/>
      <point x="470" y="321" type="curve" smooth="yes"/>
      <point x="424" y="321"/>
      <point x="381" y="287"/>
      <point x="349" y="240" type="curve" smooth="yes"/>
      <point x="319" y="196"/>
      <point x="302" y="144"/>
      <point x="302" y="104" type="curve" smooth="yes"/>
      <point x="302" y="82"/>
      <point x="307" y="60"/>
      <point x="322" y="45" type="curve" smooth="yes"/>
      <point x="335" y="33"/>
      <point x="355" y="22"/>
      <point x="395" y="16" type="curve" smooth="yes"/>
      <point x="433" y="11"/>
      <point x="479" y="9"/>
      <point x="481" y="-4" type="curve"/>
      <point x="457" y="-25"/>
      <point x="429" y="-41"/>
      <point x="396" y="-52" type="curve" smooth="yes"/>
      <point x="362" y="-63"/>
      <point x="324" y="-68"/>
      <point x="281" y="-68" type="curve" smooth="yes"/>
      <point x="229" y="-68"/>
      <point x="190" y="-53"/>
      <point x="164" y="-35" type="curve" smooth="yes"/>
      <point x="124" y="-7"/>
      <point x="109" y="30"/>
      <point x="110" y="71" type="curve" smooth="yes"/>
      <point x="111" y="119"/>
      <point x="134" y="161"/>
      <point x="143" y="171" type="curve"/>
      <point x="127" y="187" type="line"/>
      <point x="105" y="163"/>
      <point x="94" y="135"/>
      <point x="87" y="113" type="curve" smooth="yes"/>
      <point x="70" y="61"/>
      <point x="70" y="19"/>
      <point x="70" y="17" type="curve" smooth="yes"/>
      <point x="70" y="-21"/>
      <point x="79" y="-80"/>
      <point x="121" y="-126" type="curve" smooth="yes"/>
      <point x="150" y="-158"/>
      <point x="204" y="-181"/>
      <point x="278" y="-181" type="curve" smooth="yes"/>
      <point x="325" y="-181"/>
      <point x="381" y="-164"/>
      <point x="427" y="-138" type="curve" smooth="yes"/>
      <point x="472" y="-114"/>
      <point x="507" y="-83"/>
      <point x="517" y="-52" type="curve" smooth="yes"/>
      <point x="521" y="-39"/>
      <point x="528" y="-8"/>
      <point x="535" y="24" type="curve" smooth="yes"/>
      <point x="539" y="44"/>
      <point x="539" y="68"/>
      <point x="512" y="89" type="curve" smooth="yes"/>
      <point x="496" y="101"/>
      <point x="478" y="109"/>
      <point x="432" y="116" type="curve" smooth="yes"/>
    </contour>
    <contour>
      <point x="226" y="205" type="move" name="top"/>
    </contour>
    <contour>
      <point x="284" y="-208" type="move" name="bottom"/>
    </contour>
  </outline>
</glyph>
<glyph name="uni064C" format="1">
  <advance width="0"/>
  <unicode hex="064C"/>
  <outline>
    <contour>
      <point x="79" y="856"/>
      <point x="76" y="889"/>
      <point x="54" y="900" type="curve" smooth="yes"/>
      <point x="35" y="910"/>
      <point x="15" y="900"/>
      <point x="7" y="889" type="curve"/>
      <point x="-14" y="858" type="line"/>
      <point x="-20" y="848"/>
      <point x="-29" y="822"/>
      <point x="6" y="804" type="curve" smooth="yes"/>
      <point x="24" y="794" type="line"/>
      <point x="24" y="794"/>
      <point x="0" y="774"/>
      <point x="-24" y="769" type="curve"/>
      <point x="-22" y="784" type="line"/>
      <point x="-20" y="805"/>
      <point x="-33" y="814"/>
      <point x="-44" y="814" type="curve" smooth="yes"/>
      <point x="-50" y="814"/>
      <point x="-62" y="813"/>
      <point x="-80" y="804" type="curve"/>
      <point x="-88" y="770" type="line"/>
      <point x="-88" y="770"/>
      <point x="-73" y="778"/>
      <point x="-56" y="778" type="curve" smooth="yes"/>
      <point x="-51" y="778"/>
      <point x="-46" y="775"/>
      <point x="-47" y="766" type="curve" smooth="yes"/>
      <point x="-49" y="744"/>
      <point x="-54" y="719"/>
      <point x="-54" y="719" type="curve"/>
      <point x="-13" y="729"/>
      <point x="28" y="751"/>
      <point x="47" y="782" type="curve"/>
      <point x="74" y="769" type="line"/>
      <point x="85" y="814" type="line"/>
      <point x="67" y="823" type="line"/>
    </contour>
    <contour>
      <point x="18" y="846" type="line" smooth="yes"/>
      <point x="5" y="853"/>
      <point x="10" y="863"/>
      <point x="10" y="863" type="curve" smooth="yes"/>
      <point x="10" y="863"/>
      <point x="22" y="871"/>
      <point x="34" y="866" type="curve" smooth="yes"/>
      <point x="49" y="860"/>
      <point x="45" y="841"/>
      <point x="44" y="832" type="curve"/>
    </contour>
    <contour>
      <point x="-2" y="904" type="move" name="top"/>
    </contour>
    <contour>
      <point x="-2" y="699" type="move" name="_top"/>
    </contour>
  </outline>
</glyph>
<glyph name="uni064D" format="1">
  <advance width="0"/>
  <unicode hex="064D"/>
  <outline>
    <contour>
      <point x="-81" y="-290" type="line"/>
      <point x="59" y="-235" type="line"/>
      <point x="85" y="-185" type="line"/>
      <point x="-60" y="-242" type="line"/>
      <point x="-88" y="-285" type="line"/>
    </contour>
    <contour>
      <point x="-81" y="-209" type="line"/>
      <point x="59" y="-154" type="line"/>
      <point x="85" y="-104" type="line"/>
      <point x="-60" y="-161" type="line"/>
      <point x="-88" y="-204" type="line"/>
    </contour>
    <contour>
      <point x="-2" y="-84" type="move" name="_bottom"/>
    </contour>
    <contour>
      <point x="-2" y="-290" type="move" name="bottom"/>
    </contour>
  </outline>
</glyph>
<glyph name="uni064E" format="1">
  <advance width="0"/>
  <unicode hex="064E"/>
  <outline>
    <contour>
      <point x="-88" y="715" type="line"/>
      <point x="-81" y="710" type="line"/>
      <point x="59" y="765" type="line"/>
      <point x="85" y="815" type="line"/>
      <point x="-60" y="758" type="line"/>
    </contour>
    <contour>
      <point x="-2" y="815" type="move" name="top"/>
    </contour>
    <contour>
      <point x="-2" y="690" type="move" name="_top"/>
    </contour>
  </outline>
</glyph>
<glyph name="uni0656" format="1">
  <advance width="0"/>
  <unicode hex="0656"/>
  <outline>
    <contour>
      <point x="9" y="-223" type="line"/>
      <point x="23" y="-185"/>
      <point x="20" y="-155"/>
      <point x="16" y="-140" type="curve" smooth="yes"/>
      <point x="12" y="-125"/>
      <point x="5" y="-111"/>
      <point x="-5" y="-98" type="curve"/>
      <point x="-25" y="-131" type="line"/>
      <point x="-15" y="-143"/>
      <point x="-10" y="-157"/>
      <point x="-7" y="-170" type="curve" smooth="yes"/>
      <point x="-1" y="-200"/>
      <point x="-6" y="-218"/>
      <point x="-8" y="-223" type="curve"/>
    </contour>
    <contour>
      <point x="-3" y="-78" type="move" name="_bottom"/>
    </contour>
    <contour>
      <point x="-3" y="-223" type="move" name="bottom"/>
    </contour>
  </outline>
</glyph>
<glyph name="uni0664" format="1">
  <advance width="412"/>
  <unicode hex="0664"/>
  <outline>
    <contour>
      <point x="297" y="136"/>
      <point x="260" y="120"/>
      <point x="204" y="120" type="curve" smooth="yes"/>
      <point x="168" y="119"/>
      <point x="136" y="131"/>
      <point x="116" y="164" type="curve"/>
      <point x="145" y="223"/>
      <point x="199" y="262"/>
      <point x="279" y="298" type="curve"/>
      <point x="292" y="376" type="line"/>
      <point x="238" y="370"/>
      <point x="200" y="375"/>
      <point x="173" y="383" type="curve" smooth="yes"/>
      <point x="137" y="393"/>
      <point x="119" y="410"/>
      <point x="108" y="419" type="curve"/>
      <point x="147" y="452"/>
      <point x="196" y="471"/>
      <point x="238" y="490" type="curve"/>
      <point x="253" y="583" type="line"/>
      <point x="222" y="575"/>
      <point x="163" y="562"/>
      <point x="118" y="525" type="curve" smooth="yes"/>
      <point x="85" y="497"/>
      <point x="60" y="456"/>
      <point x="60" y="394" type="curve" smooth="yes"/>
      <point x="60" y="327"/>
      <point x="131" y="304"/>
      <point x="139" y="300" type="curve"/>
      <point x="108" y="274"/>
      <point x="77" y="230"/>
      <point x="77" y="157" type="curve" smooth="yes"/>
      <point x="77" y="88"/>
      <point x="107" y="13"/>
      <point x="204" y="13" type="curve" smooth="yes"/>
      <point x="261" y="13"/>
      <point x="295" y="31"/>
      <point x="342" y="56" type="curve"/>
      <point x="342" y="160" type="line"/>
    </contour>
  </outline>
</glyph>
<glyph name="uni066F" format="1">
  <advance width="567"/>
  <unicode hex="066F"/>
  <outline>
    <contour>
      <point x="320" y="262"/>
      <point x="282" y="221"/>
      <point x="282" y="178" type="curve" smooth="yes"/>
      <point x="282" y="90" type="line" smooth="yes"/>
      <point x="283" y="71"/>
      <point x="287" y="40"/>
      <point x="320" y="19" type="curve" smooth="yes"/>
      <point x="338" y="8"/>
      <point x="366" y="0"/>
      <point x="408" y="0" type="curve"/>
      <point x="435" y="51" type="line"/>
      <point x="441" y="31"/>
      <point x="454" y="-9"/>
      <point x="461" y="-34" type="curve"/>
      <point x="448" y="-68"/>
      <point x="402" y="-121"/>
      <point x="289" y="-121" type="curve" smooth="yes"/>
      <point x="231" y="-121"/>
      <point x="190" y="-107"/>
      <point x="163" y="-88" type="curve" smooth="yes"/>
      <point x="114" y="-54"/>
      <point x="109" y="-3"/>
      <point x="109" y="17" type="curve" smooth="yes"/>
      <point x="109" y="58"/>
      <point x="129" y="97"/>
      <point x="143" y="114" type="curve"/>
      <point x="127" y="130" type="line"/>
      <point x="107" y="107"/>
      <point x="94" y="80"/>
      <point x="86" y="56" type="curve" smooth="yes"/>
      <point x="71" y="11"/>
      <point x="70" y="-38"/>
      <point x="70" y="-49" type="curve" smooth="yes"/>
      <point x="70" y="-85"/>
      <point x="80" y="-145"/>
      <point x="126" y="-188" type="curve" smooth="yes"/>
      <point x="157" y="-217"/>
      <point x="206" y="-239"/>
      <point x="275" y="-239" type="curve" smooth="yes"/>
      <point x="337" y="-239"/>
      <point x="395" y="-221"/>
      <point x="435" y="-188" type="curve" smooth="yes"/>
      <point x="474" y="-156"/>
      <point x="507" y="-102"/>
      <point x="507" y="-14" type="curve" smooth="yes"/>
      <point x="507" y="44"/>
      <point x="493" y="113"/>
      <point x="473" y="163" type="curve" smooth="yes"/>
      <point x="449" y="223"/>
      <point x="414" y="262"/>
      <point x="368" y="262" type="curve" smooth="yes"/>
    </contour>
    <contour>
      <point x="317" y="106"/>
      <point x="313" y="128"/>
      <point x="313" y="128" type="curve" smooth="yes"/>
      <point x="313" y="128"/>
      <point x="329" y="167"/>
      <point x="362" y="167" type="curve" smooth="yes"/>
      <point x="403" y="167"/>
      <point x="419" y="106"/>
      <point x="419" y="106" type="curve" smooth="yes"/>
      <point x="419" y="106"/>
      <point x="363" y="106"/>
      <point x="352" y="106" type="curve" smooth="yes"/>
    </contour>
    <contour>
      <point x="365" y="277" type="move" name="top"/>
    </contour>
    <contour>
      <point x="275" y="-265" type="move" name="bottom"/>
    </contour>
  </outline>
</glyph>
<glyph name="uni0670" format="1">
  <advance width="0"/>
  <unicode hex="0670"/>
  <outline>
    <contour>
      <point x="9" y="731" type="line"/>
      <point x="23" y="768"/>
      <point x="20" y="798"/>
      <point x="16" y="813" type="curve" smooth="yes"/>
      <point x="12" y="828"/>
      <point x="5" y="842"/>
      <point x="-5" y="856" type="curve"/>
      <point x="-25" y="822" type="line"/>
      <point x="-15" y="810"/>
      <point x="-10" y="796"/>
      <point x="-7" y="783" type="curve" smooth="yes"/>
      <point x="-1" y="753"/>
      <point x="-6" y="736"/>
      <point x="-8" y="731" type="curve"/>
    </contour>
    <contour>
      <point x="-3" y="856" type="move" name="top"/>
    </contour>
    <contour>
      <point x="-3" y="711" type="move" name="_top"/>
    </contour>
  </outline>
</glyph>
<glyph name="uni06A1" format="1">
  <advance width="916"/>
  <unicode hex="06A1"/>
  <outline>
    <contour>
      <point x="856" y="259"/>
      <point x="841" y="298"/>
      <point x="819" y="321" type="curve" smooth="yes"/>
      <point x="800" y="341"/>
      <point x="772" y="353"/>
      <point x="738" y="353" type="curve" smooth="yes"/>
      <point x="681" y="353"/>
      <point x="642" y="319"/>
      <point x="642" y="260" type="curve" smooth="yes"/>
      <point x="642" y="193" type="line"/>
      <point x="642" y="193"/>
      <point x="678" y="190"/>
      <point x="710" y="178" type="curve" smooth="yes"/>
      <point x="726" y="172"/>
      <point x="745" y="163"/>
      <point x="762" y="143" type="curve"/>
      <point x="741" y="133"/>
      <point x="697" y="117"/>
      <point x="634" y="104" type="curve" smooth="yes"/>
      <point x="580" y="93"/>
      <point x="509" y="83"/>
      <point x="425" y="83" type="curve" smooth="yes"/>
      <point x="277" y="83"/>
      <point x="207" y="114"/>
      <point x="183" y="128" type="curve" smooth="yes"/>
      <point x="149" y="148"/>
      <point x="118" y="188"/>
      <point x="118" y="250" type="curve" smooth="yes"/>
      <point x="118" y="294"/>
      <point x="134" y="327"/>
      <point x="142" y="341" type="curve"/>
      <point x="126" y="356" type="line"/>
      <point x="97" y="330"/>
      <point x="70" y="255"/>
      <point x="70" y="191" type="curve" smooth="yes"/>
      <point x="70" y="121"/>
      <point x="103" y="67"/>
      <point x="154" y="32" type="curve" smooth="yes"/>
      <point x="210" y="-6"/>
      <point x="292" y="-24"/>
      <point x="394" y="-24" type="curve" smooth="yes"/>
      <point x="470" y="-24"/>
      <point x="550" y="-14"/>
      <point x="612" y="0" type="curve" smooth="yes"/>
      <point x="709" y="22"/>
      <point x="766" y="55"/>
      <point x="805" y="84" type="curve"/>
      <point x="817" y="66"/>
      <point x="821" y="52"/>
      <point x="824" y="32" type="curve"/>
      <point x="824" y="32"/>
      <point x="833" y="66"/>
      <point x="828" y="109" type="curve"/>
      <point x="828" y="109"/>
      <point x="856" y="152"/>
      <point x="856" y="214" type="curve" smooth="yes"/>
    </contour>
    <contour>
      <point x="776" y="264"/>
      <point x="789" y="256"/>
      <point x="797" y="249" type="curve" smooth="yes"/>
      <point x="810" y="237"/>
      <point x="817" y="218"/>
      <point x="817" y="199" type="curve" smooth="yes"/>
      <point x="817" y="187"/>
      <point x="814" y="177"/>
      <point x="810" y="169" type="curve"/>
      <point x="799" y="191"/>
      <point x="780" y="212"/>
      <point x="753" y="228" type="curve" smooth="yes"/>
      <point x="743" y="234"/>
      <point x="723" y="244"/>
      <point x="704" y="248" type="curve"/>
      <point x="725" y="259"/>
      <point x="743" y="264"/>
      <point x="758" y="264" type="curve" smooth="yes"/>
    </contour>
    <contour>
      <point x="725" y="368" type="move" name="top"/>
    </contour>
    <contour>
      <point x="426" y="-64" type="move" name="bottom"/>
    </contour>
  </outline>
</glyph>
<glyph name="uni06BA" format="1">
  <advance width="568"/>
  <unicode hex="06BA"/>
  <outline>
    <contour>
      <point x="421" y="180" type="line"/>
      <point x="383" y="82" type="line"/>
      <point x="416" y="30"/>
      <point x="461" y="-33"/>
      <point x="461" y="-33" type="curve"/>
      <point x="448" y="-67"/>
      <point x="402" y="-120"/>
      <point x="289" y="-120" type="curve" smooth="yes"/>
      <point x="231" y="-120"/>
      <point x="190" y="-106"/>
      <point x="163" y="-87" type="curve" smooth="yes"/>
      <point x="114" y="-53"/>
      <point x="109" y="-2"/>
      <point x="109" y="18" type="curve" smooth="yes"/>
      <point x="109" y="59"/>
      <point x="129" y="98"/>
      <point x="143" y="115" type="curve"/>
      <point x="127" y="131" type="line"/>
      <point x="107" y="108"/>
      <point x="94" y="81"/>
      <point x="86" y="57" type="curve" smooth="yes"/>
      <point x="71" y="12"/>
      <point x="70" y="-37"/>
      <point x="70" y="-48" type="curve" smooth="yes"/>
      <point x="70" y="-84"/>
      <point x="80" y="-144"/>
      <point x="126" y="-187" type="curve" smooth="yes"/>
      <point x="157" y="-216"/>
      <point x="205" y="-238"/>
      <point x="276" y="-238" type="curve" smooth="yes"/>
      <point x="340" y="-238"/>
      <point x="395" y="-220"/>
      <point x="435" y="-186" type="curve" smooth="yes"/>
      <point x="475" y="-152"/>
      <point x="503" y="-98"/>
      <point x="503" y="-35" type="curve" smooth="yes"/>
      <point x="503" y="24"/>
      <point x="479" y="79"/>
      <point x="479" y="79" type="curve"/>
      <point x="508" y="79" type="line"/>
    </contour>
    <contour>
      <point x="260" y="-22" type="move" name="top"/>
    </contour>
    <contour>
      <point x="276" y="-268" type="move" name="bottom"/>
    </contour>
  </outline>
</glyph>
<glyph name="uni06CD" format="1">
  <advance width="673"/>
  <unicode hex="06CD"/>
  <outline>
    <contour>
      <point x="70" y="136" type="line"/>
      <point x="70" y="84" type="line"/>
      <point x="91" y="107"/>
      <point x="120" y="132"/>
      <point x="147" y="144" type="curve"/>
      <point x="164" y="195" type="line"/>
    </contour>
    <component base="uni0649" xOffset="28" yOffset="-5" xScale="1.07" yScale="1.07"/>
  </outline>
</glyph>
<glyph name="uni06D6" format="1">
  <advance width="0"/>
  <unicode hex="06D6"/>
  <outline>
    <contour>
      <point x="143" y="847"/>
      <point x="135" y="850"/>
      <point x="125" y="850" type="curve" smooth="yes"/>
      <point x="112" y="850"/>
      <point x="98" y="841"/>
      <point x="87" y="830" type="curve" smooth="yes"/>
      <point x="79" y="822"/>
      <point x="72" y="812"/>
      <point x="67" y="805" type="curve"/>
      <point x="63" y="805"/>
      <point x="57" y="807"/>
      <point x="54" y="811" type="curve" smooth="yes"/>
      <point x="52" y="814"/>
      <point x="51" y="818"/>
      <point x="51" y="823" type="curve"/>
      <point x="47" y="825" type="line"/>
      <point x="47" y="823"/>
      <point x="46" y="817"/>
      <point x="42" y="812" type="curve" smooth="yes"/>
      <point x="39" y="808"/>
      <point x="33" y="805"/>
      <point x="24" y="805" type="curve" smooth="yes"/>
      <point x="12" y="805" type="line" smooth="yes"/>
      <point x="5" y="805"/>
      <point x="-1" y="807"/>
      <point x="-5" y="813" type="curve" smooth="yes"/>
      <point x="-9" y="818"/>
      <point x="-11" y="826"/>
      <point x="-13" y="840" type="curve" smooth="yes"/>
      <point x="-15" y="853"/>
      <point x="-21" y="906"/>
      <point x="-26" y="950" type="curve"/>
      <point x="-42" y="931" type="line"/>
      <point x="-38" y="895"/>
      <point x="-31" y="842"/>
      <point x="-29" y="823" type="curve" smooth="yes"/>
      <point x="-29" y="819"/>
      <point x="-29" y="814"/>
      <point x="-32" y="810" type="curve" smooth="yes"/>
      <point x="-34" y="807"/>
      <point x="-38" y="805"/>
      <point x="-45" y="805" type="curve" smooth="yes"/>
      <point x="-132" y="805" type="line" smooth="yes"/>
      <point x="-143" y="805"/>
      <point x="-151" y="800"/>
      <point x="-156" y="794" type="curve" smooth="yes"/>
      <point x="-163" y="786"/>
      <point x="-165" y="776"/>
      <point x="-166" y="772" type="curve" smooth="yes"/>
      <point x="-168" y="749" type="line"/>
      <point x="-168" y="744"/>
      <point x="-165" y="740"/>
      <point x="-160" y="737" type="curve"/>
      <point x="-157" y="734"/>
      <point x="-151" y="733"/>
      <point x="-146" y="733" type="curve" smooth="yes"/>
      <point x="-74" y="733" type="line"/>
      <point x="-62" y="732"/>
      <point x="-55" y="727"/>
      <point x="-51" y="717" type="curve" smooth="yes"/>
      <point x="-47" y="708"/>
      <point x="-45" y="702"/>
      <point x="-34" y="702" type="curve" smooth="yes"/>
      <point x="-12" y="702" type="line"/>
      <point x="4" y="729" type="line"/>
      <point x="-4" y="729"/>
      <point x="-11" y="728"/>
      <point x="-20" y="728" type="curve" smooth="yes"/>
      <point x="-30" y="728" type="line" smooth="yes"/>
      <point x="-38" y="728"/>
      <point x="-46" y="729"/>
      <point x="-51" y="734" type="curve" smooth="yes"/>
      <point x="-55" y="739"/>
      <point x="-55" y="746"/>
      <point x="-58" y="751" type="curve" smooth="yes"/>
      <point x="-62" y="758"/>
      <point x="-68" y="759"/>
      <point x="-75" y="759" type="curve" smooth="yes"/>
      <point x="-138" y="759" type="line" smooth="yes"/>
      <point x="-148" y="759"/>
      <point x="-158" y="761"/>
      <point x="-159" y="768" type="curve"/>
      <point x="-157" y="772"/>
      <point x="-153" y="775"/>
      <point x="-147" y="777" type="curve" smooth="yes"/>
      <point x="-138" y="780"/>
      <point x="-126" y="780"/>
      <point x="-117" y="779" type="curve" smooth="yes"/>
      <point x="-97" y="779"/>
      <point x="-94" y="779"/>
      <point x="-80" y="779" type="curve" smooth="yes"/>
      <point x="-47" y="779" type="line" smooth="yes"/>
      <point x="-26" y="779"/>
      <point x="-22" y="793"/>
      <point x="-21" y="796" type="curve"/>
      <point x="-19" y="787"/>
      <point x="-11" y="779"/>
      <point x="2" y="779" type="curve" smooth="yes"/>
      <point x="20" y="779" type="line" smooth="yes"/>
      <point x="41" y="779"/>
      <point x="45" y="790"/>
      <point x="46" y="792" type="curve"/>
      <point x="49" y="788"/>
      <point x="50" y="785"/>
      <point x="56" y="782" type="curve"/>
      <point x="56" y="781"/>
      <point x="54" y="777"/>
      <point x="53" y="774" type="curve"/>
      <point x="58" y="769" type="line"/>
      <point x="63" y="779" type="line"/>
      <point x="75" y="777"/>
      <point x="84" y="776"/>
      <point x="93" y="776" type="curve" smooth="yes"/>
      <point x="115" y="776"/>
      <point x="131" y="783"/>
      <point x="141" y="792" type="curve" smooth="yes"/>
      <point x="151" y="800"/>
      <point x="155" y="808"/>
      <point x="159" y="823" type="curve"/>
      <point x="156" y="830"/>
      <point x="153" y="837"/>
      <point x="149" y="841" type="curve" smooth="yes"/>
    </contour>
    <contour>
      <point x="120" y="806"/>
      <point x="111" y="804"/>
      <point x="99" y="804" type="curve" smooth="yes"/>
      <point x="78" y="804" type="line" smooth="yes"/>
      <point x="78" y="804"/>
      <point x="82" y="812"/>
      <point x="90" y="818" type="curve"/>
      <point x="97" y="823"/>
      <point x="107" y="829"/>
      <point x="119" y="829" type="curve" smooth="yes"/>
      <point x="125" y="829"/>
      <point x="130" y="826"/>
      <point x="134" y="824" type="curve" smooth="yes"/>
      <point x="139" y="820"/>
      <point x="140" y="816"/>
      <point x="140" y="816" type="curve"/>
      <point x="140" y="815"/>
      <point x="137" y="810"/>
      <point x="126" y="807" type="curve" smooth="yes"/>
    </contour>
    <contour>
      <point x="-5" y="950" type="move" name="top"/>
    </contour>
    <contour>
      <point x="-5" y="682" type="move" name="_top"/>
    </contour>
  </outline>
</glyph>
<glyph name="uni06D7" format="1">
  <advance width="0"/>
  <unicode hex="06D7"/>
  <outline>
    <contour>
      <point x="111" y="832"/>
      <point x="108" y="842"/>
      <point x="102" y="848" type="curve" smooth="yes"/>
      <point x="97" y="853"/>
      <point x="90" y="856"/>
      <point x="82" y="856" type="curve" smooth="yes"/>
      <point x="68" y="856"/>
      <point x="58" y="847"/>
      <point x="58" y="832" type="curve" smooth="yes"/>
      <point x="58" y="815" type="line"/>
      <point x="58" y="815"/>
      <point x="68" y="814"/>
      <point x="75" y="812" type="curve" smooth="yes"/>
      <point x="79" y="810"/>
      <point x="85" y="807"/>
      <point x="88" y="803" type="curve"/>
      <point x="88" y="803"/>
      <point x="79" y="802"/>
      <point x="73" y="802" type="curve"/>
      <point x="54" y="802" type="line" smooth="yes"/>
      <point x="46" y="802"/>
      <point x="41" y="803"/>
      <point x="37" y="809" type="curve" smooth="yes"/>
      <point x="33" y="814"/>
      <point x="31" y="823"/>
      <point x="29" y="836" type="curve" smooth="yes"/>
      <point x="27" y="849"/>
      <point x="21" y="903"/>
      <point x="16" y="946" type="curve"/>
      <point x="0" y="927" type="line"/>
      <point x="4" y="891"/>
      <point x="10" y="839"/>
      <point x="13" y="819" type="curve" smooth="yes"/>
      <point x="13" y="816"/>
      <point x="13" y="810"/>
      <point x="10" y="807" type="curve" smooth="yes"/>
      <point x="8" y="804"/>
      <point x="4" y="802"/>
      <point x="-3" y="802" type="curve" smooth="yes"/>
      <point x="-90" y="802" type="line" smooth="yes"/>
      <point x="-101" y="802"/>
      <point x="-109" y="797"/>
      <point x="-115" y="791" type="curve" smooth="yes"/>
      <point x="-121" y="782"/>
      <point x="-124" y="772"/>
      <point x="-124" y="769" type="curve" smooth="yes"/>
      <point x="-126" y="746" type="line"/>
      <point x="-126" y="741"/>
      <point x="-123" y="736"/>
      <point x="-119" y="733" type="curve"/>
      <point x="-115" y="731"/>
      <point x="-110" y="729"/>
      <point x="-104" y="729" type="curve" smooth="yes"/>
      <point x="-32" y="729" type="line"/>
      <point x="-21" y="728"/>
      <point x="-13" y="723"/>
      <point x="-9" y="714" type="curve" smooth="yes"/>
      <point x="-6" y="704"/>
      <point x="-3" y="698"/>
      <point x="8" y="698" type="curve" smooth="yes"/>
      <point x="30" y="698" type="line"/>
      <point x="46" y="726" type="line"/>
      <point x="37" y="725"/>
      <point x="31" y="724"/>
      <point x="22" y="724" type="curve" smooth="yes"/>
      <point x="11" y="724" type="line" smooth="yes"/>
      <point x="3" y="724"/>
      <point x="-4" y="725"/>
      <point x="-9" y="730" type="curve" smooth="yes"/>
      <point x="-13" y="735"/>
      <point x="-13" y="742"/>
      <point x="-16" y="748" type="curve" smooth="yes"/>
      <point x="-20" y="754"/>
      <point x="-26" y="756"/>
      <point x="-33" y="756" type="curve" smooth="yes"/>
      <point x="-97" y="756" type="line" smooth="yes"/>
      <point x="-106" y="756"/>
      <point x="-116" y="757"/>
      <point x="-117" y="764" type="curve"/>
      <point x="-115" y="769"/>
      <point x="-111" y="771"/>
      <point x="-105" y="773" type="curve" smooth="yes"/>
      <point x="-96" y="776"/>
      <point x="-84" y="776"/>
      <point x="-75" y="776" type="curve" smooth="yes"/>
      <point x="-55" y="775"/>
      <point x="-52" y="775"/>
      <point x="-38" y="775" type="curve" smooth="yes"/>
      <point x="-7" y="775" type="line"/>
      <point x="-6" y="775" type="line" smooth="yes"/>
      <point x="16" y="775"/>
      <point x="20" y="790"/>
      <point x="21" y="793" type="curve"/>
      <point x="23" y="784"/>
      <point x="31" y="775"/>
      <point x="44" y="775" type="curve" smooth="yes"/>
      <point x="69" y="775" type="line" smooth="yes"/>
      <point x="78" y="775"/>
      <point x="91" y="778"/>
      <point x="99" y="788" type="curve"/>
      <point x="101" y="785"/>
      <point x="103" y="780"/>
      <point x="103" y="775" type="curve"/>
      <point x="103" y="775"/>
      <point x="106" y="784"/>
      <point x="104" y="794" type="curve"/>
      <point x="109" y="803"/>
      <point x="111" y="812"/>
      <point x="111" y="821" type="curve" smooth="yes"/>
    </contour>
    <contour>
      <point x="93" y="822"/>
      <point x="79" y="831"/>
      <point x="68" y="833" type="curve"/>
      <point x="74" y="836"/>
      <point x="79" y="838"/>
      <point x="84" y="838" type="curve" smooth="yes"/>
      <point x="88" y="838"/>
      <point x="91" y="837"/>
      <point x="95" y="835" type="curve" smooth="yes"/>
      <point x="99" y="832"/>
      <point x="102" y="827"/>
      <point x="102" y="819" type="curve" smooth="yes"/>
      <point x="102" y="816"/>
      <point x="101" y="812"/>
      <point x="99" y="809" type="curve"/>
    </contour>
    <contour>
      <point x="84" y="879"/>
      <point x="88" y="875"/>
      <point x="93" y="870" type="curve"/>
      <point x="100" y="877"/>
      <point x="103" y="881"/>
      <point x="106" y="886" type="curve"/>
      <point x="103" y="890"/>
      <point x="96" y="896"/>
      <point x="90" y="899" type="curve"/>
      <point x="88" y="896"/>
      <point x="84" y="892"/>
      <point x="80" y="888" type="curve"/>
      <point x="77" y="892"/>
      <point x="71" y="897"/>
      <point x="67" y="899" type="curve"/>
      <point x="63" y="895"/>
      <point x="57" y="888"/>
      <point x="53" y="884" type="curve"/>
      <point x="59" y="881"/>
      <point x="63" y="877"/>
      <point x="69" y="870" type="curve"/>
      <point x="74" y="875"/>
      <point x="77" y="879"/>
      <point x="80" y="882" type="curve"/>
    </contour>
    <contour>
      <point x="-8" y="946" type="move" name="top"/>
    </contour>
    <contour>
      <point x="-8" y="678" type="move" name="_top"/>
    </contour>
  </outline>
</glyph>
<glyph name="uni06E6" format="1">
  <advance width="0"/>
  <unicode hex="06E6"/>
  <outline>
    <contour>
      <point x="45" y="-284"/>
      <point x="-22" y="-284"/>
      <point x="-47" y="-284" type="curve" smooth="yes"/>
      <point x="-53" y="-284"/>
      <point x="-62" y="-284"/>
      <point x="-70" y="-284" type="curve" smooth="yes"/>
      <point x="-82" y="-283"/>
      <point x="-95" y="-282"/>
      <point x="-96" y="-275" type="curve"/>
      <point x="-94" y="-265"/>
      <point x="-89" y="-262"/>
      <point x="-83" y="-260" type="curve" smooth="yes"/>
      <point x="-75" y="-258"/>
      <point x="-63" y="-258"/>
      <point x="-53" y="-251" type="curve" smooth="yes"/>
      <point x="-47" y="-247"/>
      <point x="-40" y="-238"/>
      <point x="-37" y="-234" type="curve" smooth="yes"/>
      <point x="-34" y="-230"/>
      <point x="-30" y="-226"/>
      <point x="-24" y="-226" type="curve" smooth="yes"/>
      <point x="-19" y="-226"/>
      <point x="-12" y="-229"/>
      <point x="-17" y="-250" type="curve"/>
      <point x="-12" y="-250" type="line"/>
      <point x="-10" y="-243"/>
      <point x="-6" y="-230"/>
      <point x="-6" y="-219" type="curve" smooth="yes"/>
      <point x="-7" y="-211"/>
      <point x="-10" y="-204"/>
      <point x="-19" y="-204" type="curve" smooth="yes"/>
      <point x="-25" y="-204"/>
      <point x="-28" y="-209"/>
      <point x="-33" y="-215" type="curve" smooth="yes"/>
      <point x="-36" y="-218"/>
      <point x="-43" y="-227"/>
      <point x="-54" y="-233" type="curve" smooth="yes"/>
      <point x="-62" y="-237"/>
      <point x="-68" y="-238"/>
      <point x="-75" y="-240" type="curve" smooth="yes"/>
      <point x="-79" y="-242"/>
      <point x="-84" y="-244"/>
      <point x="-90" y="-248" type="curve" smooth="yes"/>
      <point x="-98" y="-254"/>
      <point x="-102" y="-261"/>
      <point x="-102" y="-270" type="curve" smooth="yes"/>
      <point x="-105" y="-293" type="line"/>
      <point x="-105" y="-299"/>
      <point x="-101" y="-303"/>
      <point x="-96" y="-306" type="curve" smooth="yes"/>
      <point x="-89" y="-309"/>
      <point x="-79" y="-310"/>
      <point x="-72" y="-310" type="curve" smooth="yes"/>
      <point x="-38" y="-310"/>
      <point x="90" y="-310"/>
      <point x="90" y="-310" type="curve"/>
      <point x="107" y="-282" type="line"/>
      <point x="107" y="-282"/>
      <point x="81" y="-284"/>
      <point x="52" y="-284" type="curve" smooth="yes"/>
    </contour>
    <contour>
      <point x="1" y="-184" type="move" name="_bottom"/>
    </contour>
    <contour>
      <point x="1" y="-310" type="move" name="bottom"/>
    </contour>
  </outline>
</glyph>
<glyph name="uniFBAB" format="1">
  <advance width="613"/>
  <unicode hex="FBAB"/>
  <outline>
    <contour>
      <point x="64" y="-13" type="line"/>
      <point x="170" y="-12" type="line" smooth="yes"/>
      <point x="214" y="-12"/>
      <point x="272" y="18"/>
      <point x="305" y="54" type="curve"/>
      <point x="333" y="38"/>
      <point x="366" y="18"/>
      <point x="405" y="-10" type="curve"/>
      <point x="424" y="-10"/>
      <point x="440" y="1"/>
      <point x="452" y="16" type="curve"/>
      <point x="462" y="28"/>
      <point x="470" y="41"/>
      <point x="475" y="53" type="curve"/>
      <point x="481" y="40"/>
      <point x="489" y="30"/>
      <point x="499" y="21" type="curve"/>
      <point x="515" y="8"/>
      <point x="537" y="0"/>
      <point x="566" y="0" type="curve" smooth="yes"/>
      <point x="613" y="0" type="line"/>
      <point x="613" y="106" type="line"/>
      <point x="539" y="106" type="line" smooth="yes"/>
      <point x="497" y="106"/>
      <point x="487" y="118"/>
      <point x="487" y="150" type="curve"/>
      <point x="485" y="175"/>
      <point x="479" y="196"/>
      <point x="470" y="214" type="curve" smooth="yes"/>
      <point x="447" y="262"/>
      <point x="406" y="286"/>
      <point x="378" y="306" type="curve" smooth="yes"/>
      <point x="351" y="325"/>
      <point x="258" y="368"/>
      <point x="248" y="393" type="curve"/>
      <point x="248" y="344" type="line" smooth="yes"/>
      <point x="248" y="329"/>
      <point x="246" y="317"/>
      <point x="257" y="303" type="curve"/>
      <point x="201" y="280"/>
      <point x="172" y="222"/>
      <point x="172" y="178" type="curve" smooth="yes"/>
      <point x="172" y="129"/>
      <point x="186" y="116"/>
      <point x="229" y="94" type="curve"/>
      <point x="182" y="61"/>
      <point x="111" y="34"/>
      <point x="50" y="16" type="curve"/>
    </contour>
    <contour>
      <point x="222" y="232"/>
      <point x="243" y="248"/>
      <point x="266" y="248" type="curve" smooth="yes"/>
      <point x="289" y="248"/>
      <point x="319" y="230"/>
      <point x="325" y="196" type="curve"/>
      <point x="315" y="179"/>
      <point x="301" y="164"/>
      <point x="285" y="152" type="curve"/>
      <point x="235" y="175"/>
      <point x="215" y="188"/>
      <point x="208" y="209" type="curve"/>
    </contour>
    <contour>
      <point x="369" y="151"/>
      <point x="372" y="181"/>
      <point x="352" y="232" type="curve"/>
      <point x="359" y="226"/>
      <point x="384" y="211"/>
      <point x="408" y="187" type="curve" smooth="yes"/>
      <point x="424" y="171"/>
      <point x="440" y="151"/>
      <point x="448" y="128" type="curve"/>
      <point x="443" y="87"/>
      <point x="415" y="84"/>
      <point x="415" y="84" type="curve"/>
      <point x="389" y="96"/>
      <point x="382" y="100"/>
      <point x="348" y="119" type="curve"/>
    </contour>
    <contour>
      <point x="278" y="423" type="move" name="top"/>
    </contour>
    <contour>
      <point x="301" y="-44" type="move" name="bottom"/>
    </contour>
  </outline>
</glyph>
<glyph name="uniFBAF" format="1">
  <advance width="643"/>
  <unicode hex="FBAF"/>
  <outline>
    <contour>
      <point x="353" y="0"/>
      <point x="365" y="0"/>
      <point x="420" y="0" type="curve"/>
      <point x="643" y="0" type="line"/>
      <point x="643" y="106" type="line"/>
      <point x="214" y="106" type="line"/>
      <point x="168" y="106"/>
      <point x="137" y="86"/>
      <point x="116" y="62" type="curve" smooth="yes"/>
      <point x="89" y="30"/>
      <point x="80" y="-11"/>
      <point x="79" y="-25" type="curve"/>
      <point x="70" y="-116" type="line"/>
      <point x="70" y="-137"/>
      <point x="82" y="-155"/>
      <point x="100" y="-166" type="curve" smooth="yes"/>
      <point x="115" y="-177"/>
      <point x="136" y="-183"/>
      <point x="156" y="-183" type="curve"/>
      <point x="230" y="-183" type="line"/>
      <point x="277" y="-186"/>
      <point x="307" y="-205"/>
      <point x="322" y="-244" type="curve" smooth="yes"/>
      <point x="337" y="-283"/>
      <point x="347" y="-306"/>
      <point x="390" y="-307" type="curve"/>
      <point x="477" y="-307" type="line"/>
      <point x="543" y="-196" type="line"/>
      <point x="508" y="-199"/>
      <point x="481" y="-201"/>
      <point x="445" y="-201" type="curve"/>
      <point x="405" y="-201" type="line"/>
      <point x="373" y="-201"/>
      <point x="343" y="-199"/>
      <point x="324" y="-178" type="curve" smooth="yes"/>
      <point x="306" y="-159"/>
      <point x="307" y="-130"/>
      <point x="294" y="-108" type="curve" smooth="yes"/>
      <point x="280" y="-84"/>
      <point x="254" y="-77"/>
      <point x="228" y="-77" type="curve"/>
      <point x="187" y="-77" type="line" smooth="yes"/>
      <point x="150" y="-77"/>
      <point x="109" y="-70"/>
      <point x="105" y="-42" type="curve"/>
      <point x="113" y="-25"/>
      <point x="131" y="-14"/>
      <point x="154" y="-7" type="curve" smooth="yes"/>
      <point x="190" y="5"/>
      <point x="237" y="4"/>
      <point x="273" y="3" type="curve" smooth="yes"/>
    </contour>
    <contour>
      <point x="168" y="136" type="move" name="top"/>
    </contour>
    <contour>
      <point x="390" y="-331" type="move" name="bottom"/>
    </contour>
  </outline>
</glyph>
<glyph name="uniFC18" format="1">
  <advance width="709"/>
  <unicode hex="FC18"/>
  <outline>
    <contour>
      <point x="517" y="216"/>
      <point x="482" y="229"/>
      <point x="445" y="248" type="curve" smooth="yes"/>
      <point x="409" y="267"/>
      <point x="353" y="304"/>
      <point x="315" y="304" type="curve" smooth="yes"/>
      <point x="291" y="304"/>
      <point x="250" y="297"/>
      <point x="239" y="284" type="curve" smooth="yes"/>
      <point x="215" y="254"/>
      <point x="205" y="232"/>
      <point x="205" y="232" type="curve" smooth="yes"/>
      <point x="205" y="232"/>
      <point x="244" y="221"/>
      <point x="257" y="178" type="curve"/>
      <point x="272" y="183" type="line"/>
      <point x="272" y="206" type="line"/>
      <point x="278" y="212"/>
      <point x="288" y="217"/>
      <point x="303" y="211" type="curve" smooth="yes"/>
      <point x="363" y="187"/>
      <point x="406" y="172"/>
      <point x="422" y="166" type="curve"/>
      <point x="385" y="163"/>
      <point x="347" y="155"/>
      <point x="312" y="144" type="curve" smooth="yes"/>
      <point x="276" y="132"/>
      <point x="242" y="116"/>
      <point x="212" y="94" type="curve"/>
      <point x="204" y="71"/>
      <point x="203" y="52"/>
      <point x="204" y="28" type="curve"/>
      <point x="165" y="17"/>
      <point x="137" y="-11"/>
      <point x="117" y="-42" type="curve" smooth="yes"/>
      <point x="82" y="-96"/>
      <point x="73" y="-152"/>
      <point x="72" y="-158" type="curve"/>
      <point x="65" y="-205"/>
      <point x="75" y="-257"/>
      <point x="87" y="-313" type="curve" smooth="yes"/>
      <point x="102" y="-380"/>
      <point x="120" y="-453"/>
      <point x="115" y="-531" type="curve"/>
      <point x="132" y="-523" type="line"/>
      <point x="159" y="-469"/>
      <point x="162" y="-435"/>
      <point x="165" y="-407" type="curve" smooth="yes"/>
      <point x="169" y="-364"/>
      <point x="163" y="-319"/>
      <point x="155" y="-277" type="curve" smooth="yes"/>
      <point x="142" y="-213"/>
      <point x="124" y="-155"/>
      <point x="129" y="-114" type="curve"/>
      <point x="146" y="-83"/>
      <point x="189" y="-63"/>
      <point x="236" y="-63" type="curve" smooth="yes"/>
      <point x="277" y="-63"/>
      <point x="320" y="-74"/>
      <point x="349" y="-96" type="curve"/>
      <point x="365" y="4" type="line"/>
      <point x="353" y="28"/>
      <point x="331" y="49"/>
      <point x="301" y="67" type="curve"/>
      <point x="341" y="88"/>
      <point x="391" y="99"/>
      <point x="444" y="104" type="curve" smooth="yes"/>
      <point x="491" y="109"/>
      <point x="539" y="108"/>
      <point x="584" y="105" type="curve"/>
      <point x="649" y="182" type="line"/>
      <point x="616" y="188"/>
      <point x="586" y="195"/>
      <point x="560" y="203" type="curve" smooth="yes"/>
    </contour>
    <contour>
      <point x="355" y="0" type="move" name="caret_1"/>
    </contour>
    <contour>
      <point x="501" y="46" type="move" name="bottom_1"/>
    </contour>
    <contour>
      <point x="315" y="334" type="move" name="top_1"/>
    </contour>
    <contour>
      <point x="87" y="38" type="move" name="top_2"/>
    </contour>
    <contour>
      <point x="124" y="-557" type="move" name="bottom_2"/>
    </contour>
  </outline>
</glyph>
<glyph name="uniFC2A" format="1">
  <advance width="655"/>
  <unicode hex="FC2A"/>
  <outline>
    <contour>
      <point x="66" y="-205"/>
      <point x="76" y="-257"/>
      <point x="88" y="-313" type="curve" smooth="yes"/>
      <point x="103" y="-380"/>
      <point x="121" y="-453"/>
      <point x="116" y="-531" type="curve"/>
      <point x="133" y="-523" type="line"/>
      <point x="160" y="-469"/>
      <point x="163" y="-435"/>
      <point x="166" y="-407" type="curve" smooth="yes"/>
      <point x="170" y="-364"/>
      <point x="164" y="-319"/>
      <point x="156" y="-277" type="curve" smooth="yes"/>
      <point x="143" y="-213"/>
      <point x="125" y="-155"/>
      <point x="130" y="-114" type="curve"/>
      <point x="147" y="-83"/>
      <point x="190" y="-63"/>
      <point x="237" y="-63" type="curve" smooth="yes"/>
      <point x="278" y="-63"/>
      <point x="321" y="-74"/>
      <point x="350" y="-96" type="curve"/>
      <point x="368" y="17" type="line"/>
      <point x="354" y="44"/>
      <point x="321" y="66"/>
      <point x="288" y="79" type="curve"/>
      <point x="332" y="119"/>
      <point x="478" y="176"/>
      <point x="561" y="188" type="curve"/>
      <point x="595" y="286" type="line"/>
      <point x="507" y="264"/>
      <point x="489" y="258"/>
      <point x="422" y="236" type="curve"/>
      <point x="403" y="242"/>
      <point x="383" y="255"/>
      <point x="373" y="261" type="curve" smooth="yes"/>
      <point x="355" y="271"/>
      <point x="331" y="291"/>
      <point x="312" y="311" type="curve"/>
      <point x="315" y="316"/>
      <point x="326" y="330"/>
      <point x="342" y="342" type="curve"/>
      <point x="359" y="356"/>
      <point x="384" y="369"/>
      <point x="413" y="369" type="curve" smooth="yes"/>
      <point x="449" y="369"/>
      <point x="475" y="361"/>
      <point x="508" y="345" type="curve"/>
      <point x="531" y="387" type="line"/>
      <point x="519" y="407"/>
      <point x="504" y="424"/>
      <point x="486" y="437" type="curve"/>
      <point x="464" y="451"/>
      <point x="438" y="460"/>
      <point x="407" y="460" type="curve" smooth="yes"/>
      <point x="378" y="460"/>
      <point x="353" y="450"/>
      <point x="333" y="436" type="curve" smooth="yes"/>
      <point x="308" y="419"/>
      <point x="290" y="395"/>
      <point x="281" y="374" type="curve" smooth="yes"/>
      <point x="270" y="348"/>
      <point x="265" y="325"/>
      <point x="263" y="289" type="curve"/>
      <point x="268" y="258"/>
      <point x="288" y="214"/>
      <point x="331" y="184" type="curve"/>
      <point x="286" y="168"/>
      <point x="222" y="125"/>
      <point x="212" y="89" type="curve" smooth="yes"/>
      <point x="207" y="69"/>
      <point x="204" y="48"/>
      <point x="205" y="28" type="curve"/>
      <point x="166" y="17"/>
      <point x="138" y="-11"/>
      <point x="118" y="-42" type="curve" smooth="yes"/>
      <point x="83" y="-96"/>
      <point x="74" y="-151"/>
      <point x="73" y="-158" type="curve" smooth="yes"/>
    </contour>
    <contour>
      <point x="328" y="0" type="move" name="caret_1"/>
    </contour>
    <contour>
      <point x="414" y="-130" type="move" name="bottom_1"/>
    </contour>
    <contour>
      <point x="407" y="490" type="move" name="top_1"/>
    </contour>
    <contour>
      <point x="125" y="125" type="move" name="top_2"/>
    </contour>
    <contour>
      <point x="126" y="-561" type="move" name="bottom_2"/>
    </contour>
  </outline>
</glyph>
<glyph name="uniFC3D" format="1">
  <advance width="653"/>
  <unicode hex="FC3D"/>
  <outline>
    <contour>
      <point x="70" y="-51"/>
      <point x="78" y="-112"/>
      <point x="119" y="-159" type="curve" smooth="yes"/>
      <point x="148" y="-193"/>
      <point x="201" y="-219"/>
      <point x="271" y="-219" type="curve" smooth="yes"/>
      <point x="320" y="-219"/>
      <point x="377" y="-209"/>
      <point x="427" y="-190" type="curve" smooth="yes"/>
      <point x="483" y="-168"/>
      <point x="531" y="-134"/>
      <point x="545" y="-89" type="curve" smooth="yes"/>
      <point x="553" y="-63"/>
      <point x="555" y="-46"/>
      <point x="559" y="-25" type="curve" smooth="yes"/>
      <point x="566" y="9"/>
      <point x="524" y="42"/>
      <point x="479" y="58" type="curve"/>
      <point x="508" y="88"/>
      <point x="519" y="123"/>
      <point x="519" y="170" type="curve" smooth="yes"/>
      <point x="519" y="211"/>
      <point x="493" y="263"/>
      <point x="460" y="309" type="curve" smooth="yes"/>
      <point x="428" y="354"/>
      <point x="390" y="394"/>
      <point x="364" y="414" type="curve"/>
      <point x="378" y="424"/>
      <point x="434" y="449"/>
      <point x="492" y="475" type="curve" smooth="yes"/>
      <point x="546" y="500"/>
      <point x="601" y="526"/>
      <point x="628" y="544" type="curve"/>
      <point x="653" y="657" type="line"/>
      <point x="607" y="628"/>
      <point x="588" y="617"/>
      <point x="512" y="580" type="curve" smooth="yes"/>
      <point x="471" y="560"/>
      <point x="426" y="538"/>
      <point x="383" y="514" type="curve" smooth="yes"/>
      <point x="352" y="496"/>
      <point x="313" y="473"/>
      <point x="308" y="435" type="curve" smooth="yes"/>
      <point x="305" y="415"/>
      <point x="305" y="397"/>
      <point x="305" y="365" type="curve" smooth="yes"/>
      <point x="305" y="305"/>
      <point x="311" y="289"/>
      <point x="355" y="255" type="curve"/>
      <point x="355" y="289" type="line"/>
      <point x="374" y="275"/>
      <point x="395" y="253"/>
      <point x="415" y="228" type="curve" smooth="yes"/>
      <point x="435" y="202"/>
      <point x="453" y="173"/>
      <point x="465" y="147" type="curve"/>
      <point x="440" y="116"/>
      <point x="409" y="110"/>
      <point x="364" y="105" type="curve"/>
      <point x="338" y="21" type="line"/>
      <point x="349" y="0" type="line"/>
      <point x="412" y="-3"/>
      <point x="495" y="-10"/>
      <point x="492" y="-51" type="curve"/>
      <point x="468" y="-74"/>
      <point x="424" y="-90"/>
      <point x="374" y="-98" type="curve" smooth="yes"/>
      <point x="346" y="-103"/>
      <point x="316" y="-105"/>
      <point x="287" y="-105" type="curve" smooth="yes"/>
      <point x="229" y="-105"/>
      <point x="190" y="-91"/>
      <point x="163" y="-72" type="curve" smooth="yes"/>
      <point x="121" y="-42"/>
      <point x="109" y="-3"/>
      <point x="109" y="34" type="curve"/>
      <point x="111" y="82"/>
      <point x="134" y="124"/>
      <point x="143" y="134" type="curve"/>
      <point x="127" y="150" type="line"/>
      <point x="107" y="126"/>
      <point x="95" y="102"/>
      <point x="87" y="76" type="curve" smooth="yes"/>
      <point x="70" y="26"/>
      <point x="70" y="-20"/>
      <point x="70" y="-33" type="curve" smooth="yes"/>
    </contour>
  </outline>
</glyph>
<glyph name="uniFC43" format="1">
  <advance width="630"/>
  <unicode hex="FC43"/>
  <outline>
    <contour>
      <point x="70" y="-51"/>
      <point x="78" y="-112"/>
      <point x="119" y="-159" type="curve" smooth="yes"/>
      <point x="148" y="-193"/>
      <point x="201" y="-219"/>
      <point x="271" y="-219" type="curve" smooth="yes"/>
      <point x="320" y="-219"/>
      <point x="377" y="-209"/>
      <point x="427" y="-190" type="curve" smooth="yes"/>
      <point x="483" y="-168"/>
      <point x="533" y="-135"/>
      <point x="545" y="-89" type="curve" smooth="yes"/>
      <point x="552" y="-62"/>
      <point x="555" y="-46"/>
      <point x="559" y="-25" type="curve" smooth="yes"/>
      <point x="567" y="13"/>
      <point x="515" y="49"/>
      <point x="465" y="63" type="curve"/>
      <point x="508" y="82"/>
      <point x="518" y="124"/>
      <point x="513" y="192" type="curve"/>
      <point x="507" y="262"/>
      <point x="487" y="420"/>
      <point x="469" y="535" type="curve"/>
      <point x="464" y="565"/>
      <point x="469" y="576"/>
      <point x="488" y="597" type="curve"/>
      <point x="454" y="621"/>
      <point x="442" y="641"/>
      <point x="420" y="683" type="curve"/>
      <point x="393" y="678"/>
      <point x="380" y="656"/>
      <point x="374" y="634" type="curve" smooth="yes"/>
      <point x="367" y="608"/>
      <point x="370" y="580"/>
      <point x="370" y="580" type="curve"/>
      <point x="385" y="566" type="line"/>
      <point x="408" y="491"/>
      <point x="420" y="421"/>
      <point x="433" y="341" type="curve" smooth="yes"/>
      <point x="444" y="274"/>
      <point x="457" y="187"/>
      <point x="460" y="142" type="curve"/>
      <point x="436" y="115"/>
      <point x="406" y="109"/>
      <point x="364" y="105" type="curve"/>
      <point x="338" y="21" type="line"/>
      <point x="349" y="0" type="line"/>
      <point x="412" y="-3"/>
      <point x="495" y="-10"/>
      <point x="492" y="-51" type="curve"/>
      <point x="468" y="-74"/>
      <point x="424" y="-90"/>
      <point x="374" y="-98" type="curve" smooth="yes"/>
      <point x="346" y="-103"/>
      <point x="316" y="-105"/>
      <point x="287" y="-105" type="curve" smooth="yes"/>
      <point x="229" y="-105"/>
      <point x="190" y="-91"/>
      <point x="163" y="-72" type="curve" smooth="yes"/>
      <point x="121" y="-42"/>
      <point x="109" y="-3"/>
      <point x="109" y="34" type="curve"/>
      <point x="111" y="82"/>
      <point x="134" y="124"/>
      <point x="143" y="134" type="curve"/>
      <point x="127" y="150" type="line"/>
      <point x="107" y="126"/>
      <point x="95" y="102"/>
      <point x="87" y="76" type="curve" smooth="yes"/>
      <point x="70" y="26"/>
      <point x="70" y="-20"/>
      <point x="70" y="-33" type="curve" smooth="yes"/>
    </contour>
    <contour>
      <point x="310" y="0" type="move" name="caret_1"/>
    </contour>
    <contour>
      <point x="504" y="-200" type="move" name="bottom_1"/>
    </contour>
    <contour>
      <point x="380" y="713" type="move" name="top_1"/>
    </contour>
    <contour>
      <point x="271" y="86" type="move" name="top_2"/>
    </contour>
    <contour>
      <point x="289" y="-249" type="move" name="bottom_2"/>
    </contour>
  </outline>
</glyph>
<glyph name="uniFC53" format="1">
  <advance width="853"/>
  <unicode hex="FC53"/>
  <outline>
    <contour>
      <point x="70" y="-81"/>
      <point x="78" y="-142"/>
      <point x="119" y="-189" type="curve" smooth="yes"/>
      <point x="148" y="-223"/>
      <point x="201" y="-249"/>
      <point x="271" y="-249" type="curve" smooth="yes"/>
      <point x="320" y="-249"/>
      <point x="377" y="-239"/>
      <point x="427" y="-220" type="curve" smooth="yes"/>
      <point x="483" y="-198"/>
      <point x="533" y="-165"/>
      <point x="545" y="-119" type="curve" smooth="yes"/>
      <point x="552" y="-91"/>
      <point x="554" y="-79"/>
      <point x="558" y="-58" type="curve" smooth="yes"/>
      <point x="565" y="-23"/>
      <point x="522" y="10"/>
      <point x="476" y="26" type="curve"/>
      <point x="529" y="42"/>
      <point x="576" y="74"/>
      <point x="610" y="107" type="curve"/>
      <point x="637" y="91"/>
      <point x="670" y="71"/>
      <point x="710" y="43" type="curve"/>
      <point x="729" y="43"/>
      <point x="745" y="54"/>
      <point x="757" y="69" type="curve"/>
      <point x="776" y="91"/>
      <point x="786" y="120"/>
      <point x="788" y="129" type="curve"/>
      <point x="799" y="190"/>
      <point x="791" y="234"/>
      <point x="775" y="267" type="curve" smooth="yes"/>
      <point x="752" y="315"/>
      <point x="711" y="339"/>
      <point x="683" y="359" type="curve" smooth="yes"/>
      <point x="656" y="378"/>
      <point x="563" y="421"/>
      <point x="553" y="446" type="curve"/>
      <point x="553" y="397" type="line" smooth="yes"/>
      <point x="553" y="382"/>
      <point x="551" y="370"/>
      <point x="562" y="356" type="curve"/>
      <point x="506" y="333"/>
      <point x="477" y="275"/>
      <point x="477" y="231" type="curve" smooth="yes"/>
      <point x="477" y="183"/>
      <point x="487" y="173"/>
      <point x="529" y="151" type="curve"/>
      <point x="485" y="120"/>
      <point x="429" y="92"/>
      <point x="364" y="75" type="curve"/>
      <point x="338" y="-9" type="line"/>
      <point x="349" y="-30" type="line"/>
      <point x="412" y="-33"/>
      <point x="495" y="-40"/>
      <point x="492" y="-81" type="curve"/>
      <point x="468" y="-104"/>
      <point x="424" y="-120"/>
      <point x="374" y="-128" type="curve" smooth="yes"/>
      <point x="346" y="-133"/>
      <point x="316" y="-135"/>
      <point x="287" y="-135" type="curve" smooth="yes"/>
      <point x="229" y="-135"/>
      <point x="190" y="-121"/>
      <point x="163" y="-102" type="curve" smooth="yes"/>
      <point x="121" y="-72"/>
      <point x="109" y="-33"/>
      <point x="109" y="4" type="curve"/>
      <point x="111" y="52"/>
      <point x="134" y="94"/>
      <point x="143" y="104" type="curve"/>
      <point x="127" y="120" type="line"/>
      <point x="107" y="96"/>
      <point x="95" y="72"/>
      <point x="87" y="46" type="curve" smooth="yes"/>
      <point x="70" y="-4"/>
      <point x="70" y="-50"/>
      <point x="70" y="-63" type="curve" smooth="yes"/>
    </contour>
    <contour>
      <point x="527" y="285"/>
      <point x="548" y="301"/>
      <point x="571" y="301" type="curve" smooth="yes"/>
      <point x="594" y="301"/>
      <point x="624" y="283"/>
      <point x="630" y="249" type="curve"/>
      <point x="620" y="232"/>
      <point x="606" y="217"/>
      <point x="590" y="205" type="curve"/>
      <point x="540" y="228"/>
      <point x="520" y="241"/>
      <point x="513" y="262" type="curve"/>
    </contour>
    <contour>
      <point x="674" y="204"/>
      <point x="677" y="234"/>
      <point x="657" y="285" type="curve"/>
      <point x="664" y="279"/>
      <point x="689" y="264"/>
      <point x="713" y="240" type="curve" smooth="yes"/>
      <point x="729" y="224"/>
      <point x="745" y="204"/>
      <point x="753" y="181" type="curve"/>
      <point x="748" y="140"/>
      <point x="720" y="137"/>
      <point x="720" y="137" type="curve"/>
      <point x="694" y="149"/>
      <point x="687" y="153"/>
      <point x="653" y="172" type="curve"/>
    </contour>
  </outline>
</glyph>
<glyph name="uniFCAA" format="1">
  <advance width="697"/>
  <unicode hex="FCAA"/>
  <outline>
    <contour>
      <point x="542" y="386"/>
      <point x="479" y="402"/>
      <point x="417" y="428" type="curve" smooth="yes"/>
      <point x="347" y="457"/>
      <point x="318" y="475"/>
      <point x="273" y="475" type="curve" smooth="yes"/>
      <point x="250" y="475"/>
      <point x="198" y="462"/>
      <point x="190" y="447" type="curve" smooth="yes"/>
      <point x="170" y="409"/>
      <point x="161" y="378"/>
      <point x="161" y="378" type="curve" smooth="yes"/>
      <point x="161" y="378"/>
      <point x="198" y="377"/>
      <point x="222" y="337" type="curve"/>
      <point x="233" y="342" type="line"/>
      <point x="233" y="367" type="line"/>
      <point x="237" y="374"/>
      <point x="245" y="383"/>
      <point x="262" y="378" type="curve" smooth="yes"/>
      <point x="308" y="366"/>
      <point x="344" y="354"/>
      <point x="389" y="339" type="curve"/>
      <point x="333" y="332"/>
      <point x="269" y="314"/>
      <point x="216" y="284" type="curve" smooth="yes"/>
      <point x="171" y="259"/>
      <point x="133" y="226"/>
      <point x="113" y="186" type="curve"/>
      <point x="91" y="145"/>
      <point x="66" y="106"/>
      <point x="10" y="106" type="curve" smooth="yes"/>
      <point x="-17" y="106" type="line" smooth="yes"/>
      <point x="-46" y="106"/>
      <point x="-70" y="82"/>
      <point x="-70" y="53" type="curve" smooth="yes"/>
      <point x="-70" y="24"/>
      <point x="-46" y="0"/>
      <point x="-17" y="0" type="curve" smooth="yes"/>
      <point x="1" y="0" type="line" smooth="yes"/>
      <point x="39" y="0"/>
      <point x="66" y="14"/>
      <point x="84" y="32" type="curve" smooth="yes"/>
      <point x="108" y="55"/>
      <point x="117" y="84"/>
      <point x="120" y="97" type="curve"/>
      <point x="120" y="51"/>
      <point x="147" y="6"/>
      <point x="206" y="6" type="curve" smooth="yes"/>
      <point x="242" y="6"/>
      <point x="269" y="29"/>
      <point x="269" y="29" type="curve"/>
      <point x="278" y="59"/>
      <point x="285" y="86"/>
      <point x="294" y="131" type="curve" smooth="yes"/>
      <point x="302" y="169"/>
      <point x="294" y="202"/>
      <point x="261" y="226" type="curve"/>
      <point x="296" y="248"/>
      <point x="344" y="264"/>
      <point x="395" y="276" type="curve" smooth="yes"/>
      <point x="460" y="290"/>
      <point x="529" y="295"/>
      <point x="585" y="291" type="curve"/>
      <point x="637" y="386" type="line"/>
      <point x="613" y="386" type="line" smooth="yes"/>
    </contour>
    <contour>
      <point x="208" y="101"/>
      <point x="166" y="118"/>
      <point x="140" y="143" type="curve"/>
      <point x="152" y="167"/>
      <point x="177" y="182"/>
      <point x="201" y="182" type="curve" smooth="yes"/>
      <point x="231" y="182"/>
      <point x="260" y="140"/>
      <point x="260" y="140" type="curve"/>
      <point x="250" y="120"/>
      <point x="241" y="100"/>
      <point x="241" y="100" type="curve" smooth="yes"/>
    </contour>
    <contour>
      <point x="335" y="0" type="move" name="caret_1"/>
    </contour>
    <contour>
      <point x="440" y="218" type="move" name="bottom_1"/>
    </contour>
    <contour>
      <point x="273" y="505" type="move" name="top_1"/>
    </contour>
    <contour>
      <point x="40" y="234" type="move" name="top_2"/>
    </contour>
    <contour>
      <point x="165" y="-34" type="move" name="bottom_2"/>
    </contour>
  </outline>
</glyph>
<glyph name="uniFCB0" format="1">
  <advance width="738"/>
  <unicode hex="FCB0"/>
  <outline>
    <contour>
      <point x="677" y="296"/>
      <point x="667" y="339"/>
      <point x="648" y="357" type="curve"/>
      <point x="595" y="288" type="line"/>
      <point x="604" y="261"/>
      <point x="613" y="229"/>
      <point x="612" y="205" type="curve"/>
      <point x="612" y="205"/>
      <point x="568" y="200"/>
      <point x="540" y="215" type="curve" smooth="yes"/>
      <point x="504" y="235"/>
      <point x="499" y="275"/>
      <point x="498" y="297" type="curve"/>
      <point x="483" y="304" type="line"/>
      <point x="481" y="280"/>
      <point x="475" y="257"/>
      <point x="464" y="239" type="curve" smooth="yes"/>
      <point x="450" y="216"/>
      <point x="427" y="201"/>
      <point x="397" y="201" type="curve" smooth="yes"/>
      <point x="372" y="201"/>
      <point x="356" y="205"/>
      <point x="342" y="215" type="curve"/>
      <point x="328" y="226"/>
      <point x="317" y="243"/>
      <point x="301" y="269" type="curve"/>
      <point x="288" y="292"/>
      <point x="272" y="311"/>
      <point x="240" y="311" type="curve" smooth="yes"/>
      <point x="207" y="311"/>
      <point x="174" y="285"/>
      <point x="149" y="251" type="curve" smooth="yes"/>
      <point x="133" y="230"/>
      <point x="120" y="206"/>
      <point x="113" y="184" type="curve" smooth="yes"/>
      <point x="108" y="165"/>
      <point x="105" y="147"/>
      <point x="105" y="126" type="curve"/>
      <point x="100" y="122"/>
      <point x="79" y="106"/>
      <point x="46" y="106" type="curve" smooth="yes"/>
      <point x="-17" y="106" type="line" smooth="yes"/>
      <point x="-46" y="106"/>
      <point x="-70" y="81"/>
      <point x="-70" y="52" type="curve" smooth="yes"/>
      <point x="-70" y="23"/>
      <point x="-46" y="0"/>
      <point x="-17" y="0" type="curve" smooth="yes"/>
      <point x="77" y="0" type="line" smooth="yes"/>
      <point x="145" y="0"/>
      <point x="193" y="21"/>
      <point x="255" y="-29" type="curve"/>
      <point x="275" y="104" type="line"/>
      <point x="259" y="120"/>
      <point x="238" y="125"/>
      <point x="219" y="131" type="curve" smooth="yes"/>
      <point x="198" y="138"/>
      <point x="177" y="142"/>
      <point x="165" y="167" type="curve"/>
      <point x="178" y="191"/>
      <point x="205" y="216"/>
      <point x="230" y="216" type="curve" smooth="yes"/>
      <point x="278" y="216"/>
      <point x="294" y="183"/>
      <point x="312" y="151" type="curve" smooth="yes"/>
      <point x="329" y="122"/>
      <point x="355" y="95"/>
      <point x="405" y="95" type="curve" smooth="yes"/>
      <point x="428" y="95"/>
      <point x="449" y="103"/>
      <point x="464" y="117" type="curve" smooth="yes"/>
      <point x="477" y="130"/>
      <point x="487" y="146"/>
      <point x="490" y="165" type="curve"/>
      <point x="497" y="150"/>
      <point x="507" y="131"/>
      <point x="526" y="116" type="curve"/>
      <point x="541" y="105"/>
      <point x="563" y="96"/>
      <point x="594" y="96" type="curve" smooth="yes"/>
      <point x="608" y="96"/>
      <point x="625" y="115"/>
      <point x="640" y="137" type="curve" smooth="yes"/>
      <point x="656" y="159"/>
      <point x="669" y="184"/>
      <point x="671" y="191" type="curve" smooth="yes"/>
      <point x="676" y="209"/>
      <point x="679" y="231"/>
      <point x="678" y="254" type="curve" smooth="yes"/>
    </contour>
    <contour>
      <point x="369" y="0" type="move" name="caret_1"/>
    </contour>
    <contour>
      <point x="464" y="46" type="move" name="bottom_1"/>
    </contour>
    <contour>
      <point x="483" y="344" type="move" name="top_1"/>
    </contour>
    <contour>
      <point x="200" y="344" type="move" name="top_2"/>
    </contour>
    <contour>
      <point x="184" y="-60" type="move" name="bottom_2"/>
    </contour>
  </outline>
</glyph>
<glyph name="uniFCBB" format="1">
  <advance width="568"/>
  <unicode hex="FCBB"/>
  <outline>
    <contour>
      <point x="420" y="373"/>
      <point x="402" y="367"/>
      <point x="335" y="345" type="curve"/>
      <point x="316" y="351"/>
      <point x="296" y="364"/>
      <point x="286" y="370" type="curve" smooth="yes"/>
      <point x="268" y="380"/>
      <point x="244" y="400"/>
      <point x="225" y="420" type="curve"/>
      <point x="228" y="425"/>
      <point x="239" y="439"/>
      <point x="255" y="451" type="curve"/>
      <point x="272" y="465"/>
      <point x="297" y="478"/>
      <point x="326" y="478" type="curve" smooth="yes"/>
      <point x="362" y="478"/>
      <point x="388" y="470"/>
      <point x="421" y="454" type="curve"/>
      <point x="444" y="496" type="line"/>
      <point x="432" y="516"/>
      <point x="417" y="533"/>
      <point x="399" y="546" type="curve"/>
      <point x="377" y="560"/>
      <point x="351" y="569"/>
      <point x="320" y="569" type="curve" smooth="yes"/>
      <point x="291" y="569"/>
      <point x="266" y="559"/>
      <point x="246" y="545" type="curve" smooth="yes"/>
      <point x="221" y="528"/>
      <point x="203" y="504"/>
      <point x="194" y="483" type="curve" smooth="yes"/>
      <point x="183" y="457"/>
      <point x="178" y="434"/>
      <point x="176" y="398" type="curve"/>
      <point x="181" y="367"/>
      <point x="201" y="323"/>
      <point x="244" y="293" type="curve"/>
      <point x="178" y="270"/>
      <point x="134" y="230"/>
      <point x="113" y="186" type="curve"/>
      <point x="91" y="145"/>
      <point x="66" y="106"/>
      <point x="10" y="106" type="curve" smooth="yes"/>
      <point x="-17" y="106" type="line" smooth="yes"/>
      <point x="-46" y="106"/>
      <point x="-70" y="82"/>
      <point x="-70" y="53" type="curve" smooth="yes"/>
      <point x="-70" y="24"/>
      <point x="-46" y="0"/>
      <point x="-17" y="0" type="curve" smooth="yes"/>
      <point x="1" y="0" type="line" smooth="yes"/>
      <point x="39" y="0"/>
      <point x="66" y="14"/>
      <point x="84" y="32" type="curve" smooth="yes"/>
      <point x="108" y="55"/>
      <point x="117" y="84"/>
      <point x="120" y="97" type="curve"/>
      <point x="120" y="51"/>
      <point x="147" y="6"/>
      <point x="206" y="6" type="curve" smooth="yes"/>
      <point x="242" y="6"/>
      <point x="269" y="29"/>
      <point x="269" y="29" type="curve"/>
      <point x="278" y="59"/>
      <point x="285" y="86"/>
      <point x="294" y="131" type="curve" smooth="yes"/>
      <point x="302" y="169"/>
      <point x="294" y="202"/>
      <point x="261" y="226" type="curve"/>
      <point x="324" y="257"/>
      <point x="415" y="288"/>
      <point x="474" y="297" type="curve"/>
      <point x="508" y="395" type="line"/>
    </contour>
    <contour>
      <point x="208" y="101"/>
      <point x="166" y="118"/>
      <point x="140" y="143" type="curve"/>
      <point x="152" y="167"/>
      <point x="177" y="182"/>
      <point x="201" y="182" type="curve" smooth="yes"/>
      <point x="231" y="182"/>
      <point x="260" y="140"/>
      <point x="260" y="140" type="curve"/>
      <point x="250" y="120"/>
      <point x="241" y="100"/>
      <point x="241" y="100" type="curve" smooth="yes"/>
    </contour>
    <contour>
      <point x="284" y="0" type="move" name="caret_1"/>
    </contour>
    <contour>
      <point x="345" y="0" type="move" name="bottom_1"/>
    </contour>
    <contour>
      <point x="320" y="599" type="move" name="top_1"/>
    </contour>
    <contour>
      <point x="38" y="253" type="move" name="top_2"/>
    </contour>
    <contour>
      <point x="43" y="-34" type="move" name="bottom_2"/>
    </contour>
  </outline>
</glyph>
<glyph name="uniFCC7" format="1">
  <advance width="531"/>
  <unicode hex="FCC7"/>
  <outline>
    <contour>
      <point x="-70" y="24"/>
      <point x="-46" y="0"/>
      <point x="-17" y="0" type="curve" smooth="yes"/>
      <point x="32" y="0" type="line" smooth="yes"/>
      <point x="118" y="0"/>
      <point x="134" y="58"/>
      <point x="137" y="70" type="curve"/>
      <point x="147" y="33"/>
      <point x="180" y="0"/>
      <point x="243" y="0" type="curve" smooth="yes"/>
      <point x="300" y="0"/>
      <point x="345" y="20"/>
      <point x="368" y="55" type="curve" smooth="yes"/>
      <point x="388" y="84"/>
      <point x="397" y="123"/>
      <point x="397" y="170" type="curve" smooth="yes"/>
      <point x="397" y="215"/>
      <point x="373" y="266"/>
      <point x="341" y="311" type="curve" smooth="yes"/>
      <point x="309" y="354"/>
      <point x="270" y="391"/>
      <point x="236" y="409" type="curve"/>
      <point x="250" y="419"/>
      <point x="312" y="449"/>
      <point x="370" y="475" type="curve" smooth="yes"/>
      <point x="424" y="500"/>
      <point x="479" y="526"/>
      <point x="506" y="544" type="curve"/>
      <point x="531" y="657" type="line"/>
      <point x="485" y="628"/>
      <point x="466" y="617"/>
      <point x="390" y="580" type="curve" smooth="yes"/>
      <point x="349" y="560"/>
      <point x="304" y="538"/>
      <point x="261" y="514" type="curve" smooth="yes"/>
      <point x="237" y="500"/>
      <point x="174" y="465"/>
      <point x="146" y="432" type="curve"/>
      <point x="116" y="681" type="line"/>
      <point x="53" y="607" type="line"/>
      <point x="104" y="177" type="line" smooth="yes"/>
      <point x="106" y="162"/>
      <point x="105" y="141"/>
      <point x="94" y="126" type="curve" smooth="yes"/>
      <point x="85" y="114"/>
      <point x="70" y="106"/>
      <point x="43" y="106" type="curve" smooth="yes"/>
      <point x="-17" y="106" type="line" smooth="yes"/>
      <point x="-46" y="106"/>
      <point x="-70" y="82"/>
      <point x="-70" y="53" type="curve" smooth="yes"/>
    </contour>
    <contour>
      <point x="201" y="322"/>
      <point x="238" y="294"/>
      <point x="268" y="263" type="curve" smooth="yes"/>
      <point x="306" y="224"/>
      <point x="331" y="180"/>
      <point x="339" y="151" type="curve"/>
      <point x="320" y="125"/>
      <point x="297" y="106"/>
      <point x="251" y="106" type="curve"/>
      <point x="228" y="106"/>
      <point x="213" y="117"/>
      <point x="201" y="134" type="curve" smooth="yes"/>
      <point x="186" y="155"/>
      <point x="176" y="190"/>
      <point x="169" y="245" type="curve" smooth="yes"/>
      <point x="157" y="338" type="line"/>
    </contour>
    <contour>
      <point x="266" y="0" type="move" name="caret_1"/>
    </contour>
    <contour>
      <point x="268" y="-34" type="move" name="bottom_1"/>
    </contour>
    <contour>
      <point x="353" y="626" type="move" name="top_1"/>
    </contour>
    <contour>
      <point x="22" y="671" type="move" name="top_2"/>
    </contour>
    <contour>
      <point x="42" y="-34" type="move" name="bottom_2"/>
    </contour>
  </outline>
</glyph>
<glyph name="uniFCD1" format="1">
  <advance width="495"/>
  <unicode hex="FCD1"/>
  <outline>
    <contour>
      <point x="303" y="467"/>
      <point x="263" y="471"/>
      <point x="255" y="491" type="curve"/>
      <point x="255" y="392" type="line" smooth="yes"/>
      <point x="255" y="350"/>
      <point x="268" y="344"/>
      <point x="272" y="341" type="curve"/>
      <point x="196" y="328"/>
      <point x="116" y="274"/>
      <point x="87" y="208" type="curve" smooth="yes"/>
      <point x="72" y="174"/>
      <point x="74" y="136"/>
      <point x="84" y="114" type="curve"/>
      <point x="74" y="110"/>
      <point x="62" y="106"/>
      <point x="46" y="106" type="curve" smooth="yes"/>
      <point x="-17" y="106" type="line" smooth="yes"/>
      <point x="-46" y="106"/>
      <point x="-70" y="81"/>
      <point x="-70" y="52" type="curve" smooth="yes"/>
      <point x="-70" y="23"/>
      <point x="-46" y="0"/>
      <point x="-17" y="0" type="curve" smooth="yes"/>
      <point x="77" y="0" type="line" smooth="yes"/>
      <point x="145" y="0"/>
      <point x="194" y="24"/>
      <point x="256" y="-24" type="curve"/>
      <point x="274" y="101" type="line"/>
      <point x="258" y="117"/>
      <point x="227" y="122"/>
      <point x="208" y="128" type="curve" smooth="yes"/>
      <point x="181" y="137"/>
      <point x="156" y="147"/>
      <point x="147" y="191" type="curve"/>
      <point x="148" y="192" type="line"/>
      <point x="181" y="245"/>
      <point x="239" y="262"/>
      <point x="307" y="262" type="curve" smooth="yes"/>
      <point x="399" y="262"/>
      <point x="433" y="276"/>
      <point x="434" y="338" type="curve" smooth="yes"/>
      <point x="435" y="402" type="line" smooth="yes"/>
      <point x="436" y="443"/>
      <point x="389" y="453"/>
      <point x="343" y="461" type="curve" smooth="yes"/>
    </contour>
    <contour>
      <point x="248" y="0" type="move" name="caret_1"/>
    </contour>
    <contour>
      <point x="337" y="-55" type="move" name="bottom_1"/>
    </contour>
    <contour>
      <point x="330" y="530" type="move" name="top_1"/>
    </contour>
    <contour>
      <point x="57" y="344" type="move" name="top_2"/>
    </contour>
    <contour>
      <point x="106" y="-34" type="move" name="bottom_2"/>
    </contour>
  </outline>
</glyph>
<glyph name="uniFCEB" format="1">
  <advance width="584"/>
  <unicode hex="FCEB"/>
  <outline>
    <contour>
      <point x="-70" y="24"/>
      <point x="-46" y="0"/>
      <point x="-17" y="0" type="curve" smooth="yes"/>
      <point x="32" y="0" type="line" smooth="yes"/>
      <point x="118" y="0"/>
      <point x="134" y="58"/>
      <point x="137" y="70" type="curve"/>
      <point x="148" y="30"/>
      <point x="183" y="0"/>
      <point x="243" y="0" type="curve"/>
      <point x="308" y="0"/>
      <point x="362" y="29"/>
      <point x="382" y="85" type="curve"/>
      <point x="402" y="55"/>
      <point x="443" y="0"/>
      <point x="532" y="0" type="curve" smooth="yes"/>
      <point x="584" y="0" type="line"/>
      <point x="584" y="106" type="line"/>
      <point x="539" y="106" type="line" smooth="yes"/>
      <point x="519" y="106"/>
      <point x="500" y="107"/>
      <point x="482" y="114" type="curve" smooth="yes"/>
      <point x="441" y="129"/>
      <point x="416" y="167"/>
      <point x="395" y="200" type="curve" smooth="yes"/>
      <point x="373" y="235"/>
      <point x="354" y="266"/>
      <point x="325" y="306" type="curve" smooth="yes"/>
      <point x="298" y="344"/>
      <point x="268" y="379"/>
      <point x="236" y="404" type="curve"/>
      <point x="272" y="427"/>
      <point x="284" y="434"/>
      <point x="362" y="472" type="curve" smooth="yes"/>
      <point x="446" y="513"/>
      <point x="493" y="538"/>
      <point x="501" y="544" type="curve"/>
      <point x="526" y="657" type="line"/>
      <point x="488" y="631"/>
      <point x="410" y="591"/>
      <point x="391" y="582" type="curve" smooth="yes"/>
      <point x="358" y="566"/>
      <point x="258" y="514"/>
      <point x="225" y="496" type="curve" smooth="yes"/>
      <point x="190" y="477"/>
      <point x="160" y="458"/>
      <point x="147" y="426" type="curve"/>
      <point x="116" y="681" type="line"/>
      <point x="53" y="607" type="line"/>
      <point x="104" y="177" type="line" smooth="yes"/>
      <point x="106" y="162"/>
      <point x="105" y="141"/>
      <point x="94" y="126" type="curve" smooth="yes"/>
      <point x="85" y="114"/>
      <point x="70" y="106"/>
      <point x="43" y="106" type="curve" smooth="yes"/>
      <point x="-17" y="106" type="line" smooth="yes"/>
      <point x="-46" y="106"/>
      <point x="-70" y="82"/>
      <point x="-70" y="53" type="curve" smooth="yes"/>
    </contour>
    <contour>
      <point x="192" y="323"/>
      <point x="223" y="292"/>
      <point x="250" y="259" type="curve" smooth="yes"/>
      <point x="285" y="218"/>
      <point x="314" y="173"/>
      <point x="337" y="137" type="curve"/>
      <point x="318" y="118"/>
      <point x="294" y="106"/>
      <point x="260" y="106" type="curve"/>
      <point x="234" y="106"/>
      <point x="215" y="115"/>
      <point x="201" y="135" type="curve" smooth="yes"/>
      <point x="186" y="156"/>
      <point x="176" y="190"/>
      <point x="169" y="245" type="curve" smooth="yes"/>
      <point x="156" y="348" type="line"/>
    </contour>
    <contour>
      <point x="292" y="0" type="move" name="caret_1"/>
    </contour>
    <contour>
      <point x="312" y="-34" type="move" name="bottom_1"/>
    </contour>
    <contour>
      <point x="305" y="591" type="move" name="top_1"/>
    </contour>
    <contour>
      <point x="-8" y="662" type="move" name="top_2"/>
    </contour>
    <contour>
      <point x="60" y="-34" type="move" name="bottom_2"/>
    </contour>
  </outline>
</glyph>
<glyph name="uniFCF7" format="1">
  <advance width="805"/>
  <unicode hex="FCF7"/>
  <outline>
    <contour>
      <point x="70" y="-51"/>
      <point x="78" y="-112"/>
      <point x="119" y="-159" type="curve" smooth="yes"/>
      <point x="148" y="-193"/>
      <point x="201" y="-219"/>
      <point x="271" y="-219" type="curve" smooth="yes"/>
      <point x="320" y="-219"/>
      <point x="377" y="-209"/>
      <point x="427" y="-190" type="curve" smooth="yes"/>
      <point x="483" y="-168"/>
      <point x="531" y="-134"/>
      <point x="545" y="-89" type="curve" smooth="yes"/>
      <point x="553" y="-63"/>
      <point x="555" y="-46"/>
      <point x="559" y="-25" type="curve" smooth="yes"/>
      <point x="564" y="-2"/>
      <point x="548" y="25"/>
      <point x="515" y="45" type="curve" smooth="yes"/>
      <point x="495" y="58"/>
      <point x="467" y="69"/>
      <point x="434" y="74" type="curve"/>
      <point x="473" y="136"/>
      <point x="640" y="196"/>
      <point x="711" y="208" type="curve"/>
      <point x="745" y="306" type="line"/>
      <point x="657" y="284"/>
      <point x="639" y="278"/>
      <point x="572" y="256" type="curve"/>
      <point x="553" y="262"/>
      <point x="533" y="275"/>
      <point x="523" y="281" type="curve" smooth="yes"/>
      <point x="505" y="291"/>
      <point x="481" y="311"/>
      <point x="462" y="331" type="curve"/>
      <point x="465" y="336"/>
      <point x="476" y="350"/>
      <point x="492" y="362" type="curve"/>
      <point x="509" y="376"/>
      <point x="534" y="389"/>
      <point x="563" y="389" type="curve" smooth="yes"/>
      <point x="599" y="389"/>
      <point x="625" y="381"/>
      <point x="658" y="365" type="curve"/>
      <point x="681" y="407" type="line"/>
      <point x="669" y="427"/>
      <point x="654" y="444"/>
      <point x="636" y="457" type="curve"/>
      <point x="614" y="471"/>
      <point x="588" y="480"/>
      <point x="557" y="480" type="curve" smooth="yes"/>
      <point x="528" y="480"/>
      <point x="503" y="470"/>
      <point x="483" y="456" type="curve" smooth="yes"/>
      <point x="458" y="439"/>
      <point x="440" y="415"/>
      <point x="431" y="394" type="curve" smooth="yes"/>
      <point x="420" y="368"/>
      <point x="415" y="345"/>
      <point x="413" y="309" type="curve"/>
      <point x="418" y="278"/>
      <point x="438" y="234"/>
      <point x="481" y="204" type="curve"/>
      <point x="438" y="178"/>
      <point x="398" y="143"/>
      <point x="367" y="105" type="curve"/>
      <point x="338" y="21" type="line"/>
      <point x="349" y="0" type="line"/>
      <point x="412" y="-3"/>
      <point x="495" y="-10"/>
      <point x="492" y="-51" type="curve"/>
      <point x="468" y="-74"/>
      <point x="424" y="-90"/>
      <point x="374" y="-98" type="curve" smooth="yes"/>
      <point x="346" y="-103"/>
      <point x="316" y="-105"/>
      <point x="287" y="-105" type="curve" smooth="yes"/>
      <point x="229" y="-105"/>
      <point x="190" y="-91"/>
      <point x="163" y="-72" type="curve" smooth="yes"/>
      <point x="121" y="-42"/>
      <point x="109" y="-3"/>
      <point x="109" y="34" type="curve"/>
      <point x="111" y="82"/>
      <point x="134" y="124"/>
      <point x="143" y="134" type="curve"/>
      <point x="127" y="150" type="line"/>
      <point x="107" y="126"/>
      <point x="95" y="102"/>
      <point x="87" y="76" type="curve" smooth="yes"/>
      <point x="70" y="26"/>
      <point x="70" y="-20"/>
      <point x="70" y="-33" type="curve" smooth="yes"/>
    </contour>
    <contour>
      <point x="403" y="0" type="move" name="caret_1"/>
    </contour>
    <contour>
      <point x="563" y="-200" type="move" name="bottom_1"/>
    </contour>
    <contour>
      <point x="557" y="510" type="move" name="top_1"/>
    </contour>
    <contour>
      <point x="266" y="106" type="move" name="top_2"/>
    </contour>
    <contour>
      <point x="271" y="-249" type="move" name="bottom_2"/>
    </contour>
  </outline>
</glyph>
<glyph name="uniFCFF" format="1">
  <advance width="886"/>
  <unicode hex="FCFF"/>
  <outline>
    <contour>
      <point x="826" y="281" type="line"/>
      <point x="792" y="284"/>
      <point x="762" y="288"/>
      <point x="735" y="293" type="curve" smooth="yes"/>
      <point x="691" y="301"/>
      <point x="654" y="312"/>
      <point x="616" y="326" type="curve" smooth="yes"/>
      <point x="551" y="352"/>
      <point x="520" y="373"/>
      <point x="482" y="373" type="curve" smooth="yes"/>
      <point x="459" y="373"/>
      <point x="412" y="362"/>
      <point x="402" y="348" type="curve"/>
      <point x="379" y="312"/>
      <point x="370" y="289"/>
      <point x="370" y="289" type="curve" smooth="yes"/>
      <point x="370" y="289"/>
      <point x="410" y="284"/>
      <point x="428" y="242" type="curve"/>
      <point x="440" y="247" type="line"/>
      <point x="440" y="270" type="line"/>
      <point x="445" y="276"/>
      <point x="454" y="283"/>
      <point x="470" y="278" type="curve" smooth="yes"/>
      <point x="564" y="251"/>
      <point x="585" y="246"/>
      <point x="601" y="242" type="curve"/>
      <point x="550" y="228"/>
      <point x="504" y="210"/>
      <point x="465" y="187" type="curve" smooth="yes"/>
      <point x="426" y="164"/>
      <point x="393" y="137"/>
      <point x="367" y="105" type="curve"/>
      <point x="338" y="21" type="line"/>
      <point x="349" y="0" type="line"/>
      <point x="412" y="-3"/>
      <point x="495" y="-10"/>
      <point x="492" y="-51" type="curve"/>
      <point x="468" y="-74"/>
      <point x="424" y="-90"/>
      <point x="374" y="-98" type="curve" smooth="yes"/>
      <point x="346" y="-103"/>
      <point x="316" y="-105"/>
      <point x="287" y="-105" type="curve" smooth="yes"/>
      <point x="229" y="-105"/>
      <point x="190" y="-91"/>
      <point x="163" y="-72" type="curve" smooth="yes"/>
      <point x="121" y="-42"/>
      <point x="109" y="-3"/>
      <point x="109" y="34" type="curve"/>
      <point x="111" y="82"/>
      <point x="134" y="124"/>
      <point x="143" y="134" type="curve"/>
      <point x="127" y="150" type="line"/>
      <point x="107" y="126"/>
      <point x="95" y="102"/>
      <point x="87" y="76" type="curve" smooth="yes"/>
      <point x="70" y="26"/>
      <point x="70" y="-20"/>
      <point x="70" y="-33" type="curve" smooth="yes"/>
      <point x="70" y="-51"/>
      <point x="78" y="-112"/>
      <point x="119" y="-159" type="curve" smooth="yes"/>
      <point x="148" y="-193"/>
      <point x="201" y="-219"/>
      <point x="271" y="-219" type="curve" smooth="yes"/>
      <point x="320" y="-219"/>
      <point x="377" y="-209"/>
      <point x="427" y="-190" type="curve" smooth="yes"/>
      <point x="483" y="-168"/>
      <point x="531" y="-134"/>
      <point x="545" y="-89" type="curve" smooth="yes"/>
      <point x="553" y="-63"/>
      <point x="555" y="-46"/>
      <point x="559" y="-25" type="curve" smooth="yes"/>
      <point x="567" y="13"/>
      <point x="520" y="60"/>
      <point x="434" y="74" type="curve"/>
      <point x="455" y="109"/>
      <point x="516" y="141"/>
      <point x="584" y="164" type="curve" smooth="yes"/>
      <point x="648" y="185"/>
      <point x="718" y="198"/>
      <point x="769" y="198" type="curve"/>
    </contour>
    <contour>
      <point x="443" y="0" type="move" name="caret_1"/>
    </contour>
    <contour>
      <point x="690" y="106" type="move" name="bottom_1"/>
    </contour>
    <contour>
      <point x="512" y="413" type="move" name="top_1"/>
    </contour>
    <contour>
      <point x="268" y="87" type="move" name="top_2"/>
    </contour>
    <contour>
      <point x="271" y="-249" type="move" name="bottom_2"/>
    </contour>
  </outline>
</glyph>
<glyph name="uniFD1B" format="1">
  <advance width="911"/>
  <unicode hex="FD1B"/>
  <outline>
    <contour>
      <point x="782" y="106"/>
      <point x="753" y="132"/>
      <point x="746" y="179" type="curve"/>
      <point x="753" y="180"/>
      <point x="766" y="179"/>
      <point x="774" y="178" type="curve"/>
      <point x="805" y="261" type="line"/>
      <point x="767" y="263"/>
      <point x="739" y="267"/>
      <point x="716" y="272" type="curve" smooth="yes"/>
      <point x="679" y="280"/>
      <point x="653" y="292"/>
      <point x="616" y="306" type="curve" smooth="yes"/>
      <point x="551" y="332"/>
      <point x="520" y="353"/>
      <point x="482" y="353" type="curve" smooth="yes"/>
      <point x="459" y="353"/>
      <point x="412" y="342"/>
      <point x="402" y="328" type="curve"/>
      <point x="379" y="292"/>
      <point x="370" y="269"/>
      <point x="370" y="269" type="curve" smooth="yes"/>
      <point x="370" y="269"/>
      <point x="410" y="264"/>
      <point x="428" y="222" type="curve"/>
      <point x="440" y="227" type="line"/>
      <point x="440" y="250" type="line"/>
      <point x="445" y="256"/>
      <point x="454" y="263"/>
      <point x="470" y="258" type="curve" smooth="yes"/>
      <point x="524" y="241"/>
      <point x="550" y="233"/>
      <point x="594" y="222" type="curve"/>
      <point x="540" y="213"/>
      <point x="493" y="199"/>
      <point x="453" y="177" type="curve" smooth="yes"/>
      <point x="421" y="160"/>
      <point x="392" y="136"/>
      <point x="367" y="105" type="curve"/>
      <point x="338" y="21" type="line"/>
      <point x="349" y="0" type="line"/>
      <point x="412" y="-3"/>
      <point x="495" y="-10"/>
      <point x="492" y="-51" type="curve"/>
      <point x="468" y="-74"/>
      <point x="424" y="-90"/>
      <point x="374" y="-98" type="curve" smooth="yes"/>
      <point x="346" y="-103"/>
      <point x="316" y="-105"/>
      <point x="287" y="-105" type="curve" smooth="yes"/>
      <point x="229" y="-105"/>
      <point x="190" y="-91"/>
      <point x="163" y="-72" type="curve" smooth="yes"/>
      <point x="121" y="-42"/>
      <point x="109" y="-3"/>
      <point x="109" y="34" type="curve"/>
      <point x="111" y="82"/>
      <point x="134" y="124"/>
      <point x="143" y="134" type="curve"/>
      <point x="127" y="150" type="line"/>
      <point x="107" y="126"/>
      <point x="95" y="102"/>
      <point x="87" y="76" type="curve" smooth="yes"/>
      <point x="70" y="26"/>
      <point x="70" y="-20"/>
      <point x="70" y="-33" type="curve" smooth="yes"/>
      <point x="70" y="-51"/>
      <point x="78" y="-112"/>
      <point x="119" y="-159" type="curve" smooth="yes"/>
      <point x="148" y="-193"/>
      <point x="201" y="-219"/>
      <point x="271" y="-219" type="curve" smooth="yes"/>
      <point x="320" y="-219"/>
      <point x="377" y="-209"/>
      <point x="427" y="-190" type="curve" smooth="yes"/>
      <point x="483" y="-168"/>
      <point x="531" y="-134"/>
      <point x="545" y="-89" type="curve" smooth="yes"/>
      <point x="553" y="-63"/>
      <point x="555" y="-46"/>
      <point x="559" y="-25" type="curve" smooth="yes"/>
      <point x="567" y="13"/>
      <point x="520" y="60"/>
      <point x="434" y="74" type="curve"/>
      <point x="452" y="104"/>
      <point x="496" y="129"/>
      <point x="549" y="146" type="curve" smooth="yes"/>
      <point x="598" y="163"/>
      <point x="654" y="174"/>
      <point x="703" y="177" type="curve"/>
      <point x="693" y="123"/>
      <point x="699" y="77"/>
      <point x="724" y="46" type="curve" smooth="yes"/>
      <point x="747" y="17"/>
      <point x="788" y="0"/>
      <point x="851" y="0" type="curve" smooth="yes"/>
      <point x="911" y="0" type="line"/>
      <point x="911" y="106" type="line"/>
      <point x="852" y="106" type="line" smooth="yes"/>
    </contour>
    <contour>
      <point x="456" y="0" type="move" name="caret_1"/>
    </contour>
    <contour>
      <point x="677" y="-34" type="move" name="bottom_1"/>
    </contour>
    <contour>
      <point x="502" y="393" type="move" name="top_1"/>
    </contour>
    <contour>
      <point x="267" y="106" type="move" name="top_2"/>
    </contour>
    <contour>
      <point x="271" y="-249" type="move" name="bottom_2"/>
    </contour>
  </outline>
</glyph>
<glyph name="uniFD2A" format="1">
  <advance width="804"/>
  <unicode hex="FD2A"/>
  <outline>
    <contour>
      <point x="-25" y="-203"/>
      <point x="-6" y="-237"/>
      <point x="1" y="-257" type="curve"/>
      <point x="4" y="-257" type="line"/>
      <point x="4" y="-200" type="line"/>
      <point x="19" y="-200"/>
      <point x="82" y="-195"/>
      <point x="122" y="-167" type="curve" smooth="yes"/>
      <point x="156" y="-144"/>
      <point x="183" y="-110"/>
      <point x="198" y="-69" type="curve" smooth="yes"/>
      <point x="209" y="-37"/>
      <point x="214" y="8"/>
      <point x="210" y="45" type="curve"/>
      <point x="250" y="53"/>
      <point x="266" y="56"/>
      <point x="307" y="63" type="curve"/>
      <point x="314" y="44"/>
      <point x="325" y="29"/>
      <point x="340" y="19" type="curve" smooth="yes"/>
      <point x="358" y="6"/>
      <point x="380" y="0"/>
      <point x="405" y="0" type="curve" smooth="yes"/>
      <point x="434" y="0"/>
      <point x="463" y="9"/>
      <point x="479" y="23" type="curve" smooth="yes"/>
      <point x="496" y="37"/>
      <point x="506" y="56"/>
      <point x="510" y="77" type="curve"/>
      <point x="514" y="63"/>
      <point x="519" y="48"/>
      <point x="528" y="36" type="curve" smooth="yes"/>
      <point x="540" y="21"/>
      <point x="561" y="6"/>
      <point x="594" y="6" type="curve" smooth="yes"/>
      <point x="638" y="6"/>
      <point x="671" y="27"/>
      <point x="676" y="67" type="curve"/>
      <point x="684" y="49"/>
      <point x="693" y="35"/>
      <point x="704" y="25" type="curve" smooth="yes"/>
      <point x="722" y="8"/>
      <point x="745" y="0"/>
      <point x="774" y="0" type="curve" smooth="yes"/>
      <point x="804" y="0" type="line"/>
      <point x="804" y="106" type="line"/>
      <point x="770" y="106" type="line" smooth="yes"/>
      <point x="731" y="106"/>
      <point x="708" y="124"/>
      <point x="694" y="148" type="curve"/>
      <point x="685" y="166"/>
      <point x="680" y="188"/>
      <point x="679" y="207" type="curve"/>
      <point x="665" y="215" type="line"/>
      <point x="665" y="190"/>
      <point x="662" y="163"/>
      <point x="651" y="144" type="curve"/>
      <point x="642" y="126"/>
      <point x="625" y="112"/>
      <point x="597" y="112" type="curve" smooth="yes"/>
      <point x="559" y="112"/>
      <point x="539" y="130"/>
      <point x="529" y="154" type="curve" smooth="yes"/>
      <point x="523" y="169"/>
      <point x="519" y="187"/>
      <point x="518" y="207" type="curve"/>
      <point x="503" y="215" type="line"/>
      <point x="503" y="209"/>
      <point x="503" y="183"/>
      <point x="490" y="159" type="curve"/>
      <point x="485" y="148"/>
      <point x="477" y="138"/>
      <point x="466" y="130" type="curve"/>
      <point x="453" y="119"/>
      <point x="433" y="112"/>
      <point x="407" y="112" type="curve" smooth="yes"/>
      <point x="390" y="112"/>
      <point x="373" y="115"/>
      <point x="360" y="122" type="curve" smooth="yes"/>
      <point x="347" y="129"/>
      <point x="337" y="141"/>
      <point x="331" y="158" type="curve"/>
      <point x="275" y="152"/>
      <point x="213" y="140"/>
      <point x="150" y="122" type="curve"/>
      <point x="150" y="42" type="line" smooth="yes"/>
      <point x="150" y="-11"/>
      <point x="129" y="-45"/>
      <point x="81" y="-72" type="curve" smooth="yes"/>
      <point x="37" y="-98"/>
      <point x="-37" y="-100"/>
      <point x="-70" y="-101" type="curve"/>
      <point x="-70" y="-206" type="line"/>
    </contour>
    <contour>
      <point x="402" y="0" type="move" name="caret_1"/>
    </contour>
    <contour>
      <point x="496" y="-34" type="move" name="bottom_1"/>
    </contour>
    <contour>
      <point x="503" y="245" type="move" name="top_1"/>
    </contour>
    <contour>
      <point x="150" y="162" type="move" name="top_2"/>
    </contour>
    <contour>
      <point x="24" y="-277" type="move" name="bottom_2"/>
    </contour>
  </outline>
</glyph>
<glyph name="uniFD3E" format="1">
  <advance width="422"/>
  <unicode hex="FD3E"/>
  <outline>
    <contour>
      <point x="50" y="294" type="line"/>
      <point x="84" y="260" type="line"/>
      <point x="84" y="212" type="line"/>
      <point x="114" y="212" type="line"/>
      <point x="141" y="53"/>
      <point x="249" y="-88"/>
      <point x="392" y="-137" type="curve"/>
      <point x="386" y="-113" type="line"/>
      <point x="275" y="-57"/>
      <point x="225" y="46"/>
      <point x="214" y="212" type="curve"/>
      <point x="247" y="212" type="line"/>
      <point x="247" y="260" type="line"/>
      <point x="281" y="294" type="line"/>
      <point x="247" y="328" type="line"/>
      <point x="247" y="376" type="line"/>
      <point x="215" y="376" type="line"/>
      <point x="230" y="523"/>
      <point x="285" y="633"/>
      <point x="386" y="701" type="curve"/>
      <point x="392" y="725" type="line"/>
      <point x="251" y="674"/>
      <point x="144" y="533"/>
      <point x="115" y="376" type="curve"/>
      <point x="84" y="376" type="line"/>
      <point x="84" y="328" type="line"/>
    </contour>
    <contour>
      <point x="151" y="318" type="line"/>
      <point x="158" y="324"/>
      <point x="163" y="330"/>
      <point x="165" y="336" type="curve"/>
      <point x="168" y="330"/>
      <point x="173" y="324"/>
      <point x="179" y="318" type="curve"/>
    </contour>
    <contour>
      <point x="186" y="307" type="line"/>
      <point x="195" y="294" type="line"/>
      <point x="186" y="280" type="line"/>
      <point x="145" y="280" type="line"/>
      <point x="135" y="294" type="line"/>
      <point x="145" y="307" type="line"/>
    </contour>
    <contour>
      <point x="234" y="257"/>
      <point x="204" y="227"/>
      <point x="167" y="226" type="curve"/>
      <point x="173" y="236"/>
      <point x="184" y="247"/>
      <point x="198" y="258" type="curve"/>
      <point x="198" y="260"/>
      <point x="196" y="261"/>
      <point x="197" y="264" type="curve"/>
      <point x="198" y="266"/>
      <point x="206" y="265"/>
      <point x="211" y="269" type="curve"/>
      <point x="225" y="294" type="line"/>
      <point x="211" y="319" type="line"/>
      <point x="206" y="323"/>
      <point x="198" y="321"/>
      <point x="197" y="324" type="curve"/>
      <point x="196" y="325"/>
      <point x="198" y="327"/>
      <point x="198" y="328" type="curve"/>
      <point x="185" y="339"/>
      <point x="173" y="351"/>
      <point x="167" y="362" type="curve"/>
      <point x="204" y="361"/>
      <point x="234" y="331"/>
      <point x="234" y="294" type="curve" smooth="yes"/>
    </contour>
    <contour>
      <point x="173" y="264"/>
      <point x="168" y="258"/>
      <point x="165" y="252" type="curve"/>
      <point x="163" y="258"/>
      <point x="158" y="264"/>
      <point x="150" y="270" type="curve"/>
      <point x="180" y="270" type="line"/>
    </contour>
    <contour>
      <point x="127" y="227"/>
      <point x="97" y="257"/>
      <point x="97" y="294" type="curve" smooth="yes"/>
      <point x="97" y="331"/>
      <point x="127" y="361"/>
      <point x="163" y="362" type="curve"/>
      <point x="158" y="351"/>
      <point x="146" y="339"/>
      <point x="132" y="328" type="curve"/>
      <point x="133" y="327"/>
      <point x="135" y="325"/>
      <point x="134" y="324" type="curve"/>
      <point x="132" y="321"/>
      <point x="125" y="323"/>
      <point x="120" y="319" type="curve"/>
      <point x="106" y="294" type="line"/>
      <point x="120" y="269" type="line"/>
      <point x="125" y="265"/>
      <point x="132" y="266"/>
      <point x="134" y="264" type="curve"/>
      <point x="135" y="261"/>
      <point x="133" y="260"/>
      <point x="132" y="258" type="curve"/>
      <point x="147" y="247"/>
      <point x="158" y="236"/>
      <point x="163" y="226" type="curve"/>
    </contour>
  </outline>
</glyph>
<glyph name="uniFD3F" format="1">
  <advance width="402"/>
  <unicode hex="FD3F"/>
  <outline>
    <contour>
      <point x="338" y="376" type="line"/>
      <point x="307" y="376" type="line"/>
      <point x="278" y="533"/>
      <point x="171" y="674"/>
      <point x="30" y="725" type="curve"/>
      <point x="36" y="701" type="line"/>
      <point x="137" y="633"/>
      <point x="192" y="523"/>
      <point x="207" y="376" type="curve"/>
      <point x="175" y="376" type="line"/>
      <point x="175" y="328" type="line"/>
      <point x="141" y="294" type="line"/>
      <point x="175" y="260" type="line"/>
      <point x="175" y="212" type="line"/>
      <point x="208" y="212" type="line"/>
      <point x="197" y="46"/>
      <point x="147" y="-57"/>
      <point x="36" y="-113" type="curve"/>
      <point x="30" y="-137" type="line"/>
      <point x="173" y="-88"/>
      <point x="281" y="53"/>
      <point x="308" y="212" type="curve"/>
      <point x="338" y="212" type="line"/>
      <point x="338" y="260" type="line"/>
      <point x="372" y="294" type="line"/>
      <point x="338" y="328" type="line"/>
    </contour>
    <contour>
      <point x="249" y="324"/>
      <point x="254" y="330"/>
      <point x="257" y="336" type="curve"/>
      <point x="259" y="330"/>
      <point x="264" y="324"/>
      <point x="271" y="318" type="curve"/>
      <point x="243" y="318" type="line"/>
    </contour>
    <contour>
      <point x="287" y="294" type="line"/>
      <point x="277" y="280" type="line"/>
      <point x="236" y="280" type="line"/>
      <point x="227" y="294" type="line"/>
      <point x="236" y="307" type="line"/>
      <point x="277" y="307" type="line"/>
    </contour>
    <contour>
      <point x="188" y="331"/>
      <point x="218" y="361"/>
      <point x="255" y="362" type="curve"/>
      <point x="249" y="351"/>
      <point x="237" y="339"/>
      <point x="224" y="328" type="curve"/>
      <point x="224" y="327"/>
      <point x="226" y="325"/>
      <point x="225" y="324" type="curve"/>
      <point x="224" y="321"/>
      <point x="216" y="323"/>
      <point x="211" y="319" type="curve"/>
      <point x="197" y="294" type="line"/>
      <point x="211" y="269" type="line"/>
      <point x="216" y="265"/>
      <point x="224" y="266"/>
      <point x="225" y="264" type="curve"/>
      <point x="226" y="261"/>
      <point x="224" y="260"/>
      <point x="224" y="258" type="curve"/>
      <point x="238" y="247"/>
      <point x="249" y="236"/>
      <point x="255" y="226" type="curve"/>
      <point x="218" y="227"/>
      <point x="188" y="257"/>
      <point x="188" y="294" type="curve" smooth="yes"/>
    </contour>
    <contour>
      <point x="272" y="270" type="line"/>
      <point x="264" y="264"/>
      <point x="259" y="258"/>
      <point x="257" y="252" type="curve"/>
      <point x="254" y="258"/>
      <point x="249" y="264"/>
      <point x="242" y="270" type="curve"/>
    </contour>
    <contour>
      <point x="264" y="236"/>
      <point x="275" y="247"/>
      <point x="290" y="258" type="curve"/>
      <point x="289" y="260"/>
      <point x="287" y="261"/>
      <point x="288" y="264" type="curve"/>
      <point x="290" y="266"/>
      <point x="297" y="265"/>
      <point x="302" y="269" type="curve"/>
      <point x="316" y="294" type="line"/>
      <point x="302" y="319" type="line"/>
      <point x="297" y="323"/>
      <point x="290" y="321"/>
      <point x="288" y="324" type="curve"/>
      <point x="287" y="325"/>
      <point x="289" y="327"/>
      <point x="290" y="328" type="curve"/>
      <point x="276" y="339"/>
      <point x="264" y="351"/>
      <point x="259" y="362" type="curve"/>
      <point x="295" y="361"/>
      <point x="325" y="331"/>
      <point x="325" y="294" type="curve" smooth="yes"/>
      <point x="325" y="257"/>
      <point x="295" y="227"/>
      <point x="259" y="226" type="curve"/>
    </contour>
  </outline>
</glyph>
<glyph name="uniFEA4" format="1">
  <advance width="546"/>
  <unicode hex="FEA4"/>
  <outline>
    <contour>
      <point x="418" y="106"/>
      <point x="396" y="121"/>
      <point x="386" y="146" type="curve"/>
      <point x="405" y="149"/>
      <point x="418" y="148"/>
      <point x="428" y="146" type="curve"/>
      <point x="476" y="235" type="line"/>
      <point x="433" y="236" type="line" smooth="yes"/>
      <point x="365" y="237"/>
      <point x="318" y="243"/>
      <point x="262" y="258" type="curve" smooth="yes"/>
      <point x="195" y="276"/>
      <point x="169" y="293"/>
      <point x="124" y="293" type="curve" smooth="yes"/>
      <point x="101" y="293"/>
      <point x="49" y="280"/>
      <point x="41" y="265" type="curve" smooth="yes"/>
      <point x="21" y="227"/>
      <point x="12" y="196"/>
      <point x="12" y="196" type="curve" smooth="yes"/>
      <point x="12" y="196"/>
      <point x="49" y="195"/>
      <point x="73" y="155" type="curve"/>
      <point x="84" y="160" type="line"/>
      <point x="84" y="185" type="line"/>
      <point x="88" y="192"/>
      <point x="96" y="199"/>
      <point x="113" y="196" type="curve" smooth="yes"/>
      <point x="243" y="174"/>
      <point x="257" y="172"/>
      <point x="257" y="172" type="curve"/>
      <point x="234" y="162"/>
      <point x="191" y="135"/>
      <point x="147" y="121" type="curve" smooth="yes"/>
      <point x="117" y="112"/>
      <point x="83" y="106"/>
      <point x="41" y="106" type="curve" smooth="yes"/>
      <point x="-17" y="106" type="line" smooth="yes"/>
      <point x="-46" y="106"/>
      <point x="-70" y="81"/>
      <point x="-70" y="52" type="curve" smooth="yes"/>
      <point x="-70" y="24"/>
      <point x="-46" y="0"/>
      <point x="-17" y="0" type="curve" smooth="yes"/>
      <point x="43" y="0" type="line" smooth="yes"/>
      <point x="108" y="0"/>
      <point x="162" y="21"/>
      <point x="207" y="47" type="curve" smooth="yes"/>
      <point x="255" y="75"/>
      <point x="281" y="99"/>
      <point x="304" y="116" type="curve" smooth="yes"/>
      <point x="319" y="127"/>
      <point x="335" y="134"/>
      <point x="350" y="139" type="curve"/>
      <point x="345" y="109"/>
      <point x="347" y="87"/>
      <point x="357" y="64" type="curve" smooth="yes"/>
      <point x="383" y="4"/>
      <point x="442" y="0"/>
      <point x="492" y="0" type="curve" smooth="yes"/>
      <point x="546" y="0" type="line"/>
      <point x="546" y="106" type="line"/>
      <point x="493" y="106" type="line" smooth="yes"/>
    </contour>
    <contour>
      <point x="144" y="336" type="move" name="top"/>
    </contour>
    <contour>
      <point x="104" y="-35" type="move" name="bottom"/>
    </contour>
  </outline>
</glyph>
<glyph name="uniFEAA" format="1">
  <advance width="463"/>
  <unicode hex="FEAA"/>
  <outline>
    <contour>
      <point x="394" y="106"/>
      <point x="360" y="141"/>
      <point x="337" y="187" type="curve" smooth="yes"/>
      <point x="309" y="241"/>
      <point x="296" y="309"/>
      <point x="288" y="354" type="curve"/>
      <point x="253" y="301" type="line"/>
      <point x="253" y="279"/>
      <point x="255" y="257"/>
      <point x="262" y="220" type="curve" smooth="yes"/>
      <point x="269" y="184"/>
      <point x="275" y="162"/>
      <point x="290" y="129" type="curve"/>
      <point x="278" y="119"/>
      <point x="263" y="113"/>
      <point x="247" y="108" type="curve" smooth="yes"/>
      <point x="222" y="101"/>
      <point x="196" y="97"/>
      <point x="169" y="97" type="curve" smooth="yes"/>
      <point x="134" y="97"/>
      <point x="93" y="109"/>
      <point x="73" y="139" type="curve"/>
      <point x="73" y="139"/>
      <point x="70" y="104"/>
      <point x="70" y="78" type="curve" smooth="yes"/>
      <point x="70" y="71"/>
      <point x="68" y="43"/>
      <point x="88" y="21" type="curve" smooth="yes"/>
      <point x="102" y="5"/>
      <point x="127" y="-8"/>
      <point x="171" y="-8" type="curve" smooth="yes"/>
      <point x="216" y="-8"/>
      <point x="249" y="1"/>
      <point x="272" y="17" type="curve" smooth="yes"/>
      <point x="294" y="32"/>
      <point x="308" y="53"/>
      <point x="314" y="77" type="curve"/>
      <point x="325" y="58"/>
      <point x="341" y="39"/>
      <point x="362" y="24" type="curve" smooth="yes"/>
      <point x="383" y="10"/>
      <point x="409" y="0"/>
      <point x="437" y="0" type="curve" smooth="yes"/>
      <point x="463" y="0" type="line"/>
      <point x="463" y="106" type="line"/>
      <point x="442" y="106" type="line" smooth="yes"/>
    </contour>
    <contour>
      <point x="225" y="356" type="move" name="top"/>
    </contour>
    <contour>
      <point x="191" y="-34" type="move" name="bottom"/>
    </contour>
  </outline>
</glyph>
<glyph name="uniFEAE" format="1">
  <advance width="365"/>
  <unicode hex="FEAE"/>
  <outline>
    <contour>
      <point x="241" y="106"/>
      <point x="209" y="125"/>
      <point x="186" y="178" type="curve"/>
      <point x="169" y="162" type="line"/>
      <point x="168" y="153"/>
      <point x="167" y="143"/>
      <point x="167" y="134" type="curve" smooth="yes"/>
      <point x="165" y="107"/>
      <point x="176" y="63"/>
      <point x="198" y="42" type="curve"/>
      <point x="192" y="-5"/>
      <point x="169" y="-39"/>
      <point x="133" y="-62" type="curve" smooth="yes"/>
      <point x="95" y="-85"/>
      <point x="43" y="-97"/>
      <point x="-20" y="-99" type="curve"/>
      <point x="-20" y="-204" type="line"/>
      <point x="25" y="-201"/>
      <point x="44" y="-235"/>
      <point x="51" y="-255" type="curve"/>
      <point x="54" y="-255" type="line"/>
      <point x="54" y="-198" type="line"/>
      <point x="116" y="-198"/>
      <point x="168" y="-177"/>
      <point x="204" y="-140" type="curve" smooth="yes"/>
      <point x="239" y="-104"/>
      <point x="259" y="-53"/>
      <point x="256" y="7" type="curve"/>
      <point x="268" y="2"/>
      <point x="287" y="0"/>
      <point x="311" y="0" type="curve" smooth="yes"/>
      <point x="365" y="0" type="line"/>
      <point x="365" y="106" type="line"/>
      <point x="289" y="106" type="line" smooth="yes"/>
    </contour>
    <contour>
      <point x="125" y="205" type="move" name="top"/>
    </contour>
    <contour>
      <point x="74" y="-263" type="move" name="bottom"/>
    </contour>
  </outline>
</glyph>
<glyph name="uniFEBA" format="1">
  <advance width="990"/>
  <unicode hex="FEBA"/>
  <outline>
    <contour>
      <point x="887" y="106"/>
      <point x="871" y="109"/>
      <point x="860" y="115" type="curve"/>
      <point x="869" y="132"/>
      <point x="876" y="152"/>
      <point x="883" y="176" type="curve"/>
      <point x="854" y="247"/>
      <point x="822" y="283"/>
      <point x="747" y="283" type="curve" smooth="yes"/>
      <point x="693" y="283"/>
      <point x="637" y="245"/>
      <point x="591" y="199" type="curve" smooth="yes"/>
      <point x="559" y="167"/>
      <point x="532" y="135"/>
      <point x="514" y="106" type="curve"/>
      <point x="486" y="108"/>
      <point x="464" y="112"/>
      <point x="447" y="122" type="curve" smooth="yes"/>
      <point x="429" y="132"/>
      <point x="416" y="149"/>
      <point x="406" y="178" type="curve"/>
      <point x="390" y="162" type="line"/>
      <point x="390" y="162"/>
      <point x="386" y="149"/>
      <point x="386" y="129" type="curve" smooth="yes"/>
      <point x="386" y="105"/>
      <point x="393" y="69"/>
      <point x="421" y="33" type="curve" smooth="yes"/>
      <point x="435" y="16"/>
      <point x="461" y="-16"/>
      <point x="468" y="-25" type="curve"/>
      <point x="463" y="-41"/>
      <point x="442" y="-85"/>
      <point x="374" y="-108" type="curve" smooth="yes"/>
      <point x="351" y="-115"/>
      <point x="322" y="-120"/>
      <point x="287" y="-120" type="curve" smooth="yes"/>
      <point x="229" y="-120"/>
      <point x="190" y="-106"/>
      <point x="163" y="-86" type="curve" smooth="yes"/>
      <point x="116" y="-52"/>
      <point x="109" y="-9"/>
      <point x="109" y="9" type="curve" smooth="yes"/>
      <point x="109" y="65"/>
      <point x="128" y="95"/>
      <point x="143" y="115" type="curve"/>
      <point x="127" y="131" type="line"/>
      <point x="107" y="108"/>
      <point x="95" y="83"/>
      <point x="87" y="57" type="curve" smooth="yes"/>
      <point x="70" y="7"/>
      <point x="70" y="-39"/>
      <point x="70" y="-51" type="curve" smooth="yes"/>
      <point x="70" y="-83"/>
      <point x="80" y="-144"/>
      <point x="126" y="-187" type="curve" smooth="yes"/>
      <point x="157" y="-217"/>
      <point x="205" y="-238"/>
      <point x="276" y="-238" type="curve" smooth="yes"/>
      <point x="335" y="-238"/>
      <point x="395" y="-222"/>
      <point x="439" y="-185" type="curve" smooth="yes"/>
      <point x="477" y="-152"/>
      <point x="502" y="-103"/>
      <point x="503" y="-32" type="curve" smooth="yes"/>
      <point x="503" y="-22"/>
      <point x="503" y="-11"/>
      <point x="502" y="0" type="curve"/>
      <point x="542" y="-6"/>
      <point x="572" y="-10"/>
      <point x="618" y="-10" type="curve" smooth="yes"/>
      <point x="754" y="-10"/>
      <point x="807" y="50"/>
      <point x="812" y="54" type="curve"/>
      <point x="815" y="46"/>
      <point x="835" y="0"/>
      <point x="903" y="0" type="curve" smooth="yes"/>
      <point x="990" y="0" type="line"/>
      <point x="990" y="106" type="line"/>
      <point x="907" y="106" type="line" smooth="yes"/>
    </contour>
    <contour>
      <point x="556" y="102"/>
      <point x="575" y="130"/>
      <point x="606" y="155" type="curve" smooth="yes"/>
      <point x="634" y="177"/>
      <point x="673" y="199"/>
      <point x="721" y="199" type="curve" smooth="yes"/>
      <point x="747" y="199"/>
      <point x="767" y="190"/>
      <point x="780" y="180" type="curve" smooth="yes"/>
      <point x="799" y="165"/>
      <point x="807" y="147"/>
      <point x="807" y="147" type="curve"/>
      <point x="805" y="143"/>
      <point x="777" y="102"/>
      <point x="643" y="102" type="curve" smooth="yes"/>
      <point x="556" y="102" type="line" smooth="yes"/>
    </contour>
    <contour>
      <point x="728" y="310" type="move" name="top"/>
    </contour>
    <contour>
      <point x="276" y="-264" type="move" name="bottom"/>
    </contour>
  </outline>
</glyph>
<glyph name="uniFEBB" format="1">
  <advance width="633"/>
  <unicode hex="FEBB"/>
  <outline>
    <contour>
      <point x="562" y="206"/>
      <point x="549" y="231"/>
      <point x="531" y="249" type="curve" smooth="yes"/>
      <point x="508" y="271"/>
      <point x="478" y="283"/>
      <point x="438" y="283" type="curve" smooth="yes"/>
      <point x="385" y="283"/>
      <point x="330" y="247"/>
      <point x="286" y="204" type="curve" smooth="yes"/>
      <point x="253" y="172"/>
      <point x="226" y="135"/>
      <point x="208" y="106" type="curve"/>
      <point x="189" y="106"/>
      <point x="165" y="113"/>
      <point x="153" y="129" type="curve" smooth="yes"/>
      <point x="145" y="140"/>
      <point x="143" y="156"/>
      <point x="143" y="176" type="curve" smooth="yes"/>
      <point x="143" y="176"/>
      <point x="128" y="184"/>
      <point x="128" y="184" type="curve"/>
      <point x="126" y="175"/>
      <point x="122" y="152"/>
      <point x="106" y="133" type="curve" smooth="yes"/>
      <point x="93" y="118"/>
      <point x="72" y="106"/>
      <point x="36" y="106" type="curve" smooth="yes"/>
      <point x="36" y="106"/>
      <point x="-17" y="106"/>
      <point x="-17" y="106" type="curve" smooth="yes"/>
      <point x="-46" y="106"/>
      <point x="-70" y="82"/>
      <point x="-70" y="53" type="curve" smooth="yes"/>
      <point x="-70" y="24"/>
      <point x="-46" y="0"/>
      <point x="-17" y="0" type="curve" smooth="yes"/>
      <point x="18" y="0" type="line" smooth="yes"/>
      <point x="101" y="0"/>
      <point x="119" y="44"/>
      <point x="123" y="55" type="curve"/>
      <point x="133" y="37"/>
      <point x="139" y="26"/>
      <point x="163" y="12" type="curve"/>
      <point x="161" y="8"/>
      <point x="155" y="-5"/>
      <point x="149" y="-17" type="curve"/>
      <point x="170" y="-39" type="line"/>
      <point x="192" y="0" type="line"/>
      <point x="236" y="-6"/>
      <point x="274" y="-10"/>
      <point x="309" y="-10" type="curve" smooth="yes"/>
      <point x="396" y="-10"/>
      <point x="460" y="18"/>
      <point x="501" y="53" type="curve" smooth="yes"/>
      <point x="541" y="87"/>
      <point x="557" y="119"/>
      <point x="573" y="176" type="curve"/>
    </contour>
    <contour>
      <point x="439" y="199"/>
      <point x="458" y="190"/>
      <point x="472" y="179" type="curve" smooth="yes"/>
      <point x="491" y="165"/>
      <point x="498" y="147"/>
      <point x="498" y="147" type="curve"/>
      <point x="495" y="144"/>
      <point x="483" y="127"/>
      <point x="442" y="115" type="curve" smooth="yes"/>
      <point x="418" y="108"/>
      <point x="383" y="102"/>
      <point x="334" y="102" type="curve" smooth="yes"/>
      <point x="250" y="102" type="line" smooth="yes"/>
      <point x="250" y="102"/>
      <point x="267" y="132"/>
      <point x="299" y="156" type="curve" smooth="yes"/>
      <point x="326" y="178"/>
      <point x="365" y="199"/>
      <point x="412" y="199" type="curve" smooth="yes"/>
    </contour>
    <contour>
      <point x="418" y="312" type="move" name="top"/>
    </contour>
    <contour>
      <point x="309" y="-35" type="move" name="bottom"/>
    </contour>
  </outline>
</glyph>
<glyph name="uniFECA" format="1">
  <advance width="559"/>
  <unicode hex="FECA"/>
  <outline>
    <contour>
      <point x="272" y="41"/>
      <point x="250" y="30"/>
      <point x="306" y="57" type="curve"/>
      <point x="324" y="26"/>
      <point x="351" y="0"/>
      <point x="436" y="0" type="curve" smooth="yes"/>
      <point x="559" y="0" type="line"/>
      <point x="559" y="106" type="line"/>
      <point x="452" y="106" type="line" smooth="yes"/>
      <point x="419" y="106"/>
      <point x="409" y="106"/>
      <point x="396" y="111" type="curve"/>
      <point x="417" y="130"/>
      <point x="423" y="136"/>
      <point x="442" y="152" type="curve"/>
      <point x="456" y="239" type="line"/>
      <point x="426" y="263"/>
      <point x="372" y="285"/>
      <point x="309" y="285" type="curve" smooth="yes"/>
      <point x="257" y="285"/>
      <point x="210" y="270"/>
      <point x="171" y="239" type="curve"/>
      <point x="158" y="168" type="line"/>
      <point x="187" y="177"/>
      <point x="210" y="174"/>
      <point x="231" y="159" type="curve" smooth="yes"/>
      <point x="245" y="149"/>
      <point x="258" y="135"/>
      <point x="272" y="115" type="curve"/>
      <point x="252" y="106"/>
      <point x="226" y="93"/>
      <point x="206" y="81" type="curve" smooth="yes"/>
      <point x="177" y="64"/>
      <point x="138" y="34"/>
      <point x="111" y="-4" type="curve" smooth="yes"/>
      <point x="86" y="-39"/>
      <point x="70" y="-82"/>
      <point x="70" y="-138" type="curve" smooth="yes"/>
      <point x="70" y="-219"/>
      <point x="104" y="-278"/>
      <point x="150" y="-315" type="curve" smooth="yes"/>
      <point x="204" y="-359"/>
      <point x="275" y="-370"/>
      <point x="350" y="-370" type="curve" smooth="yes"/>
      <point x="398" y="-370" type="line"/>
      <point x="486" y="-269" type="line"/>
      <point x="400" y="-269" type="line" smooth="yes"/>
      <point x="315" y="-269"/>
      <point x="253" y="-255"/>
      <point x="210" y="-233" type="curve" smooth="yes"/>
      <point x="161" y="-208"/>
      <point x="131" y="-170"/>
      <point x="131" y="-124" type="curve" smooth="yes"/>
      <point x="131" y="-91"/>
      <point x="146" y="-59"/>
      <point x="165" y="-36" type="curve" smooth="yes"/>
      <point x="185" y="-12"/>
      <point x="213" y="9"/>
      <point x="244" y="26" type="curve" smooth="yes"/>
    </contour>
    <contour>
      <point x="371" y="181"/>
      <point x="352" y="168"/>
      <point x="332" y="156" type="curve"/>
      <point x="317" y="184"/>
      <point x="295" y="201"/>
      <point x="281" y="211" type="curve"/>
      <point x="315" y="215"/>
      <point x="350" y="211"/>
      <point x="388" y="197" type="curve"/>
    </contour>
    <contour>
      <point x="304" y="312" type="move" name="top"/>
    </contour>
    <contour>
      <point x="290" y="-396" type="move" name="bottom"/>
    </contour>
    <contour>
      <point x="303" y="-113" type="move" name="center"/>
    </contour>
  </outline>
</glyph>
<glyph name="uniFEEB" format="1">
  <advance width="434"/>
  <unicode hex="FEEB"/>
  <outline>
    <contour>
      <point x="237" y="325"/>
      <point x="144" y="368"/>
      <point x="134" y="393" type="curve"/>
      <point x="134" y="393"/>
      <point x="134" y="358"/>
      <point x="134" y="344" type="curve" smooth="yes"/>
      <point x="134" y="329"/>
      <point x="132" y="317"/>
      <point x="143" y="303" type="curve"/>
      <point x="87" y="280"/>
      <point x="58" y="222"/>
      <point x="58" y="178" type="curve" smooth="yes"/>
      <point x="58" y="154"/>
      <point x="66" y="131"/>
      <point x="83" y="112" type="curve"/>
      <point x="69" y="108"/>
      <point x="51" y="106"/>
      <point x="33" y="106" type="curve" smooth="yes"/>
      <point x="-17" y="106" type="line" smooth="yes"/>
      <point x="-46" y="106"/>
      <point x="-70" y="81"/>
      <point x="-70" y="53" type="curve" smooth="yes"/>
      <point x="-70" y="24"/>
      <point x="-46" y="0"/>
      <point x="-17" y="0" type="curve" smooth="yes"/>
      <point x="8" y="0" type="line" smooth="yes"/>
      <point x="48" y="0"/>
      <point x="83" y="1"/>
      <point x="114" y="9" type="curve" smooth="yes"/>
      <point x="141" y="16"/>
      <point x="164" y="27"/>
      <point x="186" y="46" type="curve"/>
      <point x="208" y="39"/>
      <point x="247" y="17"/>
      <point x="291" y="-10" type="curve"/>
      <point x="310" y="-10"/>
      <point x="326" y="1"/>
      <point x="338" y="16" type="curve" smooth="yes"/>
      <point x="357" y="38"/>
      <point x="367" y="67"/>
      <point x="369" y="76" type="curve" smooth="yes"/>
      <point x="380" y="137"/>
      <point x="372" y="181"/>
      <point x="356" y="214" type="curve" smooth="yes"/>
      <point x="333" y="262"/>
      <point x="292" y="286"/>
      <point x="264" y="306" type="curve" smooth="yes"/>
    </contour>
    <contour>
      <point x="121" y="175"/>
      <point x="101" y="188"/>
      <point x="94" y="209" type="curve"/>
      <point x="108" y="232"/>
      <point x="129" y="248"/>
      <point x="152" y="248" type="curve" smooth="yes"/>
      <point x="175" y="248"/>
      <point x="205" y="230"/>
      <point x="211" y="196" type="curve"/>
      <point x="201" y="179"/>
      <point x="187" y="164"/>
      <point x="171" y="152" type="curve"/>
    </contour>
    <contour>
      <point x="275" y="96"/>
      <point x="268" y="100"/>
      <point x="234" y="119" type="curve"/>
      <point x="255" y="151"/>
      <point x="258" y="181"/>
      <point x="238" y="232" type="curve"/>
      <point x="245" y="226"/>
      <point x="270" y="211"/>
      <point x="294" y="187" type="curve" smooth="yes"/>
      <point x="310" y="171"/>
      <point x="326" y="151"/>
      <point x="334" y="128" type="curve"/>
      <point x="329" y="87"/>
      <point x="301" y="84"/>
      <point x="301" y="84" type="curve"/>
    </contour>
    <contour>
      <point x="164" y="423" type="move" name="top"/>
    </contour>
    <contour>
      <point x="171" y="-44" type="move" name="bottom"/>
    </contour>
  </outline>
</glyph>
<glyph name="uniFEEE" format="1">
  <advance width="382"/>
  <unicode hex="FEEE"/>
  <outline>
    <contour>
      <point x="277" y="106" type="line"/>
      <point x="270" y="147"/>
      <point x="256" y="184"/>
      <point x="237" y="210" type="curve" smooth="yes"/>
      <point x="217" y="237"/>
      <point x="191" y="254"/>
      <point x="161" y="254" type="curve" smooth="yes"/>
      <point x="111" y="254"/>
      <point x="81" y="211"/>
      <point x="78" y="180" type="curve" smooth="yes"/>
      <point x="69" y="92" type="line" smooth="yes"/>
      <point x="67" y="76"/>
      <point x="69" y="50"/>
      <point x="87" y="30" type="curve" smooth="yes"/>
      <point x="102" y="13"/>
      <point x="127" y="0"/>
      <point x="169" y="0" type="curve" smooth="yes"/>
      <point x="220" y="0" type="line"/>
      <point x="207" y="-33"/>
      <point x="185" y="-55"/>
      <point x="161" y="-69" type="curve" smooth="yes"/>
      <point x="117" y="-95"/>
      <point x="63" y="-97"/>
      <point x="30" y="-98" type="curve"/>
      <point x="30" y="-203" type="line"/>
      <point x="74" y="-200"/>
      <point x="93" y="-234"/>
      <point x="101" y="-254" type="curve"/>
      <point x="104" y="-254" type="line"/>
      <point x="104" y="-197" type="line"/>
      <point x="118" y="-197"/>
      <point x="161" y="-192"/>
      <point x="202" y="-165" type="curve" smooth="yes"/>
      <point x="241" y="-137"/>
      <point x="277" y="-88"/>
      <point x="282" y="0" type="curve"/>
      <point x="382" y="0" type="line"/>
      <point x="382" y="106" type="line"/>
    </contour>
    <contour>
      <point x="105" y="106"/>
      <point x="104" y="132"/>
      <point x="104" y="132" type="curve" smooth="yes"/>
      <point x="104" y="132"/>
      <point x="121" y="166"/>
      <point x="150" y="166" type="curve" smooth="yes"/>
      <point x="187" y="166"/>
      <point x="200" y="125"/>
      <point x="205" y="106" type="curve"/>
      <point x="138" y="106" type="line" smooth="yes"/>
    </contour>
    <contour>
      <point x="141" y="284" type="move" name="top"/>
    </contour>
    <contour>
      <point x="131" y="-279" type="move" name="bottom"/>
    </contour>
    <contour>
      <point x="7" y="-3" type="move" name="center"/>
    </contour>
  </outline>
</glyph>
<glyph name="uniFEF0" format="1">
  <advance width="555"/>
  <unicode hex="FEF0"/>
  <outline>
    <contour>
      <point x="370" y="106" type="line"/>
      <point x="344" y="21" type="line"/>
      <point x="355" y="0" type="line"/>
      <point x="391" y="0" type="line" smooth="yes"/>
      <point x="438" y="0"/>
      <point x="456" y="-4"/>
      <point x="469" y="-14" type="curve"/>
      <point x="432" y="-50"/>
      <point x="367" y="-68"/>
      <point x="287" y="-68" type="curve" smooth="yes"/>
      <point x="229" y="-68"/>
      <point x="190" y="-54"/>
      <point x="163" y="-35" type="curve" smooth="yes"/>
      <point x="121" y="-5"/>
      <point x="109" y="34"/>
      <point x="109" y="71" type="curve" smooth="yes"/>
      <point x="111" y="119"/>
      <point x="134" y="161"/>
      <point x="143" y="171" type="curve"/>
      <point x="127" y="187" type="line"/>
      <point x="107" y="163"/>
      <point x="95" y="139"/>
      <point x="87" y="113" type="curve" smooth="yes"/>
      <point x="70" y="63"/>
      <point x="70" y="17"/>
      <point x="70" y="4" type="curve" smooth="yes"/>
      <point x="70" y="-14"/>
      <point x="78" y="-75"/>
      <point x="119" y="-122" type="curve" smooth="yes"/>
      <point x="148" y="-156"/>
      <point x="201" y="-182"/>
      <point x="271" y="-182" type="curve" smooth="yes"/>
      <point x="312" y="-182"/>
      <point x="365" y="-171"/>
      <point x="408" y="-152" type="curve" smooth="yes"/>
      <point x="469" y="-125"/>
      <point x="519" y="-82"/>
      <point x="519" y="-33" type="curve" smooth="yes"/>
      <point x="519" y="-7"/>
      <point x="511" y="0"/>
      <point x="511" y="0" type="curve"/>
      <point x="555" y="0" type="line"/>
      <point x="555" y="106" type="line"/>
    </contour>
    <contour>
      <point x="278" y="161" type="move" name="top"/>
    </contour>
    <contour>
      <point x="266" y="-207" type="move" name="bottom"/>
    </contour>
  </outline>
</glyph>
<glyph name="uniFEFB" format="1">
  <advance width="544"/>
  <unicode hex="FEFB"/>
  <outline>
    <contour>
      <point x="462" y="617"/>
      <point x="447" y="643"/>
      <point x="431" y="682" type="curve"/>
      <point x="407" y="679"/>
      <point x="393" y="662"/>
      <point x="385" y="643" type="curve" smooth="yes"/>
      <point x="373" y="614"/>
      <point x="375" y="582"/>
      <point x="375" y="582" type="curve"/>
      <point x="390" y="567" type="line"/>
      <point x="396" y="550"/>
      <point x="409" y="499"/>
      <point x="410" y="432" type="curve" smooth="yes"/>
      <point x="411" y="384"/>
      <point x="406" y="328"/>
      <point x="388" y="276" type="curve"/>
      <point x="369" y="319"/>
      <point x="326" y="388"/>
      <point x="271" y="455" type="curve" smooth="yes"/>
      <point x="217" y="521"/>
      <point x="147" y="590"/>
      <point x="78" y="630" type="curve"/>
      <point x="50" y="528" type="line"/>
      <point x="132" y="442" type="line"/>
      <point x="139" y="469" type="line"/>
      <point x="186" y="428"/>
      <point x="212" y="400"/>
      <point x="240" y="367" type="curve" smooth="yes"/>
      <point x="287" y="311"/>
      <point x="314" y="273"/>
      <point x="349" y="209" type="curve"/>
      <point x="332" y="183"/>
      <point x="303" y="158"/>
      <point x="272" y="140" type="curve" smooth="yes"/>
      <point x="243" y="123"/>
      <point x="210" y="111"/>
      <point x="177" y="106" type="curve"/>
      <point x="155" y="106" type="line"/>
      <point x="128" y="-4" type="line"/>
      <point x="128" y="-4"/>
      <point x="140" y="-4"/>
      <point x="249" y="-2" type="curve" smooth="yes"/>
      <point x="394" y="0"/>
      <point x="410" y="1"/>
      <point x="410" y="1" type="curve"/>
      <point x="442" y="132" type="line"/>
      <point x="447" y="152"/>
      <point x="429" y="193"/>
      <point x="417" y="219" type="curve"/>
      <point x="442" y="259"/>
      <point x="458" y="301"/>
      <point x="467" y="347" type="curve" smooth="yes"/>
      <point x="478" y="403"/>
      <point x="478" y="464"/>
      <point x="472" y="532" type="curve" smooth="yes"/>
      <point x="469" y="564"/>
      <point x="472" y="574"/>
      <point x="494" y="593" type="curve"/>
    </contour>
    <contour>
      <point x="331" y="121"/>
      <point x="356" y="144"/>
      <point x="374" y="163" type="curve"/>
      <point x="386" y="138"/>
      <point x="393" y="119"/>
      <point x="396" y="111" type="curve"/>
      <point x="372" y="106"/>
      <point x="299" y="106"/>
      <point x="299" y="106" type="curve"/>
    </contour>
    <contour>
      <point x="272" y="0" type="move" name="caret_1"/>
    </contour>
    <contour>
      <point x="131" y="-34" type="move" name="bottom_1"/>
    </contour>
    <contour>
      <point x="416" y="709" type="move" name="top_1"/>
    </contour>
    <contour>
      <point x="62" y="662" type="move" name="top_2"/>
    </contour>
    <contour>
      <point x="356" y="-34" type="move" name="bottom_2"/>
    </contour>
  </outline>
</glyph>
<glyph name="uniFEFC" format="1">
  <advance width="684"/>
  <unicode hex="FEFC"/>
  <outline>
    <contour>
      <point x="613" y="106"/>
      <point x="591" y="112"/>
      <point x="577" y="133" type="curve" smooth="yes"/>
      <point x="563" y="153"/>
      <point x="555" y="187"/>
      <point x="551" y="242" type="curve" smooth="yes"/>
      <point x="547" y="294"/>
      <point x="534" y="509"/>
      <point x="524" y="681" type="curve"/>
      <point x="456" y="611" type="line"/>
      <point x="459" y="563"/>
      <point x="464" y="476"/>
      <point x="467" y="429" type="curve" smooth="yes"/>
      <point x="469" y="384"/>
      <point x="461" y="337"/>
      <point x="448" y="297" type="curve" smooth="yes"/>
      <point x="436" y="263"/>
      <point x="421" y="233"/>
      <point x="403" y="215" type="curve"/>
      <point x="396" y="278"/>
      <point x="357" y="369"/>
      <point x="295" y="446" type="curve" smooth="yes"/>
      <point x="253" y="498"/>
      <point x="200" y="544"/>
      <point x="139" y="572" type="curve"/>
      <point x="112" y="469" type="line"/>
      <point x="194" y="384" type="line"/>
      <point x="201" y="410" type="line"/>
      <point x="232" y="389"/>
      <point x="263" y="358"/>
      <point x="290" y="321" type="curve" smooth="yes"/>
      <point x="320" y="280"/>
      <point x="349" y="224"/>
      <point x="362" y="173" type="curve"/>
      <point x="331" y="135"/>
      <point x="284" y="101"/>
      <point x="224" y="69" type="curve" smooth="yes"/>
      <point x="175" y="41"/>
      <point x="117" y="15"/>
      <point x="50" y="-12" type="curve"/>
      <point x="223" y="-22" type="line"/>
      <point x="290" y="-1"/>
      <point x="347" y="30"/>
      <point x="390" y="70" type="curve" smooth="yes"/>
      <point x="438" y="115"/>
      <point x="469" y="171"/>
      <point x="478" y="236" type="curve"/>
      <point x="482" y="179" type="line"/>
      <point x="483" y="164"/>
      <point x="482" y="114"/>
      <point x="499" y="70" type="curve" smooth="yes"/>
      <point x="514" y="33"/>
      <point x="542" y="0"/>
      <point x="596" y="0" type="curve" smooth="yes"/>
      <point x="684" y="0" type="line"/>
      <point x="684" y="106" type="line"/>
      <point x="644" y="106" type="line" smooth="yes"/>
    </contour>
    <contour>
      <point x="332" y="0" type="move" name="caret_1"/>
    </contour>
    <contour>
      <point x="222" y="-42" type="move" name="bottom_1"/>
    </contour>
    <contour>
      <point x="482" y="712" type="move" name="top_1"/>
    </contour>
    <contour>
      <point x="142" y="611" type="move" name="top_2"/>
    </contour>
    <contour>
      <point x="467" y="-34" type="move" name="bottom_2"/>
    </contour>
  </outline>
</glyph>
<glyph name="dotcenter-ar" format="1">
  <advance width="0"/>
  <outline>
    <contour>
      <point x="-24" y="205"/>
      <point x="-49" y="177"/>
      <point x="-64" y="160" type="curve"/>
      <point x="-43" y="148"/>
      <point x="-25" y="131"/>
      <point x="0" y="106" type="curve"/>
      <point x="28" y="133"/>
      <point x="39" y="149"/>
      <point x="52" y="167" type="curve"/>
      <point x="40" y="186"/>
      <point x="12" y="210"/>
      <point x="-11" y="222" type="curve"/>
    </contour>
    <contour>
      <point x="-6" y="164" type="move" name="_center"/>
    </contour>
  </outline>
</glyph>
<glyph name="gafar.init.001" format="1">
  <advance width="874"/>
  <outline>
    <contour>
      <point x="598" y="300"/>
      <point x="525" y="302"/>
      <point x="383" y="302" type="curve" smooth="yes"/>
      <point x="210" y="302"/>
      <point x="115" y="305"/>
      <point x="58" y="360" type="curve"/>
      <point x="86" y="441"/>
      <point x="156" y="444"/>
      <point x="227" y="444" type="curve" smooth="yes"/>
      <point x="332" y="444" type="line"/>
      <point x="332" y="387" type="line"/>
      <point x="335" y="387" type="line"/>
      <point x="341" y="408"/>
      <point x="357" y="444"/>
      <point x="403" y="444" type="curve"/>
      <point x="433" y="543" type="line"/>
      <point x="252" y="543" type="line" smooth="yes"/>
      <point x="157" y="543"/>
      <point x="89" y="506"/>
      <point x="52" y="457" type="curve" smooth="yes"/>
      <point x="23" y="419"/>
      <point x="12" y="376"/>
      <point x="12" y="341" type="curve" smooth="yes"/>
      <point x="12" y="285"/>
      <point x="40" y="250"/>
      <point x="92" y="229" type="curve" smooth="yes"/>
      <point x="155" y="203"/>
      <point x="263" y="196"/>
      <point x="342" y="196" type="curve" smooth="yes"/>
      <point x="427" y="196"/>
      <point x="579" y="204"/>
      <point x="653" y="185" type="curve" smooth="yes"/>
      <point x="725" y="166"/>
      <point x="761" y="122"/>
      <point x="744" y="65" type="curve"/>
      <point x="696" y="90"/>
      <point x="639" y="108"/>
      <point x="380" y="108" type="curve" smooth="yes"/>
      <point x="293" y="108"/>
      <point x="165" y="106"/>
      <point x="136" y="106" type="curve" smooth="yes"/>
      <point x="-17" y="106" type="line" smooth="yes"/>
      <point x="-46" y="106"/>
      <point x="-70" y="82"/>
      <point x="-70" y="53" type="curve" smooth="yes"/>
      <point x="-70" y="24"/>
      <point x="-46" y="0"/>
      <point x="-17" y="0" type="curve" smooth="yes"/>
      <point x="132" y="0" type="line" smooth="yes"/>
      <point x="152" y="0"/>
      <point x="416" y="5"/>
      <point x="492" y="5" type="curve" smooth="yes"/>
      <point x="581" y="5"/>
      <point x="631" y="-2"/>
      <point x="674" y="-13" type="curve" smooth="yes"/>
      <point x="716" y="-24"/>
      <point x="746" y="-38"/>
      <point x="774" y="-55" type="curve"/>
      <point x="782" y="-25"/>
      <point x="798" y="33"/>
      <point x="805" y="60" type="curve" smooth="yes"/>
      <point x="823" y="128"/>
      <point x="812" y="184"/>
      <point x="781" y="224" type="curve" smooth="yes"/>
      <point x="755" y="258"/>
      <point x="713" y="282"/>
      <point x="651" y="292" type="curve" smooth="yes"/>
    </contour>
    <contour>
      <point x="166" y="574"/>
      <point x="206" y="576"/>
      <point x="271" y="576" type="curve" smooth="yes"/>
      <point x="404" y="576" type="line"/>
      <point x="414" y="613" type="line"/>
      <point x="218" y="613" type="line" smooth="yes"/>
      <point x="166" y="613"/>
      <point x="131" y="597"/>
      <point x="109" y="578" type="curve" smooth="yes"/>
      <point x="84" y="556"/>
      <point x="73" y="532"/>
      <point x="71" y="525" type="curve"/>
      <point x="79" y="517" type="line"/>
      <point x="96" y="541"/>
      <point x="111" y="555"/>
      <point x="139" y="563" type="curve" smooth="yes"/>
    </contour>
    <contour>
      <point x="335" y="641" type="move" name="top"/>
    </contour>
    <contour>
      <point x="332" y="-34" type="move" name="bottom"/>
    </contour>
  </outline>
</glyph>
<glyph name="gafbarar" format="1">
  <advance width="0"/>
  <outline>
    <contour>
      <point x="125" y="870" type="line"/>
      <point x="125" y="870"/>
      <point x="-96" y="758"/>
      <point x="-96" y="758" type="curve"/>
      <point x="-130" y="705" type="line"/>
      <point x="-123" y="700" type="line"/>
      <point x="-83" y="727"/>
      <point x="82" y="804"/>
      <point x="116" y="828" type="curve"/>
    </contour>
    <contour>
      <point x="-2" y="894" type="move" name="top"/>
    </contour>
    <contour>
      <point x="-2" y="700" type="move" name="_top"/>
    </contour>
  </outline>
</glyph>
<glyph name="uni062D06450649" format="1">
  <advance width="1134"/>
  <outline>
    <contour>
      <point x="70" y="-81"/>
      <point x="78" y="-142"/>
      <point x="119" y="-189" type="curve" smooth="yes"/>
      <point x="148" y="-223"/>
      <point x="201" y="-249"/>
      <point x="271" y="-249" type="curve" smooth="yes"/>
      <point x="320" y="-249"/>
      <point x="377" y="-239"/>
      <point x="427" y="-220" type="curve" smooth="yes"/>
      <point x="483" y="-198"/>
      <point x="534" y="-165"/>
      <point x="545" y="-119" type="curve" smooth="yes"/>
      <point x="551" y="-93"/>
      <point x="554" y="-79"/>
      <point x="558" y="-58" type="curve" smooth="yes"/>
      <point x="565" y="-23"/>
      <point x="522" y="10"/>
      <point x="476" y="26" type="curve"/>
      <point x="522" y="42"/>
      <point x="545" y="66"/>
      <point x="557" y="97" type="curve"/>
      <point x="557" y="51"/>
      <point x="592" y="11"/>
      <point x="643" y="11" type="curve" smooth="yes"/>
      <point x="679" y="11"/>
      <point x="706" y="34"/>
      <point x="706" y="34" type="curve"/>
      <point x="715" y="64"/>
      <point x="722" y="86"/>
      <point x="731" y="131" type="curve" smooth="yes"/>
      <point x="739" y="169"/>
      <point x="731" y="202"/>
      <point x="698" y="226" type="curve"/>
      <point x="732" y="247"/>
      <point x="776" y="264"/>
      <point x="824" y="275" type="curve" smooth="yes"/>
      <point x="890" y="290"/>
      <point x="962" y="295"/>
      <point x="1022" y="291" type="curve"/>
      <point x="1074" y="386" type="line"/>
      <point x="1050" y="386" type="line" smooth="yes"/>
      <point x="979" y="386"/>
      <point x="916" y="402"/>
      <point x="854" y="428" type="curve" smooth="yes"/>
      <point x="784" y="457"/>
      <point x="755" y="475"/>
      <point x="710" y="475" type="curve" smooth="yes"/>
      <point x="687" y="475"/>
      <point x="635" y="462"/>
      <point x="627" y="447" type="curve" smooth="yes"/>
      <point x="607" y="409"/>
      <point x="598" y="378"/>
      <point x="598" y="378" type="curve" smooth="yes"/>
      <point x="598" y="378"/>
      <point x="635" y="377"/>
      <point x="659" y="337" type="curve"/>
      <point x="670" y="342" type="line"/>
      <point x="670" y="367" type="line"/>
      <point x="674" y="374"/>
      <point x="682" y="383"/>
      <point x="699" y="378" type="curve" smooth="yes"/>
      <point x="745" y="366"/>
      <point x="781" y="354"/>
      <point x="826" y="339" type="curve"/>
      <point x="782" y="332"/>
      <point x="731" y="319"/>
      <point x="686" y="300" type="curve" smooth="yes"/>
      <point x="662" y="289"/>
      <point x="640" y="277"/>
      <point x="621" y="264" type="curve"/>
      <point x="587" y="242"/>
      <point x="564" y="215"/>
      <point x="550" y="186" type="curve"/>
      <point x="511" y="113"/>
      <point x="456" y="82"/>
      <point x="364" y="75" type="curve"/>
      <point x="338" y="-9" type="line"/>
      <point x="349" y="-30" type="line"/>
      <point x="412" y="-33"/>
      <point x="494" y="-40"/>
      <point x="491" y="-81" type="curve"/>
      <point x="468" y="-104"/>
      <point x="424" y="-120"/>
      <point x="374" y="-128" type="curve" smooth="yes"/>
      <point x="346" y="-133"/>
      <point x="316" y="-135"/>
      <point x="287" y="-135" type="curve" smooth="yes"/>
      <point x="229" y="-135"/>
      <point x="190" y="-121"/>
      <point x="163" y="-102" type="curve" smooth="yes"/>
      <point x="121" y="-72"/>
      <point x="109" y="-33"/>
      <point x="109" y="4" type="curve"/>
      <point x="111" y="52"/>
      <point x="134" y="94"/>
      <point x="143" y="104" type="curve"/>
      <point x="127" y="120" type="line"/>
      <point x="107" y="96"/>
      <point x="95" y="72"/>
      <point x="87" y="46" type="curve" smooth="yes"/>
      <point x="70" y="-4"/>
      <point x="70" y="-50"/>
      <point x="70" y="-63" type="curve" smooth="yes"/>
    </contour>
    <contour>
      <point x="589" y="167"/>
      <point x="614" y="182"/>
      <point x="638" y="182" type="curve" smooth="yes"/>
      <point x="668" y="182"/>
      <point x="697" y="140"/>
      <point x="697" y="140" type="curve"/>
      <point x="687" y="120"/>
      <point x="678" y="100"/>
      <point x="678" y="100" type="curve" smooth="yes"/>
      <point x="645" y="101"/>
      <point x="603" y="118"/>
      <point x="577" y="143" type="curve"/>
    </contour>
    <contour>
      <point x="884" y="216" type="move" name="bottom_1"/>
    </contour>
    <contour>
      <point x="467" y="270" type="move" name="top_2"/>
    </contour>
    <contour>
      <point x="756" y="0" type="move" name="caret_2"/>
    </contour>
    <contour>
      <point x="378" y="0" type="move" name="caret_1"/>
    </contour>
    <contour>
      <point x="281" y="-279" type="move" name="bottom_3"/>
    </contour>
    <contour>
      <point x="710" y="505" type="move" name="top_1"/>
    </contour>
    <contour>
      <point x="678" y="-58" type="move" name="bottom_2"/>
    </contour>
    <contour>
      <point x="269" y="83" type="move" name="top_3"/>
    </contour>
  </outline>
</glyph>
<glyph name="uni063306450649" format="1">
  <advance width="1181"/>
  <outline>
    <contour>
      <point x="1120" y="296"/>
      <point x="1110" y="339"/>
      <point x="1091" y="357" type="curve"/>
      <point x="1038" y="288" type="line"/>
      <point x="1047" y="261"/>
      <point x="1056" y="229"/>
      <point x="1055" y="205" type="curve"/>
      <point x="1055" y="205"/>
      <point x="1011" y="200"/>
      <point x="983" y="215" type="curve" smooth="yes"/>
      <point x="947" y="235"/>
      <point x="942" y="275"/>
      <point x="941" y="297" type="curve"/>
      <point x="926" y="304" type="line"/>
      <point x="924" y="280"/>
      <point x="918" y="257"/>
      <point x="907" y="239" type="curve" smooth="yes"/>
      <point x="893" y="216"/>
      <point x="870" y="201"/>
      <point x="840" y="201" type="curve" smooth="yes"/>
      <point x="815" y="201"/>
      <point x="799" y="205"/>
      <point x="785" y="215" type="curve"/>
      <point x="771" y="226"/>
      <point x="760" y="243"/>
      <point x="744" y="269" type="curve"/>
      <point x="731" y="292"/>
      <point x="715" y="311"/>
      <point x="683" y="311" type="curve"/>
      <point x="643" y="311"/>
      <point x="603" y="280"/>
      <point x="576" y="229" type="curve" smooth="yes"/>
      <point x="558" y="196"/>
      <point x="548" y="141"/>
      <point x="548" y="106" type="curve"/>
      <point x="512" y="107"/>
      <point x="476" y="104"/>
      <point x="445" y="97" type="curve" smooth="yes"/>
      <point x="412" y="90"/>
      <point x="384" y="79"/>
      <point x="364" y="66" type="curve"/>
      <point x="338" y="-18" type="line"/>
      <point x="349" y="-39" type="line"/>
      <point x="412" y="-42"/>
      <point x="494" y="-49"/>
      <point x="491" y="-90" type="curve"/>
      <point x="468" y="-113"/>
      <point x="424" y="-129"/>
      <point x="374" y="-137" type="curve" smooth="yes"/>
      <point x="346" y="-142"/>
      <point x="316" y="-144"/>
      <point x="287" y="-144" type="curve" smooth="yes"/>
      <point x="229" y="-144"/>
      <point x="190" y="-130"/>
      <point x="163" y="-111" type="curve" smooth="yes"/>
      <point x="121" y="-81"/>
      <point x="109" y="-42"/>
      <point x="109" y="-5" type="curve"/>
      <point x="111" y="43"/>
      <point x="134" y="85"/>
      <point x="143" y="95" type="curve"/>
      <point x="127" y="111" type="line"/>
      <point x="107" y="87"/>
      <point x="95" y="63"/>
      <point x="87" y="37" type="curve" smooth="yes"/>
      <point x="70" y="-13"/>
      <point x="70" y="-59"/>
      <point x="70" y="-72" type="curve" smooth="yes"/>
      <point x="70" y="-90"/>
      <point x="78" y="-151"/>
      <point x="119" y="-198" type="curve" smooth="yes"/>
      <point x="148" y="-232"/>
      <point x="201" y="-258"/>
      <point x="271" y="-258" type="curve" smooth="yes"/>
      <point x="320" y="-258"/>
      <point x="377" y="-248"/>
      <point x="427" y="-229" type="curve" smooth="yes"/>
      <point x="483" y="-207"/>
      <point x="534" y="-174"/>
      <point x="545" y="-128" type="curve" smooth="yes"/>
      <point x="551" y="-102"/>
      <point x="554" y="-88"/>
      <point x="558" y="-67" type="curve" smooth="yes"/>
      <point x="565" y="-33"/>
      <point x="521" y="1"/>
      <point x="476" y="17" type="curve"/>
      <point x="512" y="25"/>
      <point x="558" y="25"/>
      <point x="601" y="16" type="curve" smooth="yes"/>
      <point x="638" y="9"/>
      <point x="673" y="-4"/>
      <point x="699" y="-24" type="curve"/>
      <point x="717" y="101" type="line"/>
      <point x="701" y="117"/>
      <point x="680" y="122"/>
      <point x="661" y="128" type="curve" smooth="yes"/>
      <point x="640" y="135"/>
      <point x="620" y="142"/>
      <point x="608" y="167" type="curve"/>
      <point x="621" y="191"/>
      <point x="648" y="216"/>
      <point x="673" y="216" type="curve" smooth="yes"/>
      <point x="721" y="216"/>
      <point x="737" y="183"/>
      <point x="755" y="151" type="curve" smooth="yes"/>
      <point x="772" y="122"/>
      <point x="798" y="95"/>
      <point x="848" y="95" type="curve" smooth="yes"/>
      <point x="871" y="95"/>
      <point x="892" y="103"/>
      <point x="907" y="117" type="curve" smooth="yes"/>
      <point x="920" y="130"/>
      <point x="930" y="146"/>
      <point x="933" y="165" type="curve"/>
      <point x="940" y="150"/>
      <point x="950" y="131"/>
      <point x="969" y="116" type="curve"/>
      <point x="984" y="105"/>
      <point x="1006" y="96"/>
      <point x="1037" y="96" type="curve" smooth="yes"/>
      <point x="1051" y="96"/>
      <point x="1068" y="115"/>
      <point x="1083" y="137" type="curve" smooth="yes"/>
      <point x="1099" y="159"/>
      <point x="1112" y="184"/>
      <point x="1114" y="191" type="curve" smooth="yes"/>
      <point x="1119" y="209"/>
      <point x="1122" y="231"/>
      <point x="1121" y="254" type="curve" smooth="yes"/>
    </contour>
    <contour>
      <point x="926" y="57" type="move" name="bottom_1"/>
    </contour>
    <contour>
      <point x="643" y="341" type="move" name="top_2"/>
    </contour>
    <contour>
      <point x="787" y="0" type="move" name="caret_2"/>
    </contour>
    <contour>
      <point x="394" y="0" type="move" name="caret_1"/>
    </contour>
    <contour>
      <point x="281" y="-288" type="move" name="bottom_3"/>
    </contour>
    <contour>
      <point x="926" y="344" type="move" name="top_1"/>
    </contour>
    <contour>
      <point x="682" y="-90" type="move" name="bottom_2"/>
    </contour>
    <contour>
      <point x="283" y="85" type="move" name="top_3"/>
    </contour>
  </outline>
</glyph>
<glyph name="uni063906450649" format="1">
  <advance width="1005"/>
  <outline>
    <contour>
      <point x="70" y="-81"/>
      <point x="78" y="-142"/>
      <point x="119" y="-189" type="curve" smooth="yes"/>
      <point x="148" y="-223"/>
      <point x="201" y="-249"/>
      <point x="271" y="-249" type="curve" smooth="yes"/>
      <point x="320" y="-249"/>
      <point x="377" y="-239"/>
      <point x="427" y="-220" type="curve" smooth="yes"/>
      <point x="483" y="-198"/>
      <point x="534" y="-165"/>
      <point x="545" y="-119" type="curve" smooth="yes"/>
      <point x="551" y="-93"/>
      <point x="554" y="-79"/>
      <point x="558" y="-58" type="curve" smooth="yes"/>
      <point x="565" y="-23"/>
      <point x="522" y="10"/>
      <point x="476" y="26" type="curve"/>
      <point x="522" y="42"/>
      <point x="545" y="66"/>
      <point x="557" y="97" type="curve"/>
      <point x="557" y="51"/>
      <point x="592" y="11"/>
      <point x="643" y="11" type="curve" smooth="yes"/>
      <point x="679" y="11"/>
      <point x="706" y="34"/>
      <point x="706" y="34" type="curve"/>
      <point x="715" y="64"/>
      <point x="722" y="86"/>
      <point x="731" y="131" type="curve" smooth="yes"/>
      <point x="739" y="169"/>
      <point x="731" y="202"/>
      <point x="698" y="226" type="curve"/>
      <point x="761" y="257"/>
      <point x="852" y="288"/>
      <point x="911" y="297" type="curve"/>
      <point x="945" y="395" type="line"/>
      <point x="857" y="373"/>
      <point x="839" y="367"/>
      <point x="772" y="345" type="curve"/>
      <point x="753" y="351"/>
      <point x="733" y="364"/>
      <point x="723" y="370" type="curve" smooth="yes"/>
      <point x="705" y="380"/>
      <point x="681" y="400"/>
      <point x="662" y="420" type="curve"/>
      <point x="665" y="425"/>
      <point x="676" y="439"/>
      <point x="692" y="451" type="curve"/>
      <point x="709" y="465"/>
      <point x="734" y="478"/>
      <point x="763" y="478" type="curve" smooth="yes"/>
      <point x="799" y="478"/>
      <point x="825" y="470"/>
      <point x="858" y="454" type="curve"/>
      <point x="881" y="496" type="line"/>
      <point x="869" y="516"/>
      <point x="854" y="533"/>
      <point x="836" y="546" type="curve"/>
      <point x="814" y="560"/>
      <point x="788" y="569"/>
      <point x="757" y="569" type="curve" smooth="yes"/>
      <point x="728" y="569"/>
      <point x="703" y="559"/>
      <point x="683" y="545" type="curve" smooth="yes"/>
      <point x="658" y="528"/>
      <point x="640" y="504"/>
      <point x="631" y="483" type="curve" smooth="yes"/>
      <point x="620" y="457"/>
      <point x="615" y="434"/>
      <point x="613" y="398" type="curve"/>
      <point x="618" y="367"/>
      <point x="638" y="323"/>
      <point x="681" y="293" type="curve"/>
      <point x="615" y="270"/>
      <point x="571" y="230"/>
      <point x="550" y="186" type="curve"/>
      <point x="511" y="113"/>
      <point x="456" y="82"/>
      <point x="364" y="75" type="curve"/>
      <point x="338" y="-9" type="line"/>
      <point x="349" y="-30" type="line"/>
      <point x="412" y="-33"/>
      <point x="494" y="-40"/>
      <point x="491" y="-81" type="curve"/>
      <point x="468" y="-104"/>
      <point x="424" y="-120"/>
      <point x="374" y="-128" type="curve" smooth="yes"/>
      <point x="346" y="-133"/>
      <point x="316" y="-135"/>
      <point x="287" y="-135" type="curve" smooth="yes"/>
      <point x="229" y="-135"/>
      <point x="190" y="-121"/>
      <point x="163" y="-102" type="curve" smooth="yes"/>
      <point x="121" y="-72"/>
      <point x="109" y="-33"/>
      <point x="109" y="4" type="curve"/>
      <point x="111" y="52"/>
      <point x="134" y="94"/>
      <point x="143" y="104" type="curve"/>
      <point x="127" y="120" type="line"/>
      <point x="107" y="96"/>
      <point x="95" y="72"/>
      <point x="87" y="46" type="curve" smooth="yes"/>
      <point x="70" y="-4"/>
      <point x="70" y="-50"/>
      <point x="70" y="-63" type="curve" smooth="yes"/>
    </contour>
    <contour>
      <point x="589" y="167"/>
      <point x="614" y="182"/>
      <point x="638" y="182" type="curve" smooth="yes"/>
      <point x="668" y="182"/>
      <point x="697" y="140"/>
      <point x="697" y="140" type="curve"/>
      <point x="687" y="120"/>
      <point x="678" y="100"/>
      <point x="678" y="100" type="curve" smooth="yes"/>
      <point x="645" y="101"/>
      <point x="603" y="118"/>
      <point x="577" y="143" type="curve"/>
    </contour>
    <contour>
      <point x="649" y="114" type="move"/>
    </contour>
    <contour>
      <point x="811" y="0" type="move" name="bottom_1"/>
    </contour>
    <contour>
      <point x="483" y="257" type="move" name="top_2"/>
    </contour>
    <contour>
      <point x="670" y="0" type="move" name="caret_2"/>
    </contour>
    <contour>
      <point x="335" y="0" type="move" name="caret_1"/>
    </contour>
    <contour>
      <point x="271" y="-279" type="move" name="bottom_3"/>
    </contour>
    <contour>
      <point x="757" y="599" type="move" name="top_1"/>
    </contour>
    <contour>
      <point x="592" y="-200" type="move" name="bottom_2"/>
    </contour>
    <contour>
      <point x="277" y="83" type="move" name="top_3"/>
    </contour>
  </outline>
</glyph>
<glyph name="uni06430643.fina" format="1">
  <advance width="1240"/>
  <outline>
    <contour>
      <point x="496" y="197"/>
      <point x="507" y="217"/>
      <point x="514" y="249" type="curve" smooth="yes"/>
      <point x="517" y="262"/>
      <point x="512" y="280"/>
      <point x="487" y="281" type="curve"/>
      <point x="449" y="281"/>
      <point x="443" y="293"/>
      <point x="443" y="293" type="curve"/>
      <point x="444" y="313"/>
      <point x="491" y="315"/>
      <point x="491" y="315" type="curve"/>
      <point x="508" y="369" type="line"/>
      <point x="486" y="364"/>
      <point x="460" y="353"/>
      <point x="441" y="339" type="curve" smooth="yes"/>
      <point x="421" y="324"/>
      <point x="407" y="305"/>
      <point x="407" y="282" type="curve" smooth="yes"/>
      <point x="407" y="267"/>
      <point x="412" y="256"/>
      <point x="419" y="248" type="curve"/>
      <point x="428" y="240"/>
      <point x="440" y="237"/>
      <point x="454" y="237" type="curve" smooth="yes"/>
      <point x="475" y="237"/>
      <point x="477" y="230"/>
      <point x="477" y="230" type="curve"/>
      <point x="460" y="206"/>
      <point x="374" y="203"/>
      <point x="364" y="204" type="curve"/>
      <point x="356" y="188" type="line"/>
      <point x="363" y="185"/>
      <point x="395" y="177"/>
      <point x="409" y="175" type="curve" smooth="yes"/>
      <point x="438" y="171"/>
      <point x="463" y="171"/>
      <point x="482" y="186" type="curve" smooth="yes"/>
    </contour>
    <contour>
      <point x="1175" y="106"/>
      <point x="1156" y="107"/>
      <point x="1138" y="114" type="curve" smooth="yes"/>
      <point x="1097" y="129"/>
      <point x="1072" y="167"/>
      <point x="1051" y="200" type="curve" smooth="yes"/>
      <point x="1029" y="235"/>
      <point x="1010" y="266"/>
      <point x="981" y="306" type="curve" smooth="yes"/>
      <point x="954" y="344"/>
      <point x="924" y="379"/>
      <point x="892" y="404" type="curve"/>
      <point x="928" y="427"/>
      <point x="940" y="434"/>
      <point x="1018" y="472" type="curve" smooth="yes"/>
      <point x="1102" y="513"/>
      <point x="1149" y="538"/>
      <point x="1157" y="544" type="curve"/>
      <point x="1182" y="657" type="line"/>
      <point x="1144" y="631"/>
      <point x="1066" y="591"/>
      <point x="1047" y="582" type="curve" smooth="yes"/>
      <point x="1014" y="566"/>
      <point x="914" y="514"/>
      <point x="881" y="496" type="curve" smooth="yes"/>
      <point x="845" y="476"/>
      <point x="815" y="457"/>
      <point x="802" y="424" type="curve"/>
      <point x="792" y="504"/>
      <point x="781" y="597"/>
      <point x="771" y="681" type="curve"/>
      <point x="708" y="607" type="line"/>
      <point x="713" y="563"/>
      <point x="756" y="203"/>
      <point x="761" y="160" type="curve"/>
      <point x="712" y="129"/>
      <point x="606" y="85"/>
      <point x="393" y="85" type="curve" smooth="yes"/>
      <point x="306" y="85"/>
      <point x="244" y="94"/>
      <point x="201" y="110" type="curve" smooth="yes"/>
      <point x="140" y="134"/>
      <point x="118" y="172"/>
      <point x="118" y="220" type="curve" smooth="yes"/>
      <point x="118" y="255"/>
      <point x="134" y="293"/>
      <point x="142" y="306" type="curve"/>
      <point x="126" y="321" type="line"/>
      <point x="97" y="295"/>
      <point x="70" y="218"/>
      <point x="70" y="161" type="curve" smooth="yes"/>
      <point x="70" y="126"/>
      <point x="81" y="84"/>
      <point x="114" y="49" type="curve" smooth="yes"/>
      <point x="154" y="8"/>
      <point x="225" y="-23"/>
      <point x="350" y="-23" type="curve" smooth="yes"/>
      <point x="581" y="-23"/>
      <point x="704" y="27"/>
      <point x="777" y="90" type="curve"/>
      <point x="787" y="40"/>
      <point x="829" y="0"/>
      <point x="889" y="0" type="curve" smooth="yes"/>
      <point x="958" y="0"/>
      <point x="1019" y="23"/>
      <point x="1038" y="85" type="curve"/>
      <point x="1058" y="55"/>
      <point x="1099" y="0"/>
      <point x="1188" y="0" type="curve" smooth="yes"/>
      <point x="1240" y="0" type="line"/>
      <point x="1240" y="106" type="line"/>
      <point x="1195" y="106" type="line" smooth="yes"/>
    </contour>
    <contour>
      <point x="889" y="106"/>
      <point x="870" y="115"/>
      <point x="856" y="134" type="curve" smooth="yes"/>
      <point x="841" y="155"/>
      <point x="831" y="190"/>
      <point x="824" y="244" type="curve" smooth="yes"/>
      <point x="822" y="262"/>
      <point x="817" y="300"/>
      <point x="811" y="349" type="curve"/>
      <point x="847" y="324"/>
      <point x="878" y="293"/>
      <point x="906" y="259" type="curve" smooth="yes"/>
      <point x="941" y="218"/>
      <point x="970" y="173"/>
      <point x="993" y="137" type="curve"/>
      <point x="974" y="118"/>
      <point x="950" y="106"/>
      <point x="915" y="106" type="curve"/>
    </contour>
    <contour>
      <point x="620" y="0" type="move" name="caret_1"/>
    </contour>
    <contour>
      <point x="888" y="-34" type="move" name="bottom_1"/>
    </contour>
    <contour>
      <point x="949" y="590" type="move" name="top_1"/>
    </contour>
    <contour>
      <point x="451" y="389" type="move" name="top_2"/>
    </contour>
    <contour>
      <point x="393" y="-55" type="move" name="bottom_2"/>
    </contour>
  </outline>
</glyph>
<glyph name="uni064306440627.fina" format="1">
  <advance width="959"/>
  <outline>
    <contour>
      <point x="213" y="-22" type="line"/>
      <point x="280" y="-1"/>
      <point x="337" y="30"/>
      <point x="380" y="70" type="curve" smooth="yes"/>
      <point x="428" y="115"/>
      <point x="459" y="171"/>
      <point x="468" y="236" type="curve"/>
      <point x="472" y="179" type="line" smooth="yes"/>
      <point x="475" y="135"/>
      <point x="481" y="91"/>
      <point x="500" y="57" type="curve" smooth="yes"/>
      <point x="519" y="23"/>
      <point x="553" y="0"/>
      <point x="610" y="0" type="curve"/>
      <point x="684" y="0"/>
      <point x="738" y="31"/>
      <point x="757" y="85" type="curve"/>
      <point x="777" y="55"/>
      <point x="818" y="0"/>
      <point x="907" y="0" type="curve" smooth="yes"/>
      <point x="959" y="0" type="line"/>
      <point x="959" y="106" type="line"/>
      <point x="914" y="106" type="line" smooth="yes"/>
      <point x="894" y="106"/>
      <point x="875" y="107"/>
      <point x="857" y="114" type="curve" smooth="yes"/>
      <point x="816" y="129"/>
      <point x="791" y="167"/>
      <point x="770" y="200" type="curve" smooth="yes"/>
      <point x="748" y="235"/>
      <point x="729" y="266"/>
      <point x="700" y="306" type="curve" smooth="yes"/>
      <point x="673" y="344"/>
      <point x="643" y="379"/>
      <point x="611" y="404" type="curve"/>
      <point x="647" y="427"/>
      <point x="659" y="434"/>
      <point x="737" y="472" type="curve" smooth="yes"/>
      <point x="821" y="513"/>
      <point x="868" y="538"/>
      <point x="876" y="544" type="curve"/>
      <point x="901" y="657" type="line"/>
      <point x="863" y="631"/>
      <point x="785" y="591"/>
      <point x="766" y="582" type="curve" smooth="yes"/>
      <point x="733" y="566"/>
      <point x="633" y="514"/>
      <point x="600" y="496" type="curve" smooth="yes"/>
      <point x="570" y="479"/>
      <point x="544" y="463"/>
      <point x="528" y="439" type="curve"/>
      <point x="514" y="681" type="line"/>
      <point x="446" y="611" type="line"/>
      <point x="457" y="429" type="line" smooth="yes"/>
      <point x="459" y="384"/>
      <point x="451" y="337"/>
      <point x="438" y="297" type="curve" smooth="yes"/>
      <point x="426" y="263"/>
      <point x="411" y="233"/>
      <point x="393" y="215" type="curve"/>
      <point x="386" y="278"/>
      <point x="347" y="369"/>
      <point x="285" y="446" type="curve" smooth="yes"/>
      <point x="243" y="498"/>
      <point x="190" y="544"/>
      <point x="129" y="572" type="curve"/>
      <point x="102" y="469" type="line"/>
      <point x="184" y="384" type="line"/>
      <point x="191" y="410" type="line"/>
      <point x="222" y="389"/>
      <point x="253" y="358"/>
      <point x="280" y="321" type="curve" smooth="yes"/>
      <point x="310" y="280"/>
      <point x="339" y="224"/>
      <point x="352" y="173" type="curve"/>
      <point x="321" y="135"/>
      <point x="274" y="101"/>
      <point x="214" y="69" type="curve" smooth="yes"/>
      <point x="165" y="41"/>
      <point x="107" y="15"/>
      <point x="40" y="-12" type="curve"/>
    </contour>
    <contour>
      <point x="568" y="322"/>
      <point x="599" y="291"/>
      <point x="625" y="259" type="curve" smooth="yes"/>
      <point x="660" y="218"/>
      <point x="689" y="173"/>
      <point x="712" y="137" type="curve"/>
      <point x="692" y="117"/>
      <point x="666" y="107"/>
      <point x="629" y="106" type="curve"/>
      <point x="601" y="107"/>
      <point x="580" y="113"/>
      <point x="567" y="133" type="curve" smooth="yes"/>
      <point x="553" y="153"/>
      <point x="545" y="187"/>
      <point x="541" y="242" type="curve" smooth="yes"/>
      <point x="534" y="346" type="line"/>
    </contour>
    <contour>
      <point x="611" y="-34" type="move" name="bottom_1"/>
    </contour>
    <contour>
      <point x="389" y="660" type="move" name="top_2"/>
    </contour>
    <contour>
      <point x="639" y="0" type="move" name="caret_2"/>
    </contour>
    <contour>
      <point x="320" y="0" type="move" name="caret_1"/>
    </contour>
    <contour>
      <point x="146" y="-55" type="move" name="bottom_3"/>
    </contour>
    <contour>
      <point x="679" y="591" type="move" name="top_1"/>
    </contour>
    <contour>
      <point x="382" y="-55" type="move" name="bottom_2"/>
    </contour>
    <contour>
      <point x="124" y="591" type="move" name="top_3"/>
    </contour>
  </outline>
</glyph>
<glyph name="uni064306440649.fina" format="1">
  <advance width="1001"/>
  <outline>
    <contour>
      <point x="70" y="-81"/>
      <point x="78" y="-142"/>
      <point x="119" y="-189" type="curve" smooth="yes"/>
      <point x="148" y="-223"/>
      <point x="201" y="-249"/>
      <point x="271" y="-249" type="curve" smooth="yes"/>
      <point x="320" y="-249"/>
      <point x="377" y="-239"/>
      <point x="427" y="-220" type="curve" smooth="yes"/>
      <point x="483" y="-198"/>
      <point x="533" y="-165"/>
      <point x="545" y="-119" type="curve" smooth="yes"/>
      <point x="552" y="-91"/>
      <point x="554" y="-79"/>
      <point x="558" y="-58" type="curve" smooth="yes"/>
      <point x="565" y="-23"/>
      <point x="522" y="10"/>
      <point x="476" y="26" type="curve"/>
      <point x="507" y="40"/>
      <point x="529" y="66"/>
      <point x="538" y="90" type="curve"/>
      <point x="546" y="64"/>
      <point x="559" y="44"/>
      <point x="576" y="29" type="curve" smooth="yes"/>
      <point x="598" y="10"/>
      <point x="626" y="0"/>
      <point x="660" y="0" type="curve"/>
      <point x="695" y="0"/>
      <point x="728" y="8"/>
      <point x="753" y="25" type="curve" smooth="yes"/>
      <point x="775" y="39"/>
      <point x="792" y="59"/>
      <point x="799" y="85" type="curve"/>
      <point x="819" y="55"/>
      <point x="860" y="0"/>
      <point x="949" y="0" type="curve" smooth="yes"/>
      <point x="1001" y="0" type="line"/>
      <point x="1001" y="106" type="line"/>
      <point x="956" y="106" type="line" smooth="yes"/>
      <point x="936" y="106"/>
      <point x="917" y="107"/>
      <point x="899" y="114" type="curve" smooth="yes"/>
      <point x="858" y="129"/>
      <point x="833" y="167"/>
      <point x="812" y="200" type="curve" smooth="yes"/>
      <point x="790" y="235"/>
      <point x="771" y="266"/>
      <point x="742" y="306" type="curve" smooth="yes"/>
      <point x="715" y="344"/>
      <point x="685" y="379"/>
      <point x="653" y="404" type="curve"/>
      <point x="689" y="427"/>
      <point x="701" y="434"/>
      <point x="779" y="472" type="curve" smooth="yes"/>
      <point x="863" y="513"/>
      <point x="910" y="538"/>
      <point x="918" y="544" type="curve"/>
      <point x="943" y="657" type="line"/>
      <point x="905" y="631"/>
      <point x="827" y="591"/>
      <point x="808" y="582" type="curve" smooth="yes"/>
      <point x="775" y="566"/>
      <point x="675" y="514"/>
      <point x="642" y="496" type="curve" smooth="yes"/>
      <point x="607" y="477"/>
      <point x="577" y="458"/>
      <point x="564" y="426" type="curve"/>
      <point x="533" y="681" type="line"/>
      <point x="470" y="607" type="line"/>
      <point x="496" y="389" type="line"/>
      <point x="522" y="168" type="line"/>
      <point x="513" y="145"/>
      <point x="495" y="126"/>
      <point x="472" y="111" type="curve" smooth="yes"/>
      <point x="443" y="93"/>
      <point x="405" y="82"/>
      <point x="364" y="75" type="curve"/>
      <point x="338" y="-9" type="line"/>
      <point x="349" y="-30" type="line"/>
      <point x="412" y="-33"/>
      <point x="495" y="-40"/>
      <point x="492" y="-81" type="curve"/>
      <point x="468" y="-104"/>
      <point x="424" y="-120"/>
      <point x="374" y="-128" type="curve" smooth="yes"/>
      <point x="346" y="-133"/>
      <point x="316" y="-135"/>
      <point x="287" y="-135" type="curve" smooth="yes"/>
      <point x="229" y="-135"/>
      <point x="190" y="-121"/>
      <point x="163" y="-102" type="curve" smooth="yes"/>
      <point x="121" y="-72"/>
      <point x="109" y="-33"/>
      <point x="109" y="4" type="curve"/>
      <point x="111" y="52"/>
      <point x="134" y="94"/>
      <point x="143" y="104" type="curve"/>
      <point x="127" y="120" type="line"/>
      <point x="107" y="96"/>
      <point x="95" y="72"/>
      <point x="87" y="46" type="curve" smooth="yes"/>
      <point x="70" y="-4"/>
      <point x="70" y="-50"/>
      <point x="70" y="-63" type="curve" smooth="yes"/>
    </contour>
    <contour>
      <point x="609" y="323"/>
      <point x="640" y="292"/>
      <point x="667" y="259" type="curve" smooth="yes"/>
      <point x="702" y="218"/>
      <point x="731" y="173"/>
      <point x="754" y="137" type="curve"/>
      <point x="735" y="118"/>
      <point x="711" y="106"/>
      <point x="677" y="106" type="curve" smooth="yes"/>
      <point x="651" y="106"/>
      <point x="632" y="115"/>
      <point x="618" y="135" type="curve" smooth="yes"/>
      <point x="603" y="156"/>
      <point x="593" y="190"/>
      <point x="586" y="245" type="curve" smooth="yes"/>
      <point x="573" y="348" type="line"/>
    </contour>
    <contour>
      <point x="690" y="-34" type="move" name="bottom_1"/>
    </contour>
    <contour>
      <point x="473" y="702" type="move" name="top_2"/>
    </contour>
    <contour>
      <point x="667" y="0" type="move" name="caret_2"/>
    </contour>
    <contour>
      <point x="334" y="0" type="move" name="caret_1"/>
    </contour>
    <contour>
      <point x="281" y="-279" type="move" name="bottom_3"/>
    </contour>
    <contour>
      <point x="792" y="631" type="move" name="top_1"/>
    </contour>
    <contour>
      <point x="507" y="-225" type="move" name="bottom_2"/>
    </contour>
    <contour>
      <point x="273" y="84" type="move" name="top_3"/>
    </contour>
  </outline>
</glyph>
<glyph name="uni064306440649" format="1">
  <advance width="948"/>
  <outline>
    <contour>
      <point x="70" y="-81"/>
      <point x="78" y="-142"/>
      <point x="119" y="-189" type="curve" smooth="yes"/>
      <point x="148" y="-223"/>
      <point x="201" y="-249"/>
      <point x="271" y="-249" type="curve" smooth="yes"/>
      <point x="320" y="-249"/>
      <point x="377" y="-239"/>
      <point x="427" y="-220" type="curve" smooth="yes"/>
      <point x="483" y="-198"/>
      <point x="533" y="-165"/>
      <point x="545" y="-119" type="curve" smooth="yes"/>
      <point x="552" y="-91"/>
      <point x="554" y="-79"/>
      <point x="558" y="-58" type="curve" smooth="yes"/>
      <point x="565" y="-23"/>
      <point x="522" y="10"/>
      <point x="476" y="26" type="curve"/>
      <point x="507" y="40"/>
      <point x="529" y="66"/>
      <point x="538" y="90" type="curve"/>
      <point x="543" y="69"/>
      <point x="553" y="50"/>
      <point x="569" y="35" type="curve" smooth="yes"/>
      <point x="591" y="13"/>
      <point x="623" y="0"/>
      <point x="660" y="0" type="curve" smooth="yes"/>
      <point x="717" y="0"/>
      <point x="762" y="20"/>
      <point x="785" y="55" type="curve" smooth="yes"/>
      <point x="805" y="84"/>
      <point x="814" y="123"/>
      <point x="814" y="170" type="curve" smooth="yes"/>
      <point x="814" y="215"/>
      <point x="790" y="266"/>
      <point x="758" y="311" type="curve" smooth="yes"/>
      <point x="726" y="354"/>
      <point x="687" y="391"/>
      <point x="653" y="409" type="curve"/>
      <point x="667" y="419"/>
      <point x="729" y="449"/>
      <point x="787" y="475" type="curve" smooth="yes"/>
      <point x="841" y="500"/>
      <point x="896" y="526"/>
      <point x="923" y="544" type="curve"/>
      <point x="948" y="657" type="line"/>
      <point x="902" y="628"/>
      <point x="883" y="617"/>
      <point x="807" y="580" type="curve" smooth="yes"/>
      <point x="766" y="560"/>
      <point x="721" y="538"/>
      <point x="678" y="514" type="curve" smooth="yes"/>
      <point x="654" y="500"/>
      <point x="591" y="465"/>
      <point x="563" y="432" type="curve"/>
      <point x="533" y="681" type="line"/>
      <point x="470" y="607" type="line"/>
      <point x="514" y="238" type="line"/>
      <point x="522" y="167" type="line"/>
      <point x="513" y="145"/>
      <point x="495" y="126"/>
      <point x="472" y="111" type="curve" smooth="yes"/>
      <point x="443" y="93"/>
      <point x="405" y="82"/>
      <point x="364" y="75" type="curve"/>
      <point x="338" y="-9" type="line"/>
      <point x="349" y="-30" type="line"/>
      <point x="412" y="-33"/>
      <point x="495" y="-40"/>
      <point x="492" y="-81" type="curve"/>
      <point x="468" y="-104"/>
      <point x="424" y="-120"/>
      <point x="374" y="-128" type="curve" smooth="yes"/>
      <point x="346" y="-133"/>
      <point x="316" y="-135"/>
      <point x="287" y="-135" type="curve" smooth="yes"/>
      <point x="229" y="-135"/>
      <point x="190" y="-121"/>
      <point x="163" y="-102" type="curve" smooth="yes"/>
      <point x="121" y="-72"/>
      <point x="109" y="-33"/>
      <point x="109" y="4" type="curve"/>
      <point x="111" y="52"/>
      <point x="134" y="94"/>
      <point x="143" y="104" type="curve"/>
      <point x="127" y="120" type="line"/>
      <point x="107" y="96"/>
      <point x="95" y="72"/>
      <point x="87" y="46" type="curve" smooth="yes"/>
      <point x="70" y="-4"/>
      <point x="70" y="-50"/>
      <point x="70" y="-63" type="curve" smooth="yes"/>
    </contour>
    <contour>
      <point x="618" y="322"/>
      <point x="655" y="294"/>
      <point x="685" y="263" type="curve" smooth="yes"/>
      <point x="723" y="224"/>
      <point x="748" y="180"/>
      <point x="756" y="151" type="curve"/>
      <point x="737" y="125"/>
      <point x="714" y="106"/>
      <point x="668" y="106" type="curve" smooth="yes"/>
      <point x="645" y="106"/>
      <point x="630" y="117"/>
      <point x="618" y="134" type="curve" smooth="yes"/>
      <point x="603" y="155"/>
      <point x="593" y="190"/>
      <point x="586" y="245" type="curve" smooth="yes"/>
      <point x="574" y="338" type="line"/>
    </contour>
    <contour>
      <point x="684" y="-34" type="move" name="bottom_1"/>
    </contour>
    <contour>
      <point x="482" y="712" type="move" name="top_2"/>
    </contour>
    <contour>
      <point x="632" y="0" type="move" name="caret_2"/>
    </contour>
    <contour>
      <point x="316" y="0" type="move" name="caret_1"/>
    </contour>
    <contour>
      <point x="271" y="-279" type="move" name="bottom_3"/>
    </contour>
    <contour>
      <point x="800" y="634" type="move" name="top_1"/>
    </contour>
    <contour>
      <point x="499" y="-224" type="move" name="bottom_2"/>
    </contour>
    <contour>
      <point x="282" y="86" type="move" name="top_3"/>
    </contour>
  </outline>
</glyph>
<glyph name="uni0644062D0649" format="1">
  <advance width="886"/>
  <outline>
    <contour>
      <point x="789" y="273"/>
      <point x="757" y="272"/>
      <point x="713" y="280" type="curve" smooth="yes"/>
      <point x="661" y="290"/>
      <point x="635" y="304"/>
      <point x="585" y="323" type="curve"/>
      <point x="592" y="338"/>
      <point x="599" y="353"/>
      <point x="599" y="369" type="curve" smooth="yes"/>
      <point x="599" y="413"/>
      <point x="598" y="473"/>
      <point x="591" y="531" type="curve" smooth="yes"/>
      <point x="587" y="562"/>
      <point x="593" y="572"/>
      <point x="613" y="592" type="curve"/>
      <point x="580" y="618"/>
      <point x="569" y="639"/>
      <point x="550" y="682" type="curve"/>
      <point x="522" y="678"/>
      <point x="508" y="657"/>
      <point x="501" y="635" type="curve" smooth="yes"/>
      <point x="493" y="610"/>
      <point x="494" y="581"/>
      <point x="494" y="581" type="curve"/>
      <point x="509" y="567" type="line"/>
      <point x="527" y="497"/>
      <point x="535" y="425"/>
      <point x="543" y="351" type="curve"/>
      <point x="524" y="344"/>
      <point x="493" y="344"/>
      <point x="464" y="343" type="curve" smooth="yes"/>
      <point x="435" y="342"/>
      <point x="409" y="340"/>
      <point x="402" y="328" type="curve"/>
      <point x="379" y="292"/>
      <point x="370" y="269"/>
      <point x="370" y="269" type="curve" smooth="yes"/>
      <point x="370" y="269"/>
      <point x="410" y="264"/>
      <point x="428" y="222" type="curve"/>
      <point x="440" y="227" type="line"/>
      <point x="440" y="250" type="line"/>
      <point x="445" y="256"/>
      <point x="454" y="263"/>
      <point x="470" y="258" type="curve" smooth="yes"/>
      <point x="531" y="240"/>
      <point x="561" y="230"/>
      <point x="594" y="219" type="curve"/>
      <point x="551" y="212"/>
      <point x="506" y="200"/>
      <point x="459" y="176" type="curve" smooth="yes"/>
      <point x="424" y="157"/>
      <point x="391" y="134"/>
      <point x="367" y="105" type="curve"/>
      <point x="338" y="21" type="line"/>
      <point x="349" y="0" type="line"/>
      <point x="412" y="-3"/>
      <point x="495" y="-10"/>
      <point x="492" y="-51" type="curve"/>
      <point x="468" y="-74"/>
      <point x="424" y="-90"/>
      <point x="374" y="-98" type="curve" smooth="yes"/>
      <point x="346" y="-103"/>
      <point x="316" y="-105"/>
      <point x="287" y="-105" type="curve" smooth="yes"/>
      <point x="229" y="-105"/>
      <point x="190" y="-91"/>
      <point x="163" y="-72" type="curve" smooth="yes"/>
      <point x="121" y="-42"/>
      <point x="109" y="-3"/>
      <point x="109" y="34" type="curve"/>
      <point x="111" y="82"/>
      <point x="134" y="124"/>
      <point x="143" y="134" type="curve"/>
      <point x="127" y="150" type="line"/>
      <point x="107" y="126"/>
      <point x="95" y="102"/>
      <point x="87" y="76" type="curve" smooth="yes"/>
      <point x="70" y="26"/>
      <point x="70" y="-20"/>
      <point x="70" y="-33" type="curve" smooth="yes"/>
      <point x="70" y="-51"/>
      <point x="78" y="-112"/>
      <point x="119" y="-159" type="curve" smooth="yes"/>
      <point x="148" y="-193"/>
      <point x="201" y="-219"/>
      <point x="271" y="-219" type="curve" smooth="yes"/>
      <point x="320" y="-219"/>
      <point x="377" y="-209"/>
      <point x="427" y="-190" type="curve" smooth="yes"/>
      <point x="483" y="-168"/>
      <point x="531" y="-134"/>
      <point x="545" y="-89" type="curve" smooth="yes"/>
      <point x="553" y="-63"/>
      <point x="555" y="-46"/>
      <point x="559" y="-25" type="curve" smooth="yes"/>
      <point x="567" y="13"/>
      <point x="520" y="60"/>
      <point x="434" y="74" type="curve"/>
      <point x="470" y="107"/>
      <point x="525" y="132"/>
      <point x="584" y="150" type="curve" smooth="yes"/>
      <point x="648" y="170"/>
      <point x="717" y="180"/>
      <point x="769" y="178" type="curve"/>
      <point x="821" y="273" type="line"/>
    </contour>
    <contour>
      <point x="682" y="106" type="move" name="bottom_1"/>
    </contour>
    <contour>
      <point x="354" y="415" type="move" name="top_2"/>
    </contour>
    <contour>
      <point x="591" y="0" type="move" name="caret_2"/>
    </contour>
    <contour>
      <point x="295" y="0" type="move" name="caret_1"/>
    </contour>
    <contour>
      <point x="281" y="-249" type="move" name="bottom_3"/>
    </contour>
    <contour>
      <point x="497" y="702" type="move" name="top_1"/>
    </contour>
    <contour>
      <point x="568" y="-188" type="move" name="bottom_2"/>
    </contour>
    <contour>
      <point x="216" y="175" type="move" name="top_3"/>
    </contour>
  </outline>
</glyph>
<glyph name="uni064406450649" format="1">
  <advance width="787"/>
  <outline>
    <contour>
      <point x="701" y="117"/>
      <point x="680" y="122"/>
      <point x="661" y="128" type="curve" smooth="yes"/>
      <point x="634" y="137"/>
      <point x="608" y="147"/>
      <point x="600" y="193" type="curve" smooth="yes"/>
      <point x="582" y="290"/>
      <point x="564" y="459"/>
      <point x="554" y="535" type="curve" smooth="yes"/>
      <point x="550" y="565"/>
      <point x="554" y="576"/>
      <point x="573" y="597" type="curve"/>
      <point x="538" y="621"/>
      <point x="526" y="641"/>
      <point x="505" y="683" type="curve"/>
      <point x="477" y="678"/>
      <point x="464" y="656"/>
      <point x="459" y="634" type="curve"/>
      <point x="452" y="608"/>
      <point x="454" y="580"/>
      <point x="454" y="580" type="curve"/>
      <point x="470" y="566" type="line"/>
      <point x="493" y="491"/>
      <point x="510" y="421"/>
      <point x="518" y="341" type="curve" smooth="yes"/>
      <point x="528" y="238"/>
      <point x="529" y="150"/>
      <point x="548" y="106" type="curve"/>
      <point x="512" y="107"/>
      <point x="476" y="104"/>
      <point x="445" y="97" type="curve" smooth="yes"/>
      <point x="412" y="90"/>
      <point x="384" y="79"/>
      <point x="364" y="66" type="curve"/>
      <point x="338" y="-18" type="line"/>
      <point x="349" y="-39" type="line"/>
      <point x="412" y="-42"/>
      <point x="494" y="-49"/>
      <point x="491" y="-90" type="curve"/>
      <point x="468" y="-113"/>
      <point x="424" y="-129"/>
      <point x="374" y="-137" type="curve" smooth="yes"/>
      <point x="346" y="-142"/>
      <point x="316" y="-144"/>
      <point x="287" y="-144" type="curve" smooth="yes"/>
      <point x="229" y="-144"/>
      <point x="190" y="-130"/>
      <point x="163" y="-111" type="curve" smooth="yes"/>
      <point x="121" y="-81"/>
      <point x="109" y="-42"/>
      <point x="109" y="-5" type="curve"/>
      <point x="111" y="43"/>
      <point x="134" y="85"/>
      <point x="143" y="95" type="curve"/>
      <point x="127" y="111" type="line"/>
      <point x="107" y="87"/>
      <point x="95" y="63"/>
      <point x="87" y="37" type="curve" smooth="yes"/>
      <point x="70" y="-13"/>
      <point x="70" y="-59"/>
      <point x="70" y="-72" type="curve" smooth="yes"/>
      <point x="70" y="-90"/>
      <point x="78" y="-151"/>
      <point x="119" y="-198" type="curve" smooth="yes"/>
      <point x="148" y="-232"/>
      <point x="201" y="-258"/>
      <point x="271" y="-258" type="curve" smooth="yes"/>
      <point x="320" y="-258"/>
      <point x="377" y="-248"/>
      <point x="427" y="-229" type="curve" smooth="yes"/>
      <point x="483" y="-207"/>
      <point x="534" y="-174"/>
      <point x="545" y="-128" type="curve" smooth="yes"/>
      <point x="551" y="-102"/>
      <point x="554" y="-88"/>
      <point x="558" y="-67" type="curve" smooth="yes"/>
      <point x="565" y="-33"/>
      <point x="521" y="1"/>
      <point x="476" y="17" type="curve"/>
      <point x="512" y="25"/>
      <point x="558" y="25"/>
      <point x="601" y="16" type="curve" smooth="yes"/>
      <point x="638" y="9"/>
      <point x="673" y="-4"/>
      <point x="699" y="-24" type="curve"/>
      <point x="717" y="101" type="line"/>
    </contour>
    <contour>
      <point x="454" y="-312" type="move" name="bottom_1"/>
    </contour>
    <contour>
      <point x="697" y="302" type="move" name="top_2"/>
    </contour>
    <contour>
      <point x="525" y="0" type="move" name="caret_2"/>
    </contour>
    <contour>
      <point x="262" y="0" type="move" name="caret_1"/>
    </contour>
    <contour>
      <point x="229" y="-288" type="move" name="bottom_3"/>
    </contour>
    <contour>
      <point x="452" y="696" type="move" name="top_1"/>
    </contour>
    <contour>
      <point x="642" y="-132" type="move" name="bottom_2"/>
    </contour>
    <contour>
      <point x="279" y="83" type="move" name="top_3"/>
    </contour>
  </outline>
</glyph>
